<svg width="2598" height="3898" xmlns="http://www.w3.org/2000/svg" xmlns:xlink="http://www.w3.org/1999/xlink" xml:space="preserve" overflow="hidden"><defs><clipPath id="clip0"><rect x="0" y="0" width="2598" height="3898"/></clipPath></defs><g clip-path="url(#clip0)"><path d="M1305 745C1305 590.913 1433.94 466 1593 466 1752.06 466 1881 590.913 1881 745 1881 899.088 1752.06 1024 1593 1024 1433.94 1024 1305 899.088 1305 745Z" stroke="#3B3838" stroke-width="27.5" stroke-miterlimit="8" fill="#FFFFFF" fill-rule="evenodd" fill-opacity="0.709804"/><path d="M1437.88 594.066C1473.67 557.719 1579.68 527.106 1592.19 536.079 1604.7 545.052 1524.23 597.813 1490.89 633.666 1457.54 669.518 1397.26 760.76 1377.4 754.16 1357.55 747.561 1402.08 630.413 1437.88 594.066Z" stroke="#FFFFFF" stroke-width="6.875" stroke-miterlimit="8" fill="#FFFFFF" fill-rule="evenodd"/><path d="M1377.86 841.514 1379.42 837.01C1381.56 832.297 1384.12 827.852 1387.06 823.746L1392.79 817.271 1399.04 827.559C1402.31 832.005 1405.92 836.084 1409.79 839.756L1415.25 844.064 1408.14 849.25 1398.77 859.839 1384.64 849.208Z" stroke="#FFFFFF" stroke-width="6.875" stroke-miterlimit="8" fill="#FFFFFF" fill-rule="evenodd"/><path d="M1706 1601C1706 1452.99 1825.99 1333 1974 1333 2122.01 1333 2242 1452.99 2242 1601 2242 1749.01 2122.01 1869 1974 1869 1825.99 1869 1706 1749.01 1706 1601Z" stroke="#3B3838" stroke-width="27.5" stroke-miterlimit="8" fill="#FFFFFF" fill-rule="evenodd" fill-opacity="0.709804"/><path d="M1830.14 1455.63C1863.35 1420.77 1961.68 1391.41 1973.29 1400.01 1984.89 1408.62 1910.25 1459.22 1879.32 1493.61 1848.38 1527.99 1792.47 1615.5 1774.05 1609.17 1755.63 1602.84 1796.94 1490.49 1830.14 1455.63Z" stroke="#FFFFFF" stroke-width="6.875" stroke-miterlimit="8" fill="#FFFFFF" fill-rule="evenodd"/><path d="M1773.77 1693.25 1775.19 1688.95C1777.16 1684.46 1779.51 1680.22 1782.22 1676.32L1787.52 1670.16 1793.44 1680.06C1796.52 1684.34 1799.92 1688.27 1803.56 1691.81L1808.69 1695.97 1802.09 1700.88 1793.43 1710.95 1780.15 1700.67Z" stroke="#FFFFFF" stroke-width="6.875" stroke-miterlimit="8" fill="#FFFFFF" fill-rule="evenodd"/><path d="M502 2491.5C502 2413.35 567.142 2350 647.5 2350 727.857 2350 793 2413.35 793 2491.5 793 2569.65 727.857 2633 647.5 2633 567.142 2633 502 2569.65 502 2491.5Z" stroke="#3B3838" stroke-width="27.5" stroke-miterlimit="8" fill="#FFFFFF" fill-rule="evenodd" fill-opacity="0.709804"/><path d="M569.632 2415.55C587.774 2397.22 641.498 2381.77 647.837 2386.3 654.177 2390.82 613.397 2417.44 596.497 2435.53 579.596 2453.62 549.049 2499.66 538.985 2496.33 528.922 2493 551.49 2433.89 569.632 2415.55Z" stroke="#FFFFFF" stroke-width="6.875" stroke-miterlimit="8" fill="#FFFFFF" fill-rule="evenodd"/><path d="M538.921 2540.13 539.711 2537.85C540.794 2535.47 542.087 2533.22 543.574 2531.14L546.47 2527.87 549.631 2533.07C551.285 2535.32 553.107 2537.38 555.064 2539.24L557.826 2541.42 554.231 2544.04 549.495 2549.39 542.349 2544.02Z" stroke="#FFFFFF" stroke-width="6.875" stroke-miterlimit="8" fill="#FFFFFF" fill-rule="evenodd"/><path d="M1706 2646.5C1706 2552.34 1785.69 2476 1884 2476 1982.31 2476 2062 2552.34 2062 2646.5 2062 2740.66 1982.31 2817 1884 2817 1785.69 2817 1706 2740.66 1706 2646.5Z" stroke="#3B3838" stroke-width="27.5" stroke-miterlimit="8" fill="#FFFFFF" fill-rule="evenodd" fill-opacity="0.709804"/><path d="M1788.73 2554.05C1810.76 2531.75 1876 2512.96 1883.69 2518.47 1891.39 2523.98 1841.88 2556.35 1821.35 2578.35 1800.83 2600.35 1763.74 2656.34 1751.52 2652.29 1739.3 2648.24 1766.7 2576.36 1788.73 2554.05Z" stroke="#FFFFFF" stroke-width="6.875" stroke-miterlimit="8" fill="#FFFFFF" fill-rule="evenodd"/><path d="M1751.03 2705.48 1752 2702.72C1753.34 2699.83 1754.92 2697.11 1756.75 2694.59L1760.29 2690.61 1764.14 2696.9C1766.15 2699.62 1768.37 2702.11 1770.75 2704.35L1774.12 2706.98 1769.72 2710.17 1763.92 2716.67 1755.21 2710.18Z" stroke="#FFFFFF" stroke-width="6.875" stroke-miterlimit="8" fill="#FFFFFF" fill-rule="evenodd"/><path d="M1213 2859.5C1213 2774.17 1284.41 2705 1372.5 2705 1460.59 2705 1532 2774.17 1532 2859.5 1532 2944.83 1460.59 3014 1372.5 3014 1284.41 3014 1213 2944.83 1213 2859.5Z" stroke="#3B3838" stroke-width="27.5" stroke-miterlimit="8" fill="#FFFFFF" fill-rule="evenodd" fill-opacity="0.709804"/><path d="M1286.59 2776.53C1306.35 2756.38 1364.87 2739.4 1371.78 2744.38 1378.68 2749.35 1334.26 2778.61 1315.85 2798.49 1297.44 2818.37 1264.17 2868.97 1253.21 2865.31 1242.24 2861.65 1266.83 2796.69 1286.59 2776.53Z" stroke="#FFFFFF" stroke-width="6.875" stroke-miterlimit="8" fill="#FFFFFF" fill-rule="evenodd"/><path d="M1253.3 2913.18 1254.16 2910.68C1255.35 2908.08 1256.76 2905.62 1258.39 2903.34L1261.56 2899.76 1265.02 2905.45C1266.83 2907.91 1268.83 2910.17 1270.97 2912.2L1273.99 2914.59 1270.06 2917.46 1264.87 2923.32 1257.05 2917.44Z" stroke="#FFFFFF" stroke-width="6.875" stroke-miterlimit="8" fill="#FFFFFF" fill-rule="evenodd"/><path d="M648 2788.5C648 2725.26 700.83 2674 766 2674 831.17 2674 884 2725.26 884 2788.5 884 2851.74 831.17 2903 766 2903 700.83 2903 648 2851.74 648 2788.5Z" stroke="#3B3838" stroke-width="27.5" stroke-miterlimit="8" fill="#FFFFFF" fill-rule="evenodd" fill-opacity="0.709804"/><path d="M702.42 2726.87C717.16 2712 760.811 2699.47 765.961 2703.15 771.112 2706.82 737.979 2728.4 724.247 2743.07 710.515 2757.73 685.696 2795.06 677.519 2792.36 669.342 2789.66 687.679 2741.74 702.42 2726.87Z" stroke="#FFFFFF" stroke-width="6.875" stroke-miterlimit="8" fill="#FFFFFF" fill-rule="evenodd"/><path d="M677.425 2828.37 678.066 2826.52C678.945 2824.58 679.995 2822.76 681.201 2821.08L683.552 2818.42 686.117 2822.64C687.459 2824.46 688.938 2826.14 690.527 2827.65L692.768 2829.41 689.851 2831.54 686.007 2835.89 680.207 2831.52Z" stroke="#FFFFFF" stroke-width="6.875" stroke-miterlimit="8" fill="#FFFFFF" fill-rule="evenodd"/><path d="M172 1283.5C172 1171.11 266.02 1080 382 1080 497.98 1080 592 1171.11 592 1283.5 592 1395.89 497.98 1487 382 1487 266.02 1487 172 1395.89 172 1283.5Z" stroke="#3B3838" stroke-width="27.5" stroke-miterlimit="8" fill="#FFFFFF" fill-rule="evenodd" fill-opacity="0.709804"/><path d="M269.127 1173.09C295.206 1146.49 372.434 1124.09 381.547 1130.66 390.66 1137.22 332.04 1175.83 307.745 1202.07 283.45 1228.31 239.539 1295.08 225.072 1290.25 210.606 1285.42 243.048 1199.69 269.127 1173.09Z" stroke="#FFFFFF" stroke-width="6.875" stroke-miterlimit="8" fill="#FFFFFF" fill-rule="evenodd"/><path d="M225.336 1353.81 226.474 1350.53C228.037 1347.09 229.901 1343.85 232.045 1340.86L236.22 1336.14 240.778 1343.64C243.163 1346.88 245.79 1349.85 248.613 1352.53L252.594 1355.67 247.412 1359.45 240.583 1367.17 230.278 1359.42Z" stroke="#FFFFFF" stroke-width="6.875" stroke-miterlimit="8" fill="#FFFFFF" fill-rule="evenodd"/><path d="M882 1867.5C882 1755.11 976.02 1664 1092 1664 1207.98 1664 1302 1755.11 1302 1867.5 1302 1979.89 1207.98 2071 1092 2071 976.02 2071 882 1979.89 882 1867.5Z" stroke="#3B3838" stroke-width="27.5" stroke-miterlimit="8" fill="#FFFFFF" fill-rule="evenodd" fill-opacity="0.709804"/><path d="M979.127 1757.82C1005.21 1731.39 1082.43 1709.12 1091.55 1715.65 1100.66 1722.17 1042.04 1760.55 1017.74 1786.62 993.45 1812.7 949.539 1879.05 935.072 1874.25 920.606 1869.45 953.048 1784.25 979.127 1757.82Z" stroke="#FFFFFF" stroke-width="6.875" stroke-miterlimit="8" fill="#FFFFFF" fill-rule="evenodd"/><path d="M935.317 1937.99 936.455 1934.71C938.017 1931.27 939.882 1928.03 942.026 1925.04L946.201 1920.32 950.759 1927.82C953.143 1931.06 955.771 1934.03 958.594 1936.71L962.575 1939.85 957.392 1943.63 950.563 1951.35 940.259 1943.6Z" stroke="#FFFFFF" stroke-width="6.875" stroke-miterlimit="8" fill="#FFFFFF" fill-rule="evenodd"/><path d="M1576 3238C1576 3182.77 1621.89 3138 1678.5 3138 1735.11 3138 1781 3182.77 1781 3238 1781 3293.23 1735.11 3338 1678.5 3338 1621.89 3338 1576 3293.23 1576 3238Z" stroke="#3B3838" stroke-width="27.5" stroke-miterlimit="8" fill="#FFFFFF" fill-rule="evenodd" fill-opacity="0.709804"/><path d="M1623.87 3184.62C1636.67 3171.73 1674.56 3160.88 1679.03 3164.06 1683.5 3167.24 1654.74 3185.95 1642.82 3198.66 1630.9 3211.37 1609.35 3243.72 1602.25 3241.38 1595.15 3239.04 1611.07 3197.51 1623.87 3184.62Z" stroke="#FFFFFF" stroke-width="6.875" stroke-miterlimit="8" fill="#FFFFFF" fill-rule="evenodd"/><path d="M1602.22 3272.31 1602.77 3270.7C1603.54 3269.02 1604.45 3267.44 1605.5 3265.98L1607.54 3263.67 1609.77 3267.34C1610.93 3268.92 1612.22 3270.37 1613.6 3271.68L1615.54 3273.22 1613.01 3275.07 1609.67 3278.84 1604.63 3275.05Z" stroke="#FFFFFF" stroke-width="6.875" stroke-miterlimit="8" fill="#FFFFFF" fill-rule="evenodd"/><path d="M374 562C374 425.586 487.72 315 628 315 768.28 315 882 425.586 882 562 882 698.414 768.28 809 628 809 487.72 809 374 698.414 374 562Z" stroke="#3B3838" stroke-width="27.5" stroke-miterlimit="8" fill="#FFFFFF" fill-rule="evenodd" fill-opacity="0.709804"/></g></svg>