<svg width="2598" height="3898" xmlns="http://www.w3.org/2000/svg" xmlns:xlink="http://www.w3.org/1999/xlink" xml:space="preserve" overflow="hidden"><defs><clipPath id="clip0"><rect x="0" y="0" width="2598" height="3898"/></clipPath></defs><g clip-path="url(#clip0)"><path d="M1299 1585C1299 1435.88 1420.78 1315 1571 1315 1721.22 1315 1843 1435.88 1843 1585 1843 1734.12 1721.22 1855 1571 1855 1420.78 1855 1299 1734.12 1299 1585Z" stroke="#3B3838" stroke-width="27.5" stroke-miterlimit="8" fill="#FFFFFF" fill-rule="evenodd" fill-opacity="0.709804"/><path d="M1424.33 1438.9C1458.18 1403.87 1558.43 1374.37 1570.26 1383.02 1582.09 1391.67 1506 1442.51 1474.46 1477.06 1442.92 1511.61 1385.92 1599.53 1367.14 1593.17 1348.36 1586.81 1390.47 1473.93 1424.33 1438.9Z" stroke="#FFFFFF" stroke-width="6.875" stroke-miterlimit="8" fill="#FFFFFF" fill-rule="evenodd"/><path d="M1367.67 1678.03 1369.12 1673.69C1371.12 1669.16 1373.52 1664.89 1376.28 1660.95L1381.66 1654.74 1387.63 1664.7C1390.75 1669 1394.18 1672.95 1397.87 1676.51L1403.06 1680.7 1396.36 1685.65 1387.56 1695.81 1374.13 1685.48Z" stroke="#FFFFFF" stroke-width="6.875" stroke-miterlimit="8" fill="#FFFFFF" fill-rule="evenodd"/><path d="M1802 509C1802 410.693 1881.92 331 1980.5 331 2079.08 331 2159 410.693 2159 509 2159 607.307 2079.08 687 1980.5 687 1881.92 687 1802 607.307 1802 509Z" stroke="#3B3838" stroke-width="27.5" stroke-miterlimit="8" fill="#FFFFFF" fill-rule="evenodd" fill-opacity="0.709804"/><path d="M1884.73 412.406C1906.76 389.276 1972 369.794 1979.69 375.505 1987.39 381.215 1937.88 414.79 1917.35 437.605 1896.83 460.421 1859.74 518.484 1847.52 514.284 1835.3 510.084 1862.7 435.535 1884.73 412.406Z" stroke="#FFFFFF" stroke-width="6.875" stroke-miterlimit="8" fill="#FFFFFF" fill-rule="evenodd"/><path d="M1847.25 570.164 1848.2 567.305C1849.51 564.316 1851.07 561.5 1852.88 558.901L1856.4 554.808 1860.33 561.387C1862.39 564.234 1864.65 566.848 1867.07 569.205L1870.48 571.974 1866.09 575.24 1860.33 581.934 1851.5 575.096Z" stroke="#FFFFFF" stroke-width="6.875" stroke-miterlimit="8" fill="#FFFFFF" fill-rule="evenodd"/><path d="M583 2736.5C583 2670.5 638.293 2617 706.5 2617 774.707 2617 830 2670.5 830 2736.5 830 2802.5 774.707 2856 706.5 2856 638.293 2856 583 2802.5 583 2736.5Z" stroke="#3B3838" stroke-width="27.5" stroke-miterlimit="8" fill="#FFFFFF" fill-rule="evenodd" fill-opacity="0.709804"/><path d="M640.307 2671.95C655.534 2656.42 700.623 2643.34 705.943 2647.17 711.264 2651.01 677.039 2673.55 662.854 2688.87 648.67 2704.19 623.032 2743.17 614.586 2740.35 606.14 2737.53 625.081 2687.48 640.307 2671.95Z" stroke="#FFFFFF" stroke-width="6.875" stroke-miterlimit="8" fill="#FFFFFF" fill-rule="evenodd"/><path d="M614.496 2777.76 615.163 2775.83C616.08 2773.82 617.174 2771.92 618.431 2770.16L620.881 2767.39 623.555 2771.79C624.953 2773.69 626.495 2775.44 628.151 2777.01L630.486 2778.85 627.446 2781.07 623.44 2785.6 617.395 2781.05Z" stroke="#FFFFFF" stroke-width="6.875" stroke-miterlimit="8" fill="#FFFFFF" fill-rule="evenodd"/><path d="M1475 2525.5C1475 2438.52 1548.2 2368 1638.5 2368 1728.8 2368 1802 2438.52 1802 2525.5 1802 2612.48 1728.8 2683 1638.5 2683 1548.2 2683 1475 2612.48 1475 2525.5Z" stroke="#3B3838" stroke-width="27.5" stroke-miterlimit="8" fill="#FFFFFF" fill-rule="evenodd" fill-opacity="0.709804"/><path d="M1550.77 2440.07C1571.18 2419.59 1631.62 2402.33 1638.75 2407.39 1645.89 2412.45 1600.01 2442.19 1581 2462.39 1561.98 2482.6 1527.62 2534.03 1516.3 2530.31 1504.97 2526.59 1530.36 2460.56 1550.77 2440.07Z" stroke="#FFFFFF" stroke-width="6.875" stroke-miterlimit="8" fill="#FFFFFF" fill-rule="evenodd"/><path d="M1516.16 2579.64 1517.06 2577.1C1518.28 2574.44 1519.74 2571.93 1521.42 2569.61L1524.69 2565.95 1528.23 2571.74C1530.08 2574.24 1532.12 2576.54 1534.32 2578.6L1537.42 2581.02 1533.37 2583.96 1528.02 2589.94 1520 2583.97Z" stroke="#FFFFFF" stroke-width="6.875" stroke-miterlimit="8" fill="#FFFFFF" fill-rule="evenodd"/><path d="M501 586.5C501 456.437 606.437 351 736.5 351 866.563 351 972 456.437 972 586.5 972 716.563 866.563 822 736.5 822 606.437 822 501 716.563 501 586.5Z" stroke="#3B3838" stroke-width="27.5" stroke-miterlimit="8" fill="#FFFFFF" fill-rule="evenodd" fill-opacity="0.709804"/><path d="M609.748 458.86C638.905 428.131 725.246 402.248 735.435 409.835 745.623 417.421 680.085 462.029 652.923 492.34 625.761 522.652 576.668 599.792 560.494 594.213 544.32 588.633 580.591 489.59 609.748 458.86Z" stroke="#FFFFFF" stroke-width="6.875" stroke-miterlimit="8" fill="#FFFFFF" fill-rule="evenodd"/><path d="M560.046 667.964 561.298 664.182C563.027 660.229 565.098 656.505 567.485 653.067L572.145 647.655 577.347 656.356C580.062 660.12 583.048 663.578 586.252 666.695L590.765 670.357 584.962 674.676 577.34 683.528 565.663 674.485Z" stroke="#FFFFFF" stroke-width="6.875" stroke-miterlimit="8" fill="#FFFFFF" fill-rule="evenodd"/><path d="M819 3025.5C819 2940.17 890.187 2871 978 2871 1065.81 2871 1137 2940.17 1137 3025.5 1137 3110.83 1065.81 3180 978 3180 890.187 3180 819 3110.83 819 3025.5Z" stroke="#3B3838" stroke-width="27.5" stroke-miterlimit="8" fill="#FFFFFF" fill-rule="evenodd" fill-opacity="0.709804"/><path d="M892.59 2942.53C912.352 2922.38 970.873 2905.4 977.778 2910.38 984.683 2915.35 940.263 2944.61 921.853 2964.49 903.444 2984.37 870.169 3034.97 859.207 3031.31 848.245 3027.65 872.829 2962.69 892.59 2942.53Z" stroke="#FFFFFF" stroke-width="6.875" stroke-miterlimit="8" fill="#FFFFFF" fill-rule="evenodd"/><path d="M859.071 3079.22 859.935 3076.73C861.121 3074.12 862.536 3071.66 864.164 3069.39L867.333 3065.8 870.793 3071.5C872.603 3073.96 874.598 3076.21 876.741 3078.25L879.763 3080.63 875.829 3083.5 870.645 3089.36 862.822 3083.48Z" stroke="#FFFFFF" stroke-width="6.875" stroke-miterlimit="8" fill="#FFFFFF" fill-rule="evenodd"/><path d="M1717 2502.5C1717 2439.26 1769.83 2388 1835 2388 1900.17 2388 1953 2439.26 1953 2502.5 1953 2565.74 1900.17 2617 1835 2617 1769.83 2617 1717 2565.74 1717 2502.5Z" stroke="#3B3838" stroke-width="27.5" stroke-miterlimit="8" fill="#FFFFFF" fill-rule="evenodd" fill-opacity="0.709804"/><path d="M1771.42 2440.87C1786.16 2426 1829.81 2413.47 1834.96 2417.15 1840.11 2420.82 1806.98 2442.4 1793.25 2457.07 1779.52 2471.73 1754.7 2509.06 1746.52 2506.36 1738.34 2503.66 1756.68 2455.74 1771.42 2440.87Z" stroke="#FFFFFF" stroke-width="6.875" stroke-miterlimit="8" fill="#FFFFFF" fill-rule="evenodd"/><path d="M1746.55 2542.08 1747.19 2540.23C1748.07 2538.3 1749.12 2536.47 1750.32 2534.79L1752.68 2532.13 1755.24 2536.35C1756.58 2538.18 1758.06 2539.85 1759.65 2541.36L1761.89 2543.13 1758.97 2545.25 1755.13 2549.6 1749.33 2545.24Z" stroke="#FFFFFF" stroke-width="6.875" stroke-miterlimit="8" fill="#FFFFFF" fill-rule="evenodd"/><path d="M109 1616.5C109 1504.11 203.02 1413 319 1413 434.98 1413 529 1504.11 529 1616.5 529 1728.89 434.98 1820 319 1820 203.02 1820 109 1728.89 109 1616.5Z" stroke="#3B3838" stroke-width="27.5" stroke-miterlimit="8" fill="#FFFFFF" fill-rule="evenodd" fill-opacity="0.709804"/><path d="M206.127 1506.09C232.206 1479.49 309.434 1457.09 318.547 1463.66 327.659 1470.22 269.04 1508.83 244.745 1535.07 220.45 1561.31 176.539 1628.08 162.072 1623.25 147.606 1618.42 180.048 1532.69 206.127 1506.09Z" stroke="#FFFFFF" stroke-width="6.875" stroke-miterlimit="8" fill="#FFFFFF" fill-rule="evenodd"/><path d="M162.025 1686.77 163.163 1683.48C164.726 1680.05 166.591 1676.81 168.734 1673.81L172.91 1669.09 177.468 1676.59C179.852 1679.83 182.479 1682.81 185.302 1685.49L189.283 1688.63 184.101 1692.41 177.272 1700.13 166.967 1692.38Z" stroke="#FFFFFF" stroke-width="6.875" stroke-miterlimit="8" fill="#FFFFFF" fill-rule="evenodd"/><path d="M758 2242.5C758 2098.63 877.988 1982 1026 1982 1174.01 1982 1294 2098.63 1294 2242.5 1294 2386.37 1174.01 2503 1026 2503 877.988 2503 758 2386.37 758 2242.5Z" stroke="#3B3838" stroke-width="27.5" stroke-miterlimit="8" fill="#FFFFFF" fill-rule="evenodd" fill-opacity="0.709804"/><path d="M882.143 2101C915.35 2067.14 1013.68 2038.61 1025.29 2046.97 1036.89 2055.33 962.249 2104.5 931.315 2137.9 900.381 2171.31 844.469 2256.33 826.049 2250.18 807.629 2244.03 848.937 2134.87 882.143 2101Z" stroke="#FFFFFF" stroke-width="6.875" stroke-miterlimit="8" fill="#FFFFFF" fill-rule="evenodd"/><path d="M825.765 2331.98 827.22 2327.78C829.218 2323.39 831.603 2319.24 834.344 2315.41L839.683 2309.38 845.512 2318.97C848.561 2323.11 851.92 2326.92 855.531 2330.34L860.621 2334.36 853.994 2339.19 845.262 2349.06 832.084 2339.15Z" stroke="#FFFFFF" stroke-width="6.875" stroke-miterlimit="8" fill="#FFFFFF" fill-rule="evenodd"/><path d="M583 3395.5C583 3340.55 629.115 3296 686 3296 742.885 3296 789 3340.55 789 3395.5 789 3450.45 742.885 3495 686 3495 629.115 3495 583 3450.45 583 3395.5Z" stroke="#3B3838" stroke-width="27.5" stroke-miterlimit="8" fill="#FFFFFF" fill-rule="evenodd" fill-opacity="0.709804"/><path d="M630.87 3342.62C643.666 3329.73 681.561 3318.88 686.032 3322.06 690.504 3325.24 661.74 3343.95 649.819 3356.66 637.898 3369.37 616.351 3401.72 609.253 3399.38 602.154 3397.04 618.073 3355.51 630.87 3342.62Z" stroke="#FFFFFF" stroke-width="6.875" stroke-miterlimit="8" fill="#FFFFFF" fill-rule="evenodd"/><path d="M609.323 3430.29 609.88 3428.69C610.644 3427.01 611.555 3425.42 612.603 3423.96L614.645 3421.65 616.873 3425.32C618.039 3426.9 619.324 3428.36 620.704 3429.67L622.65 3431.2 620.117 3433.05 616.778 3436.83 611.74 3433.04Z" stroke="#FFFFFF" stroke-width="6.875" stroke-miterlimit="8" fill="#FFFFFF" fill-rule="evenodd"/></g></svg>