<svg width="2598" height="3898" xmlns="http://www.w3.org/2000/svg" xmlns:xlink="http://www.w3.org/1999/xlink" xml:space="preserve" overflow="hidden"><defs><clipPath id="clip0"><rect x="0" y="0" width="2598" height="3898"/></clipPath></defs><g clip-path="url(#clip0)"><path d="M792 2131.5C792 2019.11 886.02 1928 1002 1928 1117.98 1928 1212 2019.11 1212 2131.5 1212 2243.89 1117.98 2335 1002 2335 886.02 2335 792 2243.89 792 2131.5Z" stroke="#3B3838" stroke-width="27.5" stroke-miterlimit="8" fill="#FFFFFF" fill-rule="evenodd" fill-opacity="0.709804"/><path d="M889.127 2021.09C915.206 1994.49 992.434 1972.09 1001.55 1978.66 1010.66 1985.22 952.04 2023.83 927.745 2050.07 903.45 2076.31 859.539 2143.08 845.072 2138.25 830.606 2133.42 863.048 2047.69 889.127 2021.09Z" stroke="#FFFFFF" stroke-width="6.875" stroke-miterlimit="8" fill="#FFFFFF" fill-rule="evenodd"/><path d="M845.037 2201.78 846.175 2198.49C847.738 2195.06 849.603 2191.82 851.746 2188.82L855.922 2184.1 860.48 2191.6C862.864 2194.84 865.491 2197.82 868.314 2200.49L872.295 2203.64 867.113 2207.42 860.284 2215.14 849.979 2207.39Z" stroke="#FFFFFF" stroke-width="6.875" stroke-miterlimit="8" fill="#FFFFFF" fill-rule="evenodd"/><path d="M1066 1178C1066 1074.17 1150.39 990 1254.5 990 1358.61 990 1443 1074.17 1443 1178 1443 1281.83 1358.61 1366 1254.5 1366 1150.39 1366 1066 1281.83 1066 1178Z" stroke="#3B3838" stroke-width="27.5" stroke-miterlimit="8" fill="#FFFFFF" fill-rule="evenodd" fill-opacity="0.709804"/><path d="M1153.39 1076.57C1176.88 1052.12 1246.43 1031.53 1254.64 1037.56 1262.85 1043.6 1210.05 1079.09 1188.17 1103.21 1166.29 1127.33 1126.75 1188.71 1113.72 1184.27 1100.69 1179.83 1129.91 1101.02 1153.39 1076.57Z" stroke="#FFFFFF" stroke-width="6.875" stroke-miterlimit="8" fill="#FFFFFF" fill-rule="evenodd"/><path d="M1113.94 1242.89 1114.94 1239.86C1116.32 1236.71 1117.97 1233.73 1119.88 1230.98L1123.61 1226.66 1127.76 1233.61C1129.93 1236.62 1132.32 1239.38 1134.88 1241.87L1138.48 1244.8 1133.85 1248.25 1127.76 1255.32 1118.43 1248.1Z" stroke="#FFFFFF" stroke-width="6.875" stroke-miterlimit="8" fill="#FFFFFF" fill-rule="evenodd"/><path d="M206 1434.5C206 1330.39 290.17 1246 394 1246 497.829 1246 582 1330.39 582 1434.5 582 1538.61 497.829 1623 394 1623 290.17 1623 206 1538.61 206 1434.5Z" stroke="#3B3838" stroke-width="27.5" stroke-miterlimit="8" fill="#FFFFFF" fill-rule="evenodd" fill-opacity="0.709804"/><path d="M293.098 1332.57C316.424 1308.12 385.497 1287.53 393.648 1293.56 401.798 1299.6 349.368 1335.09 327.638 1359.21 305.909 1383.33 266.634 1444.71 253.695 1440.27 240.756 1435.83 269.773 1357.02 293.098 1332.57Z" stroke="#FFFFFF" stroke-width="6.875" stroke-miterlimit="8" fill="#FFFFFF" fill-rule="evenodd"/><path d="M253.307 1499.52 254.307 1496.5C255.688 1493.34 257.343 1490.37 259.251 1487.62L262.974 1483.3 267.13 1490.25C269.299 1493.26 271.685 1496.02 274.245 1498.51L277.851 1501.43 273.214 1504.89 267.124 1511.96 257.795 1504.73Z" stroke="#FFFFFF" stroke-width="6.875" stroke-miterlimit="8" fill="#FFFFFF" fill-rule="evenodd"/><path d="M1760 270.5C1760 147.617 1863.87 48.0001 1992 48.0001 2120.13 48.0001 2224 147.617 2224 270.5 2224 393.383 2120.13 493 1992 493 1863.87 493 1760 393.383 1760 270.5Z" stroke="#3B3838" stroke-width="27.5" stroke-miterlimit="8" fill="#FFFFFF" fill-rule="evenodd" fill-opacity="0.709804"/><path d="M1867.86 150.153C1896.53 121.075 1981.43 96.5843 1991.45 103.763 2001.47 110.942 1937.03 153.151 1910.32 181.833 1883.61 210.514 1835.33 283.508 1819.43 278.228 1803.52 272.948 1839.19 179.23 1867.86 150.153Z" stroke="#FFFFFF" stroke-width="6.875" stroke-miterlimit="8" fill="#FFFFFF" fill-rule="evenodd"/><path d="M1818.97 347.67 1820.23 344.073C1821.97 340.307 1824.04 336.755 1826.41 333.472L1831.04 328.293 1836.05 336.488C1838.67 340.028 1841.56 343.276 1844.67 346.197L1849.05 349.622 1843.32 353.776 1835.76 362.247 1824.41 353.795Z" stroke="#FFFFFF" stroke-width="6.875" stroke-miterlimit="8" fill="#FFFFFF" fill-rule="evenodd"/><path d="M1285 3285C1285 3150.79 1397.15 3042 1535.5 3042 1673.85 3042 1786 3150.79 1786 3285 1786 3419.21 1673.85 3528 1535.5 3528 1397.15 3528 1285 3419.21 1285 3285Z" stroke="#3B3838" stroke-width="27.5" stroke-miterlimit="8" fill="#FFFFFF" fill-rule="evenodd" fill-opacity="0.709804"/><path d="M1400.3 3153.49C1431.4 3121.76 1523.5 3095.05 1534.36 3102.88 1545.23 3110.71 1475.32 3156.76 1446.35 3188.04 1417.38 3219.33 1365.01 3298.96 1347.76 3293.2 1330.51 3287.44 1369.2 3185.21 1400.3 3153.49Z" stroke="#FFFFFF" stroke-width="6.875" stroke-miterlimit="8" fill="#FFFFFF" fill-rule="evenodd"/><path d="M1348.17 3369.03 1349.53 3365.12C1351.4 3361.02 1353.62 3357.15 1356.18 3353.58L1361.16 3347.95 1366.6 3356.89C1369.45 3360.76 1372.58 3364.31 1375.95 3367.51L1380.7 3371.25 1374.52 3375.76 1366.37 3384.98 1354.07 3375.73Z" stroke="#FFFFFF" stroke-width="6.875" stroke-miterlimit="8" fill="#FFFFFF" fill-rule="evenodd"/><path d="M1786 2622C1786 2554.62 1842.86 2500 1913 2500 1983.14 2500 2040 2554.62 2040 2622 2040 2689.38 1983.14 2744 1913 2744 1842.86 2744 1786 2689.38 1786 2622Z" stroke="#3B3838" stroke-width="27.5" stroke-miterlimit="8" fill="#FFFFFF" fill-rule="evenodd" fill-opacity="0.709804"/><path d="M1844.49 2556.49C1860.36 2540.63 1907.37 2527.27 1912.92 2531.19 1918.47 2535.1 1882.79 2558.13 1868 2573.77 1853.21 2589.42 1826.48 2629.23 1817.67 2626.35 1808.87 2623.47 1828.62 2572.35 1844.49 2556.49Z" stroke="#FFFFFF" stroke-width="6.875" stroke-miterlimit="8" fill="#FFFFFF" fill-rule="evenodd"/><path d="M1817.63 2664.1 1818.33 2662.13C1819.28 2660.07 1820.41 2658.12 1821.72 2656.32L1824.25 2653.48 1827 2657.97C1828.44 2659.91 1830.02 2661.7 1831.73 2663.3L1834.13 2665.18 1830.99 2667.45 1826.84 2672.1 1820.62 2667.46Z" stroke="#FFFFFF" stroke-width="6.875" stroke-miterlimit="8" fill="#FFFFFF" fill-rule="evenodd"/><path d="M233 514C233 359.913 358.136 235 512.5 235 666.864 235 792 359.913 792 514 792 668.088 666.864 793 512.5 793 358.136 793 233 668.088 233 514Z" stroke="#3B3838" stroke-width="27.5" stroke-miterlimit="8" fill="#FFFFFF" fill-rule="evenodd" fill-opacity="0.709804"/><path d="M362.806 363.066C397.47 326.719 500.121 296.105 512.233 305.079 524.346 314.052 446.429 366.813 414.136 402.666 381.844 438.518 323.477 529.76 304.248 523.16 285.02 516.561 328.142 399.413 362.806 363.066Z" stroke="#FFFFFF" stroke-width="6.875" stroke-miterlimit="8" fill="#FFFFFF" fill-rule="evenodd"/><path d="M303.906 610.208 305.39 605.726C307.439 601.041 309.894 596.627 312.723 592.553L318.247 586.138 324.412 596.451C327.63 600.912 331.169 605.01 334.966 608.704L340.315 613.045 333.437 618.163 324.404 628.655 310.564 617.937Z" stroke="#FFFFFF" stroke-width="6.875" stroke-miterlimit="8" fill="#FFFFFF" fill-rule="evenodd"/><path d="M304 3196.5C304 3111.17 375.187 3042 463 3042 550.813 3042 622 3111.17 622 3196.5 622 3281.83 550.813 3351 463 3351 375.187 3351 304 3281.83 304 3196.5Z" stroke="#3B3838" stroke-width="27.5" stroke-miterlimit="8" fill="#FFFFFF" fill-rule="evenodd" fill-opacity="0.709804"/><path d="M377.59 3113.53C397.352 3093.38 455.872 3076.4 462.778 3081.38 469.683 3086.35 425.263 3115.61 406.853 3135.49 388.443 3155.37 355.169 3205.97 344.207 3202.31 333.245 3198.65 357.828 3133.69 377.59 3113.53Z" stroke="#FFFFFF" stroke-width="6.875" stroke-miterlimit="8" fill="#FFFFFF" fill-rule="evenodd"/><path d="M343.982 3250.1 344.846 3247.61C346.032 3245 347.447 3242.54 349.075 3240.27L352.244 3236.69 355.704 3242.38C357.514 3244.84 359.509 3247.1 361.652 3249.13L364.674 3251.52 360.74 3254.39 355.556 3260.25 347.733 3254.36Z" stroke="#FFFFFF" stroke-width="6.875" stroke-miterlimit="8" fill="#FFFFFF" fill-rule="evenodd"/><path d="M1755 1687C1755 1572.12 1851.03 1479 1969.5 1479 2087.96 1479 2184 1572.12 2184 1687 2184 1801.88 2087.96 1895 1969.5 1895 1851.03 1895 1755 1801.88 1755 1687Z" stroke="#3B3838" stroke-width="27.5" stroke-miterlimit="8" fill="#FFFFFF" fill-rule="evenodd" fill-opacity="0.709804"/><path d="M1854.31 1574.9C1881.04 1547.81 1960.18 1524.99 1969.52 1531.68 1978.86 1538.37 1918.79 1577.7 1893.89 1604.42 1868.99 1631.15 1823.99 1699.17 1809.16 1694.25 1794.34 1689.33 1827.58 1602 1854.31 1574.9Z" stroke="#FFFFFF" stroke-width="6.875" stroke-miterlimit="8" fill="#FFFFFF" fill-rule="evenodd"/><path d="M1809.48 1759.07 1810.64 1755.72C1812.24 1752.21 1814.14 1748.9 1816.33 1745.84L1820.6 1741.02 1825.26 1748.68C1827.69 1751.99 1830.37 1755.03 1833.26 1757.77L1837.33 1760.97 1832.03 1764.84 1825.06 1772.72 1814.53 1764.8Z" stroke="#FFFFFF" stroke-width="6.875" stroke-miterlimit="8" fill="#FFFFFF" fill-rule="evenodd"/><path d="M1520 2538.5C1520 2453.17 1591.41 2384 1679.5 2384 1767.59 2384 1839 2453.17 1839 2538.5 1839 2623.83 1767.59 2693 1679.5 2693 1591.41 2693 1520 2623.83 1520 2538.5Z" stroke="#3B3838" stroke-width="27.5" stroke-miterlimit="8" fill="#FFFFFF" fill-rule="evenodd" fill-opacity="0.709804"/><path d="M1593.59 2454.53C1613.35 2434.38 1671.87 2417.4 1678.78 2422.38 1685.68 2427.35 1641.26 2456.61 1622.85 2476.49 1604.44 2496.37 1571.17 2546.97 1560.21 2543.31 1549.24 2539.65 1573.83 2474.69 1593.59 2454.53Z" stroke="#FFFFFF" stroke-width="6.875" stroke-miterlimit="8" fill="#FFFFFF" fill-rule="evenodd"/><path d="M1560.32 2591.6 1561.18 2589.1C1562.37 2586.5 1563.78 2584.04 1565.41 2581.76L1568.58 2578.18 1572.04 2583.87C1573.85 2586.33 1575.85 2588.59 1577.99 2590.62L1581.01 2593.01 1577.08 2595.88 1571.89 2601.74 1564.07 2595.85Z" stroke="#FFFFFF" stroke-width="6.875" stroke-miterlimit="8" fill="#FFFFFF" fill-rule="evenodd"/></g></svg>