<svg width="2599" height="3898" xmlns="http://www.w3.org/2000/svg" xmlns:xlink="http://www.w3.org/1999/xlink" xml:space="preserve" overflow="hidden"><defs><clipPath id="clip0"><rect x="-4" y="0" width="2599" height="3898"/></clipPath></defs><g clip-path="url(#clip0)" transform="translate(4 0)"><path d="M1067 1653.5C1067 1541.11 1160.8 1450 1276.5 1450 1392.2 1450 1486 1541.11 1486 1653.5 1486 1765.89 1392.2 1857 1276.5 1857 1160.8 1857 1067 1765.89 1067 1653.5Z" stroke="#3B3838" stroke-width="27.5" stroke-miterlimit="8" fill="#FFFFFF" fill-rule="evenodd" fill-opacity="0.709804"/><path d="M1164.13 1543.82C1190.21 1517.39 1267.43 1495.12 1276.55 1501.65 1285.66 1508.17 1227.04 1546.55 1202.74 1572.62 1178.45 1598.7 1134.54 1665.05 1120.07 1660.25 1105.61 1655.45 1138.05 1570.25 1164.13 1543.82Z" stroke="#FFFFFF" stroke-width="6.875" stroke-miterlimit="8" fill="#FFFFFF" fill-rule="evenodd"/><path d="M1119.94 1723.88 1121.08 1720.6C1122.65 1717.16 1124.51 1713.92 1126.65 1710.93L1130.83 1706.21 1135.39 1713.71C1137.77 1716.95 1140.4 1719.92 1143.22 1722.6L1147.2 1725.74 1142.02 1729.52 1135.19 1737.24 1124.89 1729.49Z" stroke="#FFFFFF" stroke-width="6.875" stroke-miterlimit="8" fill="#FFFFFF" fill-rule="evenodd"/><path d="M1714 1938.5C1714 1834.39 1798.17 1750 1902 1750 2005.83 1750 2090 1834.39 2090 1938.5 2090 2042.61 2005.83 2127 1902 2127 1798.17 2127 1714 2042.61 1714 1938.5Z" stroke="#3B3838" stroke-width="27.5" stroke-miterlimit="8" fill="#FFFFFF" fill-rule="evenodd" fill-opacity="0.709804"/><path d="M1801.1 1836.57C1824.42 1812.12 1893.5 1791.53 1901.65 1797.56 1909.8 1803.6 1857.37 1839.09 1835.64 1863.21 1813.91 1887.33 1774.63 1948.71 1761.7 1944.27 1748.76 1939.83 1777.77 1861.02 1801.1 1836.57Z" stroke="#FFFFFF" stroke-width="6.875" stroke-miterlimit="8" fill="#FFFFFF" fill-rule="evenodd"/><path d="M1761.25 2003.32 1762.25 2000.3C1763.63 1997.14 1765.28 1994.16 1767.19 1991.42L1770.91 1987.09 1775.07 1994.04C1777.24 1997.05 1779.63 1999.82 1782.19 2002.31L1785.79 2005.23 1781.16 2008.68 1775.07 2015.75 1765.74 2008.53Z" stroke="#FFFFFF" stroke-width="6.875" stroke-miterlimit="8" fill="#FFFFFF" fill-rule="evenodd"/><path d="M360 3161.5C360 3057.39 444.17 2973 548 2973 651.829 2973 736 3057.39 736 3161.5 736 3265.61 651.829 3350 548 3350 444.17 3350 360 3265.61 360 3161.5Z" stroke="#3B3838" stroke-width="27.5" stroke-miterlimit="8" fill="#FFFFFF" fill-rule="evenodd" fill-opacity="0.709804"/><path d="M446.394 3059.57C469.882 3035.12 539.435 3014.53 547.642 3020.56 555.849 3026.6 503.055 3062.09 481.174 3086.21 459.294 3110.33 419.746 3171.71 406.717 3167.27 393.689 3162.83 422.907 3084.02 446.394 3059.57Z" stroke="#FFFFFF" stroke-width="6.875" stroke-miterlimit="8" fill="#FFFFFF" fill-rule="evenodd"/><path d="M407.073 3226.15 408.073 3223.13C409.455 3219.97 411.109 3217 413.017 3214.25L416.74 3209.92 420.896 3216.88C423.066 3219.88 425.451 3222.65 428.011 3225.14L431.617 3228.06 426.98 3231.51 420.891 3238.59 411.561 3231.36Z" stroke="#FFFFFF" stroke-width="6.875" stroke-miterlimit="8" fill="#FFFFFF" fill-rule="evenodd"/><path d="M1595 901.5C1595 778.617 1698.65 679 1826.5 679 1954.35 679 2058 778.617 2058 901.5 2058 1024.38 1954.35 1124 1826.5 1124 1698.65 1124 1595 1024.38 1595 901.5Z" stroke="#3B3838" stroke-width="27.5" stroke-miterlimit="8" fill="#FFFFFF" fill-rule="evenodd" fill-opacity="0.709804"/><path d="M1701.86 780.882C1730.53 751.97 1815.43 727.618 1825.45 734.756 1835.47 741.894 1771.03 783.863 1744.32 812.382 1717.61 840.901 1669.33 913.479 1653.43 908.23 1637.52 902.98 1673.19 809.794 1701.86 780.882Z" stroke="#FFFFFF" stroke-width="6.875" stroke-miterlimit="8" fill="#FFFFFF" fill-rule="evenodd"/><path d="M1653.18 978.5 1654.44 974.902C1656.18 971.137 1658.25 967.584 1660.62 964.301L1665.25 959.122 1670.26 967.317C1672.88 970.858 1675.77 974.105 1678.88 977.026L1683.27 980.452 1677.53 984.606 1669.97 993.076 1658.62 984.624Z" stroke="#FFFFFF" stroke-width="6.875" stroke-miterlimit="8" fill="#FFFFFF" fill-rule="evenodd"/><path d="M824 2584C824 2506.13 889.143 2443 969.5 2443 1049.86 2443 1115 2506.13 1115 2584 1115 2661.87 1049.86 2725 969.5 2725 889.143 2725 824 2661.87 824 2584Z" stroke="#3B3838" stroke-width="27.5" stroke-miterlimit="8" fill="#FFFFFF" fill-rule="evenodd" fill-opacity="0.709804"/><path d="M891.632 2507.55C909.774 2489.22 963.497 2473.77 969.837 2478.3 976.176 2482.82 935.397 2509.44 918.496 2527.53 901.596 2545.62 871.049 2591.66 860.985 2588.33 850.921 2585 873.49 2525.89 891.632 2507.55Z" stroke="#FFFFFF" stroke-width="6.875" stroke-miterlimit="8" fill="#FFFFFF" fill-rule="evenodd"/><path d="M861.111 2632.55 861.901 2630.27C862.984 2627.89 864.277 2625.64 865.764 2623.56L868.66 2620.29 871.821 2625.49C873.474 2627.74 875.297 2629.8 877.254 2631.66L880.015 2633.84 876.421 2636.46 871.685 2641.81 864.539 2636.44Z" stroke="#FFFFFF" stroke-width="6.875" stroke-miterlimit="8" fill="#FFFFFF" fill-rule="evenodd"/><path d="M1804 2695C1804 2627.62 1860.86 2573 1931 2573 2001.14 2573 2058 2627.62 2058 2695 2058 2762.38 2001.14 2817 1931 2817 1860.86 2817 1804 2762.38 1804 2695Z" stroke="#3B3838" stroke-width="27.5" stroke-miterlimit="8" fill="#FFFFFF" fill-rule="evenodd" fill-opacity="0.709804"/><path d="M1863.19 2629.49C1878.91 2613.63 1925.44 2600.27 1930.93 2604.19 1936.42 2608.1 1901.1 2631.13 1886.46 2646.77 1871.82 2662.42 1845.37 2702.23 1836.65 2699.35 1827.94 2696.47 1847.48 2645.35 1863.19 2629.49Z" stroke="#FFFFFF" stroke-width="6.875" stroke-miterlimit="8" fill="#FFFFFF" fill-rule="evenodd"/><path d="M1836.11 2737.4 1836.8 2735.43C1837.75 2733.37 1838.89 2731.42 1840.19 2729.62L1842.73 2726.78 1845.47 2731.27C1846.91 2733.21 1848.5 2734.99 1850.2 2736.6L1852.6 2738.47 1849.46 2740.75 1845.31 2745.4 1839.09 2740.76Z" stroke="#FFFFFF" stroke-width="6.875" stroke-miterlimit="8" fill="#FFFFFF" fill-rule="evenodd"/><path d="M913 415C913 262.569 1036.57 139 1189 139 1341.43 139 1465 262.569 1465 415 1465 567.43 1341.43 691 1189 691 1036.57 691 913 567.43 913 415Z" stroke="#3B3838" stroke-width="27.5" stroke-miterlimit="8" fill="#FFFFFF" fill-rule="evenodd" fill-opacity="0.709804"/><path d="M1040.21 265.254C1074.55 229.403 1176.25 199.206 1188.24 208.057 1200.24 216.908 1123.06 268.95 1091.06 304.314 1059.07 339.677 1001.25 429.674 982.204 423.165 963.155 416.655 1005.87 301.105 1040.21 265.254Z" stroke="#FFFFFF" stroke-width="6.875" stroke-miterlimit="8" fill="#FFFFFF" fill-rule="evenodd"/><path d="M982.643 509.869 984.108 505.443C986.131 500.817 988.555 496.458 991.349 492.435L996.803 486.1 1002.89 496.284C1006.07 500.689 1009.56 504.736 1013.31 508.384L1018.6 512.67 1011.8 517.724 1002.88 528.085 989.217 517.501Z" stroke="#FFFFFF" stroke-width="6.875" stroke-miterlimit="8" fill="#FFFFFF" fill-rule="evenodd"/><path d="M416 3438.5C416 3353.17 487.411 3284 575.5 3284 663.589 3284 735 3353.17 735 3438.5 735 3523.83 663.589 3593 575.5 3593 487.411 3593 416 3523.83 416 3438.5Z" stroke="#3B3838" stroke-width="27.5" stroke-miterlimit="8" fill="#FFFFFF" fill-rule="evenodd" fill-opacity="0.709804"/><path d="M489.59 3354.53C509.352 3334.38 567.872 3317.4 574.778 3322.38 581.683 3327.35 537.263 3356.61 518.853 3376.49 500.444 3396.37 467.169 3446.97 456.207 3443.31 445.245 3439.65 469.828 3374.69 489.59 3354.53Z" stroke="#FFFFFF" stroke-width="6.875" stroke-miterlimit="8" fill="#FFFFFF" fill-rule="evenodd"/><path d="M456.337 3491.58 457.201 3489.09C458.387 3486.48 459.803 3484.02 461.43 3481.75L464.6 3478.16 468.06 3483.86C469.87 3486.32 471.864 3488.58 474.007 3490.61L477.029 3492.99 473.095 3495.86 467.911 3501.72 460.089 3495.84Z" stroke="#FFFFFF" stroke-width="6.875" stroke-miterlimit="8" fill="#FFFFFF" fill-rule="evenodd"/><path d="M1758 2874.5C1758 2787.52 1830.75 2717 1920.5 2717 2010.25 2717 2083 2787.52 2083 2874.5 2083 2961.48 2010.25 3032 1920.5 3032 1830.75 3032 1758 2961.48 1758 2874.5Z" stroke="#3B3838" stroke-width="27.5" stroke-miterlimit="8" fill="#FFFFFF" fill-rule="evenodd" fill-opacity="0.709804"/><path d="M1833.18 2789.07C1853.27 2768.59 1912.75 2751.33 1919.77 2756.39 1926.78 2761.45 1881.64 2791.19 1862.92 2811.39 1844.21 2831.6 1810.39 2883.03 1799.25 2879.31 1788.11 2875.59 1813.1 2809.56 1833.18 2789.07Z" stroke="#FFFFFF" stroke-width="6.875" stroke-miterlimit="8" fill="#FFFFFF" fill-rule="evenodd"/><path d="M1798.65 2929.01 1799.53 2926.47C1800.74 2923.81 1802.18 2921.3 1803.84 2918.98L1807.08 2915.33 1810.61 2921.13C1812.45 2923.64 1814.49 2925.95 1816.67 2928.02L1819.76 2930.45 1815.74 2933.38 1810.45 2939.36 1802.47 2933.36Z" stroke="#FFFFFF" stroke-width="6.875" stroke-miterlimit="8" fill="#FFFFFF" fill-rule="evenodd"/><path d="M289 1456.5C289 1344.11 382.796 1253 498.5 1253 614.204 1253 708 1344.11 708 1456.5 708 1568.89 614.204 1660 498.5 1660 382.796 1660 289 1568.89 289 1456.5Z" stroke="#3B3838" stroke-width="27.5" stroke-miterlimit="8" fill="#FFFFFF" fill-rule="evenodd" fill-opacity="0.709804"/><path d="M386.127 1346.09C412.206 1319.49 489.434 1297.09 498.547 1303.66 507.66 1310.22 449.04 1348.83 424.745 1375.07 400.45 1401.31 356.539 1468.08 342.072 1463.25 327.606 1458.42 360.048 1372.69 386.127 1346.09Z" stroke="#FFFFFF" stroke-width="6.875" stroke-miterlimit="8" fill="#FFFFFF" fill-rule="evenodd"/><path d="M341.883 1526.54 343.021 1523.25C344.584 1519.82 346.449 1516.58 348.592 1513.58L352.768 1508.86 357.326 1516.36C359.71 1519.6 362.337 1522.58 365.16 1525.25L369.141 1528.39 363.959 1532.18 357.13 1539.9 346.825 1532.14Z" stroke="#FFFFFF" stroke-width="6.875" stroke-miterlimit="8" fill="#FFFFFF" fill-rule="evenodd"/></g></svg>