<svg width="2598" height="3898" xmlns="http://www.w3.org/2000/svg" xmlns:xlink="http://www.w3.org/1999/xlink" xml:space="preserve" overflow="hidden"><defs><clipPath id="clip0"><rect x="0" y="0" width="2598" height="3898"/></clipPath></defs><g clip-path="url(#clip0)"><path d="M1342 1357.5C1342 1245.11 1435.8 1154 1551.5 1154 1667.2 1154 1761 1245.11 1761 1357.5 1761 1469.89 1667.2 1561 1551.5 1561 1435.8 1561 1342 1469.89 1342 1357.5Z" stroke="#3B3838" stroke-width="27.5" stroke-miterlimit="8" fill="#FFFFFF" fill-rule="evenodd" fill-opacity="0.709804"/><path d="M1438.83 1247.09C1464.75 1220.49 1541.5 1198.09 1550.55 1204.66 1559.61 1211.22 1501.35 1249.83 1477.21 1276.07 1453.07 1302.31 1409.43 1369.08 1395.05 1364.25 1380.67 1359.42 1412.91 1273.69 1438.83 1247.09Z" stroke="#FFFFFF" stroke-width="6.875" stroke-miterlimit="8" fill="#FFFFFF" fill-rule="evenodd"/><path d="M1394.69 1427.7 1395.83 1424.42C1397.39 1420.98 1399.26 1417.74 1401.4 1414.75L1405.57 1410.03 1410.13 1417.53C1412.52 1420.77 1415.14 1423.74 1417.97 1426.42L1421.95 1429.56 1416.77 1433.34 1409.94 1441.06 1399.63 1433.31Z" stroke="#FFFFFF" stroke-width="6.875" stroke-miterlimit="8" fill="#FFFFFF" fill-rule="evenodd"/><path d="M1717 1938.5C1717 1834.39 1801.39 1750 1905.5 1750 2009.61 1750 2094 1834.39 2094 1938.5 2094 2042.61 2009.61 2127 1905.5 2127 1801.39 2127 1717 2042.61 1717 1938.5Z" stroke="#3B3838" stroke-width="27.5" stroke-miterlimit="8" fill="#FFFFFF" fill-rule="evenodd" fill-opacity="0.709804"/><path d="M1804.39 1836.57C1827.88 1812.12 1897.43 1791.53 1905.64 1797.56 1913.85 1803.6 1861.05 1839.09 1839.17 1863.21 1817.29 1887.33 1777.75 1948.71 1764.72 1944.27 1751.69 1939.83 1780.91 1861.02 1804.39 1836.57Z" stroke="#FFFFFF" stroke-width="6.875" stroke-miterlimit="8" fill="#FFFFFF" fill-rule="evenodd"/><path d="M1764.84 2003.31 1765.84 2000.29C1767.22 1997.13 1768.87 1994.15 1770.78 1991.41L1774.5 1987.08 1778.66 1994.04C1780.83 1997.04 1783.22 1999.81 1785.78 2002.3L1789.38 2005.22 1784.74 2008.67 1778.65 2015.75 1769.33 2008.52Z" stroke="#FFFFFF" stroke-width="6.875" stroke-miterlimit="8" fill="#FFFFFF" fill-rule="evenodd"/><path d="M1682 357.5C1682 225.78 1793.03 119 1930 119 2066.97 119 2178 225.78 2178 357.5 2178 489.22 2066.97 596 1930 596 1793.03 596 1682 489.22 1682 357.5Z" stroke="#3B3838" stroke-width="27.5" stroke-miterlimit="8" fill="#FFFFFF" fill-rule="evenodd" fill-opacity="0.709804"/><path d="M1796.71 228.402C1827.48 197.342 1918.62 171.181 1929.38 178.849 1940.13 186.517 1870.95 231.604 1842.28 262.242 1813.61 292.879 1761.79 370.849 1744.72 365.21 1727.64 359.57 1765.93 259.462 1796.71 228.402Z" stroke="#FFFFFF" stroke-width="6.875" stroke-miterlimit="8" fill="#FFFFFF" fill-rule="evenodd"/><path d="M1744.87 439.82 1746.22 435.973C1748.08 431.946 1750.29 428.147 1752.83 424.636L1757.78 419.097 1763.13 427.862C1765.94 431.648 1769.03 435.12 1772.35 438.244L1777.04 441.908 1770.91 446.35 1762.83 455.409 1750.68 446.37Z" stroke="#FFFFFF" stroke-width="6.875" stroke-miterlimit="8" fill="#FFFFFF" fill-rule="evenodd"/><path d="M664 2551C664 2473.13 729.143 2410 809.5 2410 889.857 2410 955 2473.13 955 2551 955 2628.87 889.857 2692 809.5 2692 729.143 2692 664 2628.87 664 2551Z" stroke="#3B3838" stroke-width="27.5" stroke-miterlimit="8" fill="#FFFFFF" fill-rule="evenodd" fill-opacity="0.709804"/><path d="M731.336 2474.55C749.316 2456.22 802.56 2440.77 808.843 2445.3 815.126 2449.82 774.711 2476.44 757.961 2494.53 741.211 2512.62 710.937 2558.66 700.963 2555.33 690.989 2552 713.356 2492.89 731.336 2474.55Z" stroke="#FFFFFF" stroke-width="6.875" stroke-miterlimit="8" fill="#FFFFFF" fill-rule="evenodd"/><path d="M700.611 2599.62 701.4 2597.34C702.484 2594.96 703.777 2592.71 705.264 2590.64L708.16 2587.36 711.321 2592.56C712.974 2594.81 714.796 2596.87 716.754 2598.73L719.515 2600.91 715.921 2603.53 711.185 2608.88 704.039 2603.51Z" stroke="#FFFFFF" stroke-width="6.875" stroke-miterlimit="8" fill="#FFFFFF" fill-rule="evenodd"/><path d="M1808 2695C1808 2627.62 1864.86 2573 1935 2573 2005.14 2573 2062 2627.62 2062 2695 2062 2762.38 2005.14 2817 1935 2817 1864.86 2817 1808 2762.38 1808 2695Z" stroke="#3B3838" stroke-width="27.5" stroke-miterlimit="8" fill="#FFFFFF" fill-rule="evenodd" fill-opacity="0.709804"/><path d="M1866.49 2629.49C1882.36 2613.63 1929.37 2600.27 1934.92 2604.19 1940.47 2608.1 1904.79 2631.13 1890 2646.77 1875.21 2662.42 1848.48 2702.23 1839.67 2699.35 1830.87 2696.47 1850.62 2645.35 1866.49 2629.49Z" stroke="#FFFFFF" stroke-width="6.875" stroke-miterlimit="8" fill="#FFFFFF" fill-rule="evenodd"/><path d="M1839.69 2737.4 1840.39 2735.43C1841.34 2733.37 1842.47 2731.42 1843.78 2729.62L1846.31 2726.78 1849.06 2731.27C1850.5 2733.21 1852.08 2734.99 1853.79 2736.6L1856.19 2738.47 1853.05 2740.75 1848.9 2745.4 1842.68 2740.76Z" stroke="#FFFFFF" stroke-width="6.875" stroke-miterlimit="8" fill="#FFFFFF" fill-rule="evenodd"/><path d="M442 958.5C442 804.136 566.913 679 721 679 875.087 679 1000 804.136 1000 958.5 1000 1112.86 875.087 1238 721 1238 566.913 1238 442 1112.86 442 958.5Z" stroke="#3B3838" stroke-width="27.5" stroke-miterlimit="8" fill="#FFFFFF" fill-rule="evenodd" fill-opacity="0.709804"/><path d="M570.806 807.066C605.47 770.719 708.12 740.106 720.233 749.079 732.346 758.052 654.429 810.814 622.136 846.666 589.844 882.518 531.477 973.76 512.248 967.16 493.02 960.561 536.142 843.413 570.806 807.066Z" stroke="#FFFFFF" stroke-width="6.875" stroke-miterlimit="8" fill="#FFFFFF" fill-rule="evenodd"/><path d="M512.167 1054.85 513.651 1050.37C515.7 1045.68 518.155 1041.27 520.984 1037.19L526.508 1030.78 532.673 1041.09C535.891 1045.55 539.43 1049.65 543.227 1053.35L548.576 1057.69 541.698 1062.81 532.664 1073.3 518.825 1062.58Z" stroke="#FFFFFF" stroke-width="6.875" stroke-miterlimit="8" fill="#FFFFFF" fill-rule="evenodd"/><path d="M1547 3462.5C1547 3377.17 1618.19 3308 1706 3308 1793.81 3308 1865 3377.17 1865 3462.5 1865 3547.83 1793.81 3617 1706 3617 1618.19 3617 1547 3547.83 1547 3462.5Z" stroke="#3B3838" stroke-width="27.5" stroke-miterlimit="8" fill="#FFFFFF" fill-rule="evenodd" fill-opacity="0.709804"/><path d="M1620.59 3378.53C1640.35 3358.38 1698.87 3341.4 1705.78 3346.38 1712.68 3351.35 1668.26 3380.61 1649.85 3400.49 1631.44 3420.37 1598.17 3470.97 1587.21 3467.31 1576.24 3463.65 1600.83 3398.69 1620.59 3378.53Z" stroke="#FFFFFF" stroke-width="6.875" stroke-miterlimit="8" fill="#FFFFFF" fill-rule="evenodd"/><path d="M1587.16 3515.78 1588.03 3513.29C1589.21 3510.68 1590.63 3508.22 1592.26 3505.95L1595.43 3502.36 1598.89 3508.06C1600.7 3510.52 1602.69 3512.77 1604.83 3514.81L1607.85 3517.19 1603.92 3520.06 1598.74 3525.92 1590.91 3520.04Z" stroke="#FFFFFF" stroke-width="6.875" stroke-miterlimit="8" fill="#FFFFFF" fill-rule="evenodd"/><path d="M828 2774.5C828 2711.26 880.83 2660 946 2660 1011.17 2660 1064 2711.26 1064 2774.5 1064 2837.74 1011.17 2889 946 2889 880.83 2889 828 2837.74 828 2774.5Z" stroke="#3B3838" stroke-width="27.5" stroke-miterlimit="8" fill="#FFFFFF" fill-rule="evenodd" fill-opacity="0.709804"/><path d="M883.124 2712.87C897.702 2698 940.873 2685.47 945.967 2689.15 951.061 2692.82 918.292 2714.4 904.711 2729.07 891.131 2743.73 866.584 2781.06 858.497 2778.36 850.41 2775.66 868.546 2727.74 883.124 2712.87Z" stroke="#FFFFFF" stroke-width="6.875" stroke-miterlimit="8" fill="#FFFFFF" fill-rule="evenodd"/><path d="M857.78 2813.82 858.42 2811.97C859.3 2810.04 860.349 2808.22 861.556 2806.53L863.906 2803.88 866.472 2808.1C867.814 2809.92 869.293 2811.59 870.882 2813.1L873.122 2814.87 870.205 2817 866.362 2821.34 860.561 2816.98Z" stroke="#FFFFFF" stroke-width="6.875" stroke-miterlimit="8" fill="#FFFFFF" fill-rule="evenodd"/><path d="M293 1715C293 1602.33 386.796 1511 502.5 1511 618.204 1511 712 1602.33 712 1715 712 1827.67 618.204 1919 502.5 1919 386.796 1919 293 1827.67 293 1715Z" stroke="#3B3838" stroke-width="27.5" stroke-miterlimit="8" fill="#FFFFFF" fill-rule="evenodd" fill-opacity="0.709804"/><path d="M389.127 1604.82C415.206 1578.39 492.434 1556.12 501.547 1562.65 510.66 1569.17 452.04 1607.55 427.745 1633.62 403.45 1659.7 359.539 1726.05 345.072 1721.25 330.606 1716.45 363.048 1631.25 389.127 1604.82Z" stroke="#FFFFFF" stroke-width="6.875" stroke-miterlimit="8" fill="#FFFFFF" fill-rule="evenodd"/><path d="M345.466 1785.42 346.604 1782.14C348.167 1778.7 350.031 1775.46 352.175 1772.47L356.35 1767.75 360.908 1775.25C363.293 1778.49 365.92 1781.47 368.743 1784.14L372.724 1787.28 367.542 1791.06 360.712 1798.78 350.408 1791.03Z" stroke="#FFFFFF" stroke-width="6.875" stroke-miterlimit="8" fill="#FFFFFF" fill-rule="evenodd"/><path d="M1256 1589.5C1256 1516.87 1316.89 1458 1392 1458 1467.11 1458 1528 1516.87 1528 1589.5 1528 1662.13 1467.11 1721 1392 1721 1316.89 1721 1256 1662.13 1256 1589.5Z" stroke="#3B3838" stroke-width="27.5" stroke-miterlimit="8" fill="#FFFFFF" fill-rule="evenodd" fill-opacity="0.709804"/><path d="M1319.27 1518.66C1336.11 1501.48 1386 1487 1391.88 1491.25 1397.77 1495.49 1359.9 1520.43 1344.21 1537.38 1328.52 1554.33 1300.15 1597.46 1290.81 1594.34 1281.46 1591.22 1302.42 1535.84 1319.27 1518.66Z" stroke="#FFFFFF" stroke-width="6.875" stroke-miterlimit="8" fill="#FFFFFF" fill-rule="evenodd"/><path d="M1290.74 1635.05 1291.47 1632.92C1292.49 1630.69 1293.69 1628.59 1295.08 1626.65L1297.79 1623.6 1300.74 1628.45C1302.29 1630.55 1303.99 1632.48 1305.82 1634.21L1308.39 1636.25 1305.04 1638.7 1300.61 1643.7 1293.94 1638.68Z" stroke="#FFFFFF" stroke-width="6.875" stroke-miterlimit="8" fill="#FFFFFF" fill-rule="evenodd"/></g></svg>