<svg width="1099" height="140" xmlns="http://www.w3.org/2000/svg" xmlns:xlink="http://www.w3.org/1999/xlink" xml:space="preserve" overflow="hidden"><defs><clipPath id="clip0"><rect x="2397" y="1505" width="1099" height="140"/></clipPath></defs><g clip-path="url(#clip0)" transform="translate(-2397 -1505)"><path d="M2545.18 1552.39 2529.74 1592.92 2557.94 1592.92ZM2543.76 1543.44 2549.76 1543.44 2566.86 1596.81 2566.86 1599.41 2522.56 1599.41 2522.56 1596.81Z" fill="#585858" fill-rule="evenodd"/><text fill="#000000" fill-opacity="0" font-family="Arial,Arial_MSFontService,sans-serif" font-size="55.9683" x="2522.56" y="1592.41">Δ</text><path d="M2582.7 1544.09 2619.98 1544.09 2617.19 1556.53 2613.29 1556.53C2613.19 1554.18 2612.98 1552.41 2612.69 1551.22 2612.39 1550.03 2612.03 1549.21 2611.61 1548.77 2611.19 1548.32 2610.69 1548.02 2610.11 1547.88 2609.53 1547.73 2608.7 1547.65 2607.62 1547.65L2594.41 1547.65 2589.79 1568.89 2597.53 1568.89C2599.45 1568.89 2600.91 1568.44 2601.93 1567.53 2602.94 1566.63 2603.96 1565.13 2604.99 1563.05L2608.67 1563.05 2605.03 1578.62 2601.58 1578.62C2601.58 1576.45 2601.45 1574.99 2601.18 1574.22 2600.91 1573.45 2600.51 1572.96 2599.98 1572.76 2599.45 1572.56 2598.5 1572.45 2597.12 1572.45L2589.02 1572.45 2583.83 1595.84 2595.83 1595.84C2597.42 1595.84 2598.68 1595.68 2599.62 1595.35 2600.55 1595.03 2601.43 1594.5 2602.25 1593.77 2603.07 1593.04 2603.9 1592.02 2604.72 1590.71 2605.55 1589.4 2606.53 1587.63 2607.66 1585.38L2611.59 1585.38 2608.03 1599.41 2572.08 1599.41 2572.52 1597.42C2573.55 1597.26 2574.32 1596.99 2574.83 1596.63 2575.35 1596.26 2575.78 1595.76 2576.13 1595.11 2576.48 1594.46 2576.81 1593.67 2577.1 1592.74 2577.4 1591.81 2577.85 1590 2578.44 1587.33L2585.33 1556.12C2585.93 1553.42 2586.22 1551.25 2586.22 1549.6 2586.22 1548.33 2585.9 1547.44 2585.27 1546.94 2584.63 1546.44 2583.63 1546.15 2582.25 1546.07Z" fill="#585858" fill-rule="evenodd"/><text fill="#000000" fill-opacity="0" font-family="Arial,Arial_MSFontService,sans-serif" font-size="55.3198" x="2572.08" y="1592.49">𝐸</text><path d="M2670.66 1592.96C2669.59 1592.96 2668.62 1593.17 2667.76 1593.6 2666.89 1594.03 2666.14 1594.65 2665.49 1595.46 2664.85 1596.27 2664.32 1597.27 2663.91 1598.45 2663.51 1599.64 2663.24 1600.97 2663.12 1602.46L2676.94 1602.46C2676.75 1599.22 2676.16 1596.83 2675.17 1595.28 2674.19 1593.73 2672.69 1592.96 2670.66 1592.96ZM2671.02 1590.01C2673.12 1590.01 2674.94 1590.33 2676.47 1590.98 2678 1591.62 2679.24 1592.51 2680.19 1593.64 2680.67 1594.2 2681.09 1594.83 2681.47 1595.55 2681.85 1596.26 2682.17 1597.09 2682.44 1598.04 2682.71 1598.98 2682.92 1600.06 2683.07 1601.27 2683.21 1602.48 2683.31 1603.86 2683.35 1605.41L2662.95 1605.41 2662.95 1605.68C2662.95 1609.43 2663.65 1612.24 2665.05 1614.11 2666.45 1615.97 2668.66 1616.91 2671.7 1616.91 2672.52 1616.91 2673.3 1616.82 2674.04 1616.65 2674.78 1616.48 2675.52 1616.22 2676.26 1615.86 2676.99 1615.51 2677.73 1615.04 2678.48 1614.48 2679.22 1613.91 2680 1613.24 2680.82 1612.47L2682.9 1614.94C2681.79 1616.03 2680.73 1616.96 2679.73 1617.72 2678.73 1618.49 2677.73 1619.11 2676.74 1619.59 2675.74 1620.06 2674.73 1620.41 2673.7 1620.63 2672.67 1620.85 2671.57 1620.96 2670.42 1620.96 2665.89 1620.96 2662.49 1619.66 2660.21 1617.07 2657.92 1614.48 2656.78 1610.66 2656.78 1605.62 2656.78 1603.29 2657.12 1601.17 2657.79 1599.26 2658.47 1597.34 2659.43 1595.7 2660.68 1594.33 2661.93 1592.96 2663.43 1591.9 2665.18 1591.14 2666.93 1590.39 2668.87 1590.01 2671.02 1590.01ZM2620.66 1579.76 2650.24 1579.76 2650.24 1581.64C2646.58 1587.62 2642.94 1593.53 2639.31 1599.39 2635.67 1605.25 2632.03 1611.15 2628.38 1617.08L2639.66 1617.08C2640.84 1617.08 2641.79 1617.01 2642.52 1616.88 2643.26 1616.74 2643.87 1616.39 2644.37 1615.85 2644.87 1615.3 2645.31 1614.48 2645.7 1613.39 2646.08 1612.3 2646.52 1610.8 2647.02 1608.89L2650.42 1608.89 2650.42 1620.42 2620.24 1620.42 2620.24 1618.51C2623.88 1612.6 2627.51 1606.7 2631.15 1600.82 2634.78 1594.94 2638.41 1589.05 2642.05 1583.13L2630.73 1583.13C2629.89 1583.13 2629.18 1583.21 2628.58 1583.37 2627.99 1583.53 2627.44 1583.86 2626.95 1584.38 2626.45 1584.9 2625.98 1585.65 2625.53 1586.64 2625.08 1587.64 2624.61 1588.97 2624.12 1590.64L2620.66 1590.64ZM2715.36 1577.08 2717.54 1577.08 2717.54 1612.83C2717.54 1614.02 2717.56 1614.93 2717.61 1615.57 2717.66 1616.2 2717.8 1616.69 2718.04 1617.04 2718.28 1617.39 2718.64 1617.65 2719.12 1617.83 2719.59 1618.01 2720.26 1618.24 2721.11 1618.51L2721.11 1620.42 2707.98 1620.42 2707.98 1618.51C2708.91 1618.24 2709.63 1618 2710.14 1617.8 2710.64 1617.6 2711.01 1617.32 2711.24 1616.97 2711.47 1616.61 2711.59 1616.12 2711.62 1615.49 2711.65 1614.87 2711.67 1613.98 2711.67 1612.83L2711.67 1587.54C2711.67 1586.07 2711.65 1584.95 2711.61 1584.17 2711.57 1583.4 2711.51 1582.77 2711.43 1582.3 2711.35 1581.92 2711.26 1581.59 2711.15 1581.3 2711.04 1581.01 2710.85 1580.75 2710.58 1580.52 2710.31 1580.29 2709.93 1580.1 2709.44 1579.93 2708.94 1579.76 2708.27 1579.6 2707.44 1579.47L2707.44 1577.5ZM2696.36 1577.08 2698.54 1577.08 2698.54 1612.83C2698.54 1614.02 2698.56 1614.93 2698.61 1615.57 2698.66 1616.2 2698.8 1616.69 2699.04 1617.04 2699.28 1617.39 2699.64 1617.65 2700.12 1617.83 2700.59 1618.01 2701.26 1618.24 2702.11 1618.51L2702.11 1620.42 2688.98 1620.42 2688.98 1618.51C2689.91 1618.24 2690.63 1618 2691.14 1617.8 2691.64 1617.6 2692.01 1617.32 2692.24 1616.97 2692.47 1616.61 2692.59 1616.12 2692.62 1615.49 2692.65 1614.87 2692.67 1613.98 2692.67 1612.83L2692.67 1587.54C2692.67 1586.07 2692.65 1584.95 2692.61 1584.17 2692.57 1583.4 2692.51 1582.77 2692.43 1582.3 2692.35 1581.92 2692.26 1581.59 2692.15 1581.3 2692.04 1581.01 2691.85 1580.75 2691.58 1580.52 2691.31 1580.29 2690.93 1580.1 2690.44 1579.93 2689.94 1579.76 2689.27 1579.6 2688.44 1579.47L2688.44 1577.5Z" fill="#585858" fill-rule="evenodd"/><text fill="#000000" fill-opacity="0" font-family="Arial,Arial_MSFontService,sans-serif" font-size="43.8735" x="2620.24" y="1615.47">Zell</text><path d="M2645.32 1537.57C2644.21 1537.57 2643.17 1537.82 2642.19 1538.31 2641.22 1538.81 2640.33 1539.49 2639.51 1540.37 2638.7 1541.24 2637.97 1542.27 2637.32 1543.47 2636.68 1544.66 2636.13 1545.94 2635.69 1547.31 2635.24 1548.68 2634.9 1550.11 2634.66 1551.6 2634.42 1553.09 2634.3 1554.58 2634.3 1556.07 2634.3 1558.35 2634.77 1560.03 2635.72 1561.11 2636.66 1562.2 2638.09 1562.74 2640.02 1562.74 2641.09 1562.74 2642.11 1562.47 2643.06 1561.95 2644.01 1561.42 2644.89 1560.71 2645.68 1559.82 2646.47 1558.92 2647.18 1557.88 2647.81 1556.68 2648.43 1555.47 2648.97 1554.19 2649.4 1552.82 2649.84 1551.45 2650.17 1550.03 2650.4 1548.57 2650.63 1547.11 2650.74 1545.69 2650.74 1544.3 2650.74 1542.1 2650.31 1540.42 2649.43 1539.28 2648.56 1538.14 2647.19 1537.57 2645.32 1537.57ZM2645.89 1534.62C2647.68 1534.62 2649.24 1534.91 2650.58 1535.48 2651.92 1536.06 2653.04 1536.84 2653.93 1537.82 2654.82 1538.8 2655.49 1539.96 2655.94 1541.29 2656.39 1542.62 2656.61 1544.04 2656.61 1545.55 2656.61 1548.57 2656.16 1551.3 2655.27 1553.76 2654.38 1556.21 2653.14 1558.31 2651.56 1560.07 2649.98 1561.83 2648.13 1563.18 2645.99 1564.14 2643.86 1565.09 2641.54 1565.57 2639.04 1565.57 2637.39 1565.57 2635.91 1565.32 2634.6 1564.82 2633.29 1564.33 2632.18 1563.61 2631.26 1562.68 2630.35 1561.74 2629.65 1560.62 2629.16 1559.3 2628.68 1557.98 2628.43 1556.48 2628.43 1554.81 2628.43 1551.99 2628.88 1549.36 2629.76 1546.91 2630.64 1544.45 2631.86 1542.32 2633.42 1540.5 2634.98 1538.69 2636.82 1537.25 2638.95 1536.2 2641.07 1535.15 2643.39 1534.62 2645.89 1534.62Z" fill="#585858" fill-rule="evenodd"/><text fill="#000000" fill-opacity="0" font-family="Arial,Arial_MSFontService,sans-serif" font-size="30.9468" x="2628.43" y="1561.7">𝑜</text><path d="M2756.41 1581.41 2806.34 1581.41 2806.34 1586.8 2756.41 1586.8ZM2756.41 1564.59 2806.34 1564.59 2806.34 1569.98 2756.41 1569.98Z" fill="#585858" fill-rule="evenodd"/><text fill="#000000" fill-opacity="0" font-family="Arial,Arial_MSFontService,sans-serif" font-size="22.209" x="2756.41" y="1584.03">=</text><path d="M2848.09 1544.09 2885.38 1544.09 2882.58 1556.53 2878.69 1556.53C2878.58 1554.18 2878.38 1552.41 2878.08 1551.22 2877.79 1550.03 2877.43 1549.21 2877.01 1548.77 2876.59 1548.32 2876.09 1548.02 2875.51 1547.88 2874.93 1547.73 2874.1 1547.65 2873.02 1547.65L2859.81 1547.65 2855.19 1568.89 2862.93 1568.89C2864.85 1568.89 2866.31 1568.44 2867.32 1567.53 2868.34 1566.63 2869.36 1565.13 2870.38 1563.05L2874.07 1563.05 2870.42 1578.62 2866.98 1578.62C2866.98 1576.45 2866.84 1574.99 2866.57 1574.22 2866.3 1573.45 2865.91 1572.96 2865.38 1572.76 2864.85 1572.56 2863.9 1572.45 2862.52 1572.45L2854.42 1572.45 2849.23 1595.84 2861.23 1595.84C2862.82 1595.84 2864.08 1595.68 2865.01 1595.35 2865.95 1595.03 2866.82 1594.5 2867.65 1593.77 2868.47 1593.04 2869.3 1592.02 2870.12 1590.71 2870.94 1589.4 2871.92 1587.63 2873.06 1585.38L2876.99 1585.38 2873.42 1599.41 2837.48 1599.41 2837.92 1597.42C2838.95 1597.26 2839.72 1596.99 2840.23 1596.63 2840.75 1596.26 2841.18 1595.76 2841.53 1595.11 2841.88 1594.46 2842.2 1593.67 2842.5 1592.74 2842.8 1591.81 2843.24 1590 2843.84 1587.33L2850.73 1556.12C2851.32 1553.42 2851.62 1551.25 2851.62 1549.6 2851.62 1548.33 2851.3 1547.44 2850.67 1546.94 2850.03 1546.44 2849.03 1546.15 2847.65 1546.07Z" fill="#585858" fill-rule="evenodd"/><text fill="#000000" fill-opacity="0" font-family="Arial,Arial_MSFontService,sans-serif" font-size="55.3198" x="2837.48" y="1592.49">𝐸</text><path d="M2974.89 1592.96C2972.17 1592.96 2970.1 1594.01 2968.67 1596.1 2967.24 1598.2 2966.52 1601.18 2966.52 1605.05 2966.52 1609.04 2967.12 1612.02 2968.31 1613.97 2969.5 1615.93 2971.34 1616.91 2973.82 1616.91 2975.01 1616.91 2976.1 1616.69 2977.08 1616.25 2978.06 1615.81 2978.9 1615.25 2979.6 1614.57 2980.29 1613.88 2980.83 1613.11 2981.22 1612.26 2981.61 1611.41 2981.8 1610.55 2981.8 1609.7L2981.8 1601.66C2981.8 1599.91 2981.66 1598.47 2981.38 1597.35 2981.11 1596.23 2980.68 1595.34 2980.12 1594.69 2979.55 1594.03 2978.83 1593.58 2977.96 1593.33 2977.09 1593.08 2976.06 1592.96 2974.89 1592.96ZM2941.06 1592.96C2939.99 1592.96 2939.02 1593.17 2938.15 1593.6 2937.29 1594.03 2936.53 1594.65 2935.89 1595.46 2935.24 1596.27 2934.72 1597.27 2934.31 1598.45 2933.9 1599.64 2933.64 1600.97 2933.52 1602.46L2947.34 1602.46C2947.14 1599.22 2946.55 1596.83 2945.57 1595.28 2944.59 1593.73 2943.08 1592.96 2941.06 1592.96ZM2941.41 1590.01C2943.52 1590.01 2945.34 1590.33 2946.87 1590.98 2948.39 1591.62 2949.64 1592.51 2950.59 1593.64 2951.07 1594.2 2951.49 1594.83 2951.87 1595.55 2952.25 1596.26 2952.57 1597.09 2952.84 1598.04 2953.11 1598.98 2953.31 1600.06 2953.46 1601.27 2953.61 1602.48 2953.71 1603.86 2953.75 1605.41L2933.34 1605.41 2933.34 1605.68C2933.34 1609.43 2934.04 1612.24 2935.44 1614.11 2936.84 1615.97 2939.06 1616.91 2942.1 1616.91 2942.91 1616.91 2943.69 1616.82 2944.44 1616.65 2945.18 1616.48 2945.92 1616.22 2946.66 1615.86 2947.39 1615.51 2948.13 1615.04 2948.88 1614.48 2949.62 1613.91 2950.4 1613.24 2951.21 1612.47L2953.3 1614.94C2952.19 1616.03 2951.13 1616.96 2950.13 1617.72 2949.12 1618.49 2948.13 1619.11 2947.13 1619.59 2946.14 1620.06 2945.13 1620.41 2944.1 1620.63 2943.06 1620.85 2941.97 1620.96 2940.82 1620.96 2936.29 1620.96 2932.89 1619.66 2930.6 1617.07 2928.32 1614.48 2927.18 1610.66 2927.18 1605.62 2927.18 1603.29 2927.52 1601.17 2928.19 1599.26 2928.87 1597.34 2929.83 1595.7 2931.08 1594.33 2932.33 1592.96 2933.83 1591.9 2935.58 1591.14 2937.32 1590.39 2939.27 1590.01 2941.41 1590.01ZM2901.34 1583.07C2900.4 1583.07 2899.54 1583.08 2898.75 1583.1 2897.95 1583.12 2897.24 1583.15 2896.6 1583.19L2896.6 1599.87 2900.18 1599.87C2901.98 1599.87 2903.57 1599.71 2904.93 1599.41 2906.29 1599.1 2907.42 1598.6 2908.34 1597.92 2909.25 1597.23 2909.94 1596.34 2910.39 1595.24 2910.85 1594.13 2911.08 1592.78 2911.08 1591.17 2911.08 1588.47 2910.29 1586.45 2908.72 1585.1 2907.16 1583.74 2904.69 1583.07 2901.34 1583.07ZM2886.42 1579.76 2902.65 1579.76C2907.75 1579.76 2911.56 1580.64 2914.09 1582.4 2916.61 1584.16 2917.87 1586.83 2917.87 1590.43 2917.87 1593.15 2917.08 1595.44 2915.52 1597.29 2913.95 1599.15 2911.62 1600.56 2908.55 1601.54L2908.55 1601.95C2909.68 1602.47 2910.74 1603.18 2911.72 1604.1 2912.7 1605.01 2913.7 1606.3 2914.71 1607.97 2915.53 1609.4 2916.23 1610.63 2916.83 1611.66 2917.42 1612.7 2917.95 1613.58 2918.42 1614.33 2918.89 1615.07 2919.31 1615.69 2919.7 1616.18 2920.09 1616.66 2920.49 1617.06 2920.89 1617.37 2921.3 1617.68 2921.74 1617.91 2922.2 1618.08 2922.67 1618.25 2923.21 1618.39 2923.83 1618.51L2923.83 1620.42 2914.41 1620.42C2913.64 1619.35 2912.89 1618.23 2912.18 1617.05 2911.47 1615.88 2910.73 1614.6 2909.98 1613.21 2909.06 1611.56 2908.3 1610.17 2907.68 1609.03 2907.07 1607.89 2906.53 1606.94 2906.07 1606.2 2905.62 1605.45 2905.21 1604.87 2904.84 1604.46 2904.47 1604.04 2904.07 1603.73 2903.65 1603.53 2903.22 1603.33 2902.73 1603.21 2902.17 1603.17 2901.62 1603.14 2900.93 1603.12 2900.12 1603.12L2896.6 1603.12 2896.6 1612.77C2896.6 1614.04 2896.64 1615 2896.71 1615.65 2896.78 1616.31 2896.94 1616.8 2897.2 1617.13 2897.46 1617.46 2897.84 1617.69 2898.34 1617.83 2898.85 1617.97 2899.54 1618.17 2900.41 1618.42L2900.41 1620.42 2886.42 1620.42 2886.42 1618.42C2887.37 1618.15 2888.1 1617.91 2888.62 1617.72 2889.14 1617.54 2889.51 1617.27 2889.75 1616.94 2889.99 1616.6 2890.12 1616.12 2890.15 1615.49 2890.18 1614.87 2890.2 1613.98 2890.2 1612.83L2890.2 1587.36C2890.2 1586.15 2890.17 1585.23 2890.12 1584.6 2890.07 1583.98 2889.93 1583.5 2889.69 1583.17 2889.45 1582.85 2889.08 1582.6 2888.58 1582.43 2888.07 1582.26 2887.35 1582.03 2886.42 1581.73ZM2985.64 1577.08 2987.64 1577.08 2987.64 1612.23C2987.64 1613.46 2987.64 1614.43 2987.65 1615.13 2987.66 1615.84 2987.78 1616.39 2988.01 1616.8 2988.24 1617.21 2988.63 1617.51 2989.19 1617.71 2989.74 1617.91 2990.58 1618.13 2991.69 1618.37L2991.69 1620.42C2990.38 1620.48 2989.08 1620.53 2987.8 1620.57 2986.52 1620.61 2985.25 1620.66 2983.98 1620.72L2981.8 1620.72C2981.88 1619.88 2981.94 1619.06 2981.98 1618.25 2982.02 1617.43 2982.07 1616.61 2982.13 1615.77 2982.07 1615.73 2982.01 1615.71 2981.94 1615.71 2981.87 1615.71 2981.8 1615.69 2981.74 1615.65 2980.67 1616.75 2979.71 1617.63 2978.87 1618.29 2978.02 1618.96 2977.22 1619.48 2976.46 1619.85 2975.69 1620.23 2974.91 1620.49 2974.12 1620.64 2973.32 1620.79 2972.44 1620.9 2971.47 1620.96 2969.68 1620.96 2968.09 1620.62 2966.69 1619.96 2965.29 1619.29 2964.1 1618.32 2963.14 1617.02 2962.18 1615.73 2961.44 1614.14 2960.94 1612.24 2960.43 1610.35 2960.18 1608.18 2960.18 1605.74 2960.18 1603.17 2960.54 1600.92 2961.28 1598.96 2962.01 1597 2963.03 1595.36 2964.32 1594.03 2965.61 1592.7 2967.13 1591.7 2968.89 1591.02 2970.65 1590.35 2972.55 1590.01 2974.59 1590.01 2975.33 1590.01 2976.01 1590.03 2976.63 1590.08 2977.26 1590.13 2977.85 1590.22 2978.42 1590.34 2978.99 1590.46 2979.55 1590.61 2980.1 1590.78 2980.66 1590.96 2981.23 1591.17 2981.8 1591.41L2981.8 1587.54C2981.8 1586.29 2981.79 1585.28 2981.77 1584.53 2981.75 1583.77 2981.72 1583.17 2981.68 1582.71 2981.6 1582.28 2981.52 1581.88 2981.43 1581.54 2981.34 1581.19 2981.16 1580.88 2980.89 1580.61 2980.62 1580.34 2980.24 1580.12 2979.73 1579.93 2979.23 1579.74 2978.53 1579.58 2977.63 1579.47L2977.63 1577.5Z" fill="#585858" fill-rule="evenodd"/><text fill="#000000" fill-opacity="0" font-family="Arial,Arial_MSFontService,sans-serif" font-size="43.8735" x="2886.42" y="1615.47">Red</text><path d="M2998.59 1613.51 3003.8 1613.51C3004.08 1614.9 3004.22 1616.27 3004.22 1617.62 3004.22 1619.01 3003.98 1620.28 3003.5 1621.43 3003.03 1622.58 3002.27 1623.73 3001.22 1624.87 3000.18 1626.01 2998.75 1627.27 2996.92 1628.64L2995.31 1626.82C2996.32 1625.87 2997.06 1625.01 2997.52 1624.25 2997.97 1623.48 2998.3 1622.61 2998.5 1621.64 2998.7 1620.67 2998.8 1619.45 2998.8 1617.98 2998.8 1616.47 2998.73 1614.98 2998.59 1613.51Z" fill="#585858" fill-rule="evenodd"/><text fill="#000000" fill-opacity="0" font-family="Arial,Arial_MSFontService,sans-serif" font-size="15.1309" x="2995.31" y="1626.75">,</text><path d="M3026.98 1585.04 3031.8 1585.04 3031.8 1600.7 3046.55 1600.7 3046.55 1605.26 3031.8 1605.26 3031.8 1620.93 3026.98 1620.93 3026.98 1605.26 3012.24 1605.26 3012.24 1600.7 3026.98 1600.7Z" fill="#585858" fill-rule="evenodd"/><text fill="#000000" fill-opacity="0" font-family="Arial,Arial_MSFontService,sans-serif" font-size="35.8911" x="3012.24" y="1616.44">+</text><path d="M2910.72 1537.57C2909.61 1537.57 2908.57 1537.82 2907.59 1538.31 2906.62 1538.81 2905.73 1539.49 2904.91 1540.37 2904.1 1541.24 2903.37 1542.27 2902.72 1543.47 2902.08 1544.66 2901.53 1545.94 2901.08 1547.31 2900.64 1548.68 2900.3 1550.11 2900.06 1551.6 2899.82 1553.09 2899.7 1554.58 2899.7 1556.07 2899.7 1558.35 2900.17 1560.03 2901.11 1561.11 2902.06 1562.2 2903.49 1562.74 2905.42 1562.74 2906.49 1562.74 2907.5 1562.47 2908.46 1561.95 2909.41 1561.42 2910.28 1560.71 2911.08 1559.82 2911.87 1558.92 2912.58 1557.88 2913.21 1556.68 2913.83 1555.47 2914.36 1554.19 2914.8 1552.82 2915.24 1551.45 2915.57 1550.03 2915.8 1548.57 2916.03 1547.11 2916.14 1545.69 2916.14 1544.3 2916.14 1542.1 2915.7 1540.42 2914.83 1539.28 2913.96 1538.14 2912.59 1537.57 2910.72 1537.57ZM2911.29 1534.62C2913.07 1534.62 2914.64 1534.91 2915.98 1535.48 2917.32 1536.06 2918.43 1536.84 2919.33 1537.82 2920.22 1538.8 2920.89 1539.96 2921.34 1541.29 2921.79 1542.62 2922.01 1544.04 2922.01 1545.55 2922.01 1548.57 2921.56 1551.3 2920.67 1553.76 2919.77 1556.21 2918.54 1558.31 2916.96 1560.07 2915.38 1561.83 2913.52 1563.18 2911.39 1564.14 2909.26 1565.09 2906.94 1565.57 2904.44 1565.57 2902.79 1565.57 2901.31 1565.32 2900 1564.82 2898.69 1564.33 2897.57 1563.61 2896.66 1562.68 2895.75 1561.74 2895.05 1560.62 2894.56 1559.3 2894.07 1557.98 2893.83 1556.48 2893.83 1554.81 2893.83 1551.99 2894.27 1549.36 2895.16 1546.91 2896.04 1544.45 2897.26 1542.32 2898.82 1540.5 2900.38 1538.69 2902.22 1537.25 2904.35 1536.2 2906.47 1535.15 2908.78 1534.62 2911.29 1534.62Z" fill="#585858" fill-rule="evenodd"/><text fill="#000000" fill-opacity="0" font-family="Arial,Arial_MSFontService,sans-serif" font-size="30.9468" x="2893.83" y="1561.7">𝑜</text><path d="M3078.53 1572.98 3128.46 1572.98 3128.46 1578.37 3078.53 1578.37Z" fill="#585858" fill-rule="evenodd"/><text fill="#000000" fill-opacity="0" font-family="Arial,Arial_MSFontService,sans-serif" font-size="5.39014" x="3078.53" y="1577.7">−</text><path d="M3165.63 1544.09 3202.91 1544.09 3200.12 1556.53 3196.23 1556.53C3196.12 1554.18 3195.91 1552.41 3195.62 1551.22 3195.32 1550.03 3194.96 1549.21 3194.54 1548.77 3194.12 1548.32 3193.62 1548.02 3193.04 1547.88 3192.46 1547.73 3191.63 1547.65 3190.55 1547.65L3177.34 1547.65 3172.72 1568.89 3180.46 1568.89C3182.38 1568.89 3183.84 1568.44 3184.86 1567.53 3185.87 1566.63 3186.89 1565.13 3187.92 1563.05L3191.61 1563.05 3187.96 1578.62 3184.51 1578.62C3184.51 1576.45 3184.38 1574.99 3184.11 1574.22 3183.84 1573.45 3183.44 1572.96 3182.91 1572.76 3182.39 1572.56 3181.43 1572.45 3180.06 1572.45L3171.95 1572.45 3166.76 1595.84 3178.76 1595.84C3180.35 1595.84 3181.62 1595.68 3182.55 1595.35 3183.48 1595.03 3184.36 1594.5 3185.18 1593.77 3186.01 1593.04 3186.83 1592.02 3187.65 1590.71 3188.48 1589.4 3189.46 1587.63 3190.59 1585.38L3194.52 1585.38 3190.96 1599.41 3155.01 1599.41 3155.46 1597.42C3156.48 1597.26 3157.25 1596.99 3157.77 1596.63 3158.28 1596.26 3158.71 1595.76 3159.06 1595.11 3159.41 1594.46 3159.74 1593.67 3160.03 1592.74 3160.33 1591.81 3160.78 1590 3161.37 1587.33L3168.26 1556.12C3168.86 1553.42 3169.15 1551.25 3169.15 1549.6 3169.15 1548.33 3168.84 1547.44 3168.2 1546.94 3167.57 1546.44 3166.56 1546.15 3165.18 1546.07Z" fill="#585858" fill-rule="evenodd"/><text fill="#000000" fill-opacity="0" font-family="Arial,Arial_MSFontService,sans-serif" font-size="55.3198" x="3155.01" y="1592.49">𝐸</text><path d="M3292.42 1592.96C3289.7 1592.96 3287.63 1594.01 3286.2 1596.1 3284.77 1598.2 3284.06 1601.18 3284.06 1605.05 3284.06 1609.04 3284.65 1612.02 3285.84 1613.97 3287.03 1615.93 3288.87 1616.91 3291.35 1616.91 3292.54 1616.91 3293.63 1616.69 3294.61 1616.25 3295.6 1615.81 3296.44 1615.25 3297.13 1614.57 3297.83 1613.88 3298.37 1613.11 3298.75 1612.26 3299.14 1611.41 3299.33 1610.55 3299.33 1609.7L3299.33 1601.66C3299.33 1599.91 3299.2 1598.47 3298.92 1597.35 3298.64 1596.23 3298.22 1595.34 3297.65 1594.69 3297.09 1594.03 3296.37 1593.58 3295.49 1593.33 3294.62 1593.08 3293.6 1592.96 3292.42 1592.96ZM3258.59 1592.96C3257.52 1592.96 3256.55 1593.17 3255.69 1593.6 3254.82 1594.03 3254.07 1594.65 3253.42 1595.46 3252.78 1596.27 3252.25 1597.27 3251.84 1598.45 3251.44 1599.64 3251.17 1600.97 3251.06 1602.46L3264.88 1602.46C3264.68 1599.22 3264.09 1596.83 3263.1 1595.28 3262.12 1593.73 3260.62 1592.96 3258.59 1592.96ZM3258.95 1590.01C3261.05 1590.01 3262.87 1590.33 3264.4 1590.98 3265.93 1591.62 3267.17 1592.51 3268.12 1593.64 3268.6 1594.2 3269.03 1594.83 3269.4 1595.55 3269.78 1596.26 3270.1 1597.09 3270.37 1598.04 3270.64 1598.98 3270.85 1600.06 3271 1601.27 3271.15 1602.48 3271.24 1603.86 3271.28 1605.41L3250.88 1605.41 3250.88 1605.68C3250.88 1609.43 3251.58 1612.24 3252.98 1614.11 3254.38 1615.97 3256.6 1616.91 3259.63 1616.91 3260.45 1616.91 3261.23 1616.82 3261.97 1616.65 3262.72 1616.48 3263.46 1616.22 3264.19 1615.86 3264.93 1615.51 3265.66 1615.04 3266.41 1614.48 3267.15 1613.91 3267.93 1613.24 3268.75 1612.47L3270.83 1614.94C3269.72 1616.03 3268.66 1616.96 3267.66 1617.72 3266.66 1618.49 3265.66 1619.11 3264.67 1619.59 3263.67 1620.06 3262.66 1620.41 3261.63 1620.63 3260.6 1620.85 3259.5 1620.96 3258.35 1620.96 3253.83 1620.96 3250.42 1619.66 3248.14 1617.07 3245.85 1614.48 3244.71 1610.66 3244.71 1605.62 3244.71 1603.29 3245.05 1601.17 3245.72 1599.26 3246.4 1597.34 3247.36 1595.7 3248.61 1594.33 3249.86 1592.96 3251.36 1591.9 3253.11 1591.14 3254.86 1590.39 3256.8 1590.01 3258.95 1590.01ZM3218.87 1583.07C3217.94 1583.07 3217.07 1583.08 3216.28 1583.1 3215.49 1583.12 3214.77 1583.15 3214.14 1583.19L3214.14 1599.87 3217.71 1599.87C3219.52 1599.87 3221.1 1599.71 3222.46 1599.41 3223.82 1599.1 3224.96 1598.6 3225.87 1597.92 3226.78 1597.23 3227.47 1596.34 3227.93 1595.24 3228.38 1594.13 3228.61 1592.78 3228.61 1591.17 3228.61 1588.47 3227.83 1586.45 3226.26 1585.1 3224.69 1583.74 3222.23 1583.07 3218.87 1583.07ZM3203.95 1579.76 3220.18 1579.76C3225.29 1579.76 3229.1 1580.64 3231.62 1582.4 3234.14 1584.16 3235.4 1586.83 3235.4 1590.43 3235.4 1593.15 3234.62 1595.44 3233.05 1597.29 3231.48 1599.15 3229.16 1600.56 3226.08 1601.54L3226.08 1601.95C3227.21 1602.47 3228.27 1603.18 3229.25 1604.1 3230.23 1605.01 3231.23 1606.3 3232.25 1607.97 3233.06 1609.4 3233.76 1610.63 3234.36 1611.66 3234.96 1612.7 3235.49 1613.58 3235.95 1614.33 3236.42 1615.07 3236.85 1615.69 3237.23 1616.18 3237.62 1616.66 3238.02 1617.06 3238.43 1617.37 3238.83 1617.68 3239.27 1617.91 3239.74 1618.08 3240.2 1618.25 3240.74 1618.39 3241.36 1618.51L3241.36 1620.42 3231.95 1620.42C3231.17 1619.35 3230.43 1618.23 3229.71 1617.05 3229 1615.88 3228.26 1614.6 3227.51 1613.21 3226.6 1611.56 3225.83 1610.17 3225.22 1609.03 3224.6 1607.89 3224.06 1606.94 3223.61 1606.2 3223.15 1605.45 3222.74 1604.87 3222.37 1604.46 3222 1604.04 3221.61 1603.73 3221.18 1603.53 3220.75 1603.33 3220.26 1603.21 3219.71 1603.17 3219.15 1603.14 3218.46 1603.12 3217.65 1603.12L3214.14 1603.12 3214.14 1612.77C3214.14 1614.04 3214.17 1615 3214.24 1615.65 3214.31 1616.31 3214.47 1616.8 3214.73 1617.13 3214.99 1617.46 3215.37 1617.69 3215.88 1617.83 3216.38 1617.97 3217.07 1618.17 3217.95 1618.42L3217.95 1620.42 3203.95 1620.42 3203.95 1618.42C3204.9 1618.15 3205.64 1617.91 3206.15 1617.72 3206.67 1617.54 3207.05 1617.27 3207.29 1616.94 3207.52 1616.6 3207.66 1616.12 3207.69 1615.49 3207.72 1614.87 3207.73 1613.98 3207.73 1612.83L3207.73 1587.36C3207.73 1586.15 3207.71 1585.23 3207.66 1584.6 3207.61 1583.98 3207.46 1583.5 3207.23 1583.17 3206.99 1582.85 3206.61 1582.6 3206.11 1582.43 3205.6 1582.26 3204.88 1582.03 3203.95 1581.73ZM3303.18 1577.08 3305.17 1577.08 3305.17 1612.23C3305.17 1613.46 3305.18 1614.43 3305.19 1615.13 3305.2 1615.84 3305.32 1616.39 3305.55 1616.8 3305.77 1617.21 3306.17 1617.51 3306.72 1617.71 3307.28 1617.91 3308.11 1618.13 3309.22 1618.37L3309.22 1620.42C3307.91 1620.48 3306.62 1620.53 3305.34 1620.57 3304.06 1620.61 3302.78 1620.66 3301.51 1620.72L3299.33 1620.72C3299.41 1619.88 3299.47 1619.06 3299.51 1618.25 3299.55 1617.43 3299.6 1616.61 3299.66 1615.77 3299.6 1615.73 3299.54 1615.71 3299.47 1615.71 3299.4 1615.71 3299.33 1615.69 3299.28 1615.65 3298.2 1616.75 3297.25 1617.63 3296.4 1618.29 3295.56 1618.96 3294.75 1619.48 3293.99 1619.85 3293.22 1620.23 3292.44 1620.49 3291.65 1620.64 3290.86 1620.79 3289.97 1620.9 3289 1620.96 3287.21 1620.96 3285.62 1620.62 3284.22 1619.96 3282.82 1619.29 3281.64 1618.32 3280.67 1617.02 3279.71 1615.73 3278.98 1614.14 3278.47 1612.24 3277.96 1610.35 3277.71 1608.18 3277.71 1605.74 3277.71 1603.17 3278.08 1600.92 3278.81 1598.96 3279.55 1597 3280.56 1595.36 3281.85 1594.03 3283.14 1592.7 3284.67 1591.7 3286.42 1591.02 3288.18 1590.35 3290.08 1590.01 3292.13 1590.01 3292.86 1590.01 3293.54 1590.03 3294.17 1590.08 3294.79 1590.13 3295.39 1590.22 3295.95 1590.34 3296.52 1590.46 3297.08 1590.61 3297.64 1590.78 3298.19 1590.96 3298.76 1591.17 3299.33 1591.41L3299.33 1587.54C3299.33 1586.29 3299.32 1585.28 3299.31 1584.53 3299.29 1583.77 3299.26 1583.17 3299.22 1582.71 3299.14 1582.28 3299.05 1581.88 3298.96 1581.54 3298.87 1581.19 3298.69 1580.88 3298.43 1580.61 3298.16 1580.34 3297.77 1580.12 3297.26 1579.93 3296.76 1579.74 3296.06 1579.58 3295.17 1579.47L3295.17 1577.5Z" fill="#585858" fill-rule="evenodd"/><text fill="#000000" fill-opacity="0" font-family="Arial,Arial_MSFontService,sans-serif" font-size="43.8735" x="3203.95" y="1615.47">Red</text><path d="M3316.12 1613.51 3321.33 1613.51C3321.61 1614.9 3321.75 1616.27 3321.75 1617.62 3321.75 1619.01 3321.51 1620.28 3321.04 1621.43 3320.56 1622.58 3319.8 1623.73 3318.76 1624.87 3317.72 1626.01 3316.28 1627.27 3314.45 1628.64L3312.85 1626.82C3313.86 1625.87 3314.59 1625.01 3315.05 1624.25 3315.51 1623.48 3315.83 1622.61 3316.03 1621.64 3316.23 1620.67 3316.33 1619.45 3316.33 1617.98 3316.33 1616.47 3316.26 1614.98 3316.12 1613.51Z" fill="#585858" fill-rule="evenodd"/><text fill="#000000" fill-opacity="0" font-family="Arial,Arial_MSFontService,sans-serif" font-size="15.1309" x="3312.85" y="1626.75">,</text><path d="M3329.77 1600.7 3364.08 1600.7 3364.08 1605.26 3329.77 1605.26Z" fill="#585858" fill-rule="evenodd"/><text fill="#000000" fill-opacity="0" font-family="Arial,Arial_MSFontService,sans-serif" font-size="4.55713" x="3329.77" y="1604.69">−</text><path d="M3228.25 1537.57C3227.14 1537.57 3226.1 1537.82 3225.13 1538.31 3224.15 1538.81 3223.26 1539.49 3222.45 1540.37 3221.63 1541.24 3220.9 1542.27 3220.26 1543.47 3219.61 1544.66 3219.06 1545.94 3218.62 1547.31 3218.17 1548.68 3217.83 1550.11 3217.59 1551.6 3217.35 1553.09 3217.23 1554.58 3217.23 1556.07 3217.23 1558.35 3217.7 1560.03 3218.65 1561.11 3219.59 1562.2 3221.03 1562.74 3222.95 1562.74 3224.02 1562.74 3225.04 1562.47 3225.99 1561.95 3226.94 1561.42 3227.82 1560.71 3228.61 1559.82 3229.4 1558.92 3230.11 1557.88 3230.74 1556.68 3231.37 1555.47 3231.9 1554.19 3232.33 1552.82 3232.77 1551.45 3233.1 1550.03 3233.33 1548.57 3233.56 1547.11 3233.67 1545.69 3233.67 1544.3 3233.67 1542.1 3233.24 1540.42 3232.36 1539.28 3231.49 1538.14 3230.12 1537.57 3228.25 1537.57ZM3228.82 1534.62C3230.61 1534.62 3232.17 1534.91 3233.51 1535.48 3234.85 1536.06 3235.97 1536.84 3236.86 1537.82 3237.75 1538.8 3238.42 1539.96 3238.87 1541.29 3239.32 1542.62 3239.54 1544.04 3239.54 1545.55 3239.54 1548.57 3239.09 1551.3 3238.2 1553.76 3237.31 1556.21 3236.07 1558.31 3234.49 1560.07 3232.91 1561.83 3231.06 1563.18 3228.92 1564.14 3226.79 1565.09 3224.47 1565.57 3221.97 1565.57 3220.32 1565.57 3218.84 1565.32 3217.53 1564.82 3216.22 1564.33 3215.11 1563.61 3214.19 1562.68 3213.28 1561.74 3212.58 1560.62 3212.09 1559.3 3211.61 1557.98 3211.36 1556.48 3211.36 1554.81 3211.36 1551.99 3211.81 1549.36 3212.69 1546.91 3213.57 1544.45 3214.8 1542.32 3216.35 1540.5 3217.91 1538.69 3219.75 1537.25 3221.88 1536.2 3224 1535.15 3226.32 1534.62 3228.82 1534.62Z" fill="#585858" fill-rule="evenodd"/><text fill="#000000" fill-opacity="0" font-family="Arial,Arial_MSFontService,sans-serif" font-size="30.9468" x="3211.36" y="1561.7">𝑜</text></g></svg>