<svg width="1099" height="140" xmlns="http://www.w3.org/2000/svg" xmlns:xlink="http://www.w3.org/1999/xlink" xml:space="preserve" overflow="hidden"><defs><clipPath id="clip0"><rect x="2397" y="1505" width="1099" height="140"/></clipPath></defs><g clip-path="url(#clip0)" transform="translate(-2397 -1505)"><path d="M2554.26 1544.09 2591.54 1544.09 2588.75 1556.53 2584.85 1556.53C2584.75 1554.18 2584.54 1552.41 2584.25 1551.22 2583.95 1550.03 2583.59 1549.21 2583.17 1548.77 2582.75 1548.32 2582.25 1548.02 2581.67 1547.88 2581.09 1547.73 2580.26 1547.65 2579.18 1547.65L2565.97 1547.65 2561.35 1568.89 2569.09 1568.89C2571.01 1568.89 2572.47 1568.44 2573.49 1567.53 2574.5 1566.63 2575.52 1565.13 2576.55 1563.05L2580.23 1563.05 2576.59 1578.62 2573.14 1578.62C2573.14 1576.45 2573.01 1574.99 2572.74 1574.22 2572.47 1573.45 2572.07 1572.96 2571.54 1572.76 2571.01 1572.56 2570.06 1572.45 2568.68 1572.45L2560.58 1572.45 2555.39 1595.84 2567.39 1595.84C2568.98 1595.84 2570.24 1595.68 2571.18 1595.35 2572.11 1595.03 2572.99 1594.5 2573.81 1593.77 2574.64 1593.04 2575.46 1592.02 2576.28 1590.71 2577.11 1589.4 2578.09 1587.63 2579.22 1585.38L2583.15 1585.38 2579.59 1599.41 2543.64 1599.41 2544.08 1597.42C2545.11 1597.26 2545.88 1596.99 2546.39 1596.63 2546.91 1596.26 2547.34 1595.76 2547.69 1595.11 2548.04 1594.46 2548.37 1593.67 2548.66 1592.74 2548.96 1591.81 2549.41 1590 2550 1587.33L2556.89 1556.12C2557.49 1553.42 2557.78 1551.25 2557.78 1549.6 2557.78 1548.33 2557.47 1547.44 2556.83 1546.94 2556.2 1546.44 2555.19 1546.15 2553.81 1546.07Z" fill="#585858" fill-rule="evenodd"/><text fill="#000000" fill-opacity="0" font-family="Arial,Arial_MSFontService,sans-serif" font-size="55.3198" x="2543.64" y="1592.49">𝐸</text><path d="M2646.68 1588.79C2645.58 1588.79 2644.51 1589.06 2643.44 1589.59 2642.38 1590.13 2641.38 1590.89 2640.44 1591.87 2639.49 1592.85 2638.63 1594.04 2637.86 1595.44 2637.08 1596.84 2636.44 1598.41 2635.92 1600.14 2638.44 1600.12 2640.61 1599.92 2642.43 1599.54 2644.25 1599.16 2645.74 1598.65 2646.9 1597.99 2648.06 1597.34 2648.91 1596.56 2649.46 1595.67 2650.01 1594.77 2650.28 1593.79 2650.28 1592.72 2650.28 1591.49 2649.97 1590.52 2649.36 1589.83 2648.74 1589.14 2647.85 1588.79 2646.68 1588.79ZM2647.96 1585.84C2650.5 1585.84 2652.43 1586.39 2653.75 1587.51 2655.07 1588.62 2655.73 1590.2 2655.73 1592.24 2655.73 1599.43 2648.93 1603.02 2635.33 1603.02 2635.23 1603.54 2635.15 1604.1 2635.09 1604.71 2635.03 1605.31 2635 1605.97 2635 1606.69 2635 1608.85 2635.44 1610.43 2636.32 1611.42 2637.21 1612.42 2638.58 1612.91 2640.45 1612.91 2641.42 1612.91 2642.35 1612.81 2643.22 1612.6 2644.09 1612.39 2644.95 1612.07 2645.8 1611.63 2646.64 1611.2 2647.49 1610.63 2648.34 1609.95 2649.2 1609.26 2650.09 1608.45 2651.02 1607.49L2653.26 1609.91C2650.95 1612.19 2648.66 1613.91 2646.36 1615.06 2644.07 1616.21 2641.6 1616.79 2638.96 1616.79 2637.41 1616.79 2636.04 1616.55 2634.84 1616.09 2633.63 1615.62 2632.62 1614.94 2631.8 1614.05 2630.97 1613.15 2630.35 1612.06 2629.92 1610.78 2629.49 1609.5 2629.28 1608.06 2629.28 1606.45 2629.28 1605.32 2629.38 1604.14 2629.58 1602.92 2629.78 1601.7 2630.08 1600.48 2630.5 1599.26 2630.92 1598.04 2631.44 1596.84 2632.05 1595.68 2632.67 1594.52 2633.39 1593.43 2634.22 1592.42 2635.89 1590.36 2637.9 1588.74 2640.26 1587.58 2642.61 1586.42 2645.18 1585.84 2647.96 1585.84ZM2598.39 1577.62 2625.46 1577.62 2624.98 1579.52 2597.88 1613.09 2607.74 1613.09C2608.77 1613.09 2609.66 1612.99 2610.4 1612.78 2611.15 1612.57 2611.83 1612.19 2612.46 1611.63 2613.09 1611.08 2613.7 1610.3 2614.31 1609.31 2614.91 1608.32 2615.59 1607.04 2616.35 1605.47L2619.53 1605.47 2617.21 1616.25 2589.57 1616.25 2589.99 1614.28 2616.97 1580.83 2607.62 1580.83C2606.75 1580.83 2605.99 1580.87 2605.36 1580.95 2604.72 1581.03 2604.11 1581.29 2603.52 1581.73 2602.94 1582.17 2602.33 1582.86 2601.69 1583.8 2601.06 1584.74 2600.32 1586.06 2599.49 1587.74L2596.18 1587.74ZM2695.34 1575.59 2697.49 1575.59C2696.26 1581.13 2695.13 1586.2 2694.11 1590.78 2693.08 1595.37 2691.97 1600.43 2690.76 1605.97 2690.48 1607.16 2690.28 1608.1 2690.16 1608.79 2690.04 1609.47 2689.98 1610.09 2689.98 1610.65 2689.98 1611.4 2690.14 1611.95 2690.44 1612.29 2690.75 1612.63 2691.22 1612.79 2691.86 1612.79 2692.22 1612.79 2692.57 1612.72 2692.93 1612.59 2693.29 1612.45 2693.67 1612.23 2694.06 1611.93 2694.46 1611.63 2694.9 1611.25 2695.39 1610.78 2695.87 1610.32 2696.43 1609.76 2697.04 1609.1L2698.98 1611.07C2697.96 1612.1 2697.05 1612.98 2696.22 1613.7 2695.4 1614.43 2694.61 1615.02 2693.87 1615.47 2693.12 1615.93 2692.39 1616.26 2691.67 1616.47 2690.94 1616.68 2690.16 1616.79 2689.33 1616.79 2688.57 1616.79 2687.89 1616.65 2687.29 1616.37 2686.68 1616.09 2686.16 1615.71 2685.72 1615.22 2685.29 1614.74 2684.95 1614.15 2684.71 1613.48 2684.47 1612.8 2684.35 1612.06 2684.35 1611.25 2684.35 1610.51 2684.43 1609.6 2684.58 1608.52 2684.73 1607.44 2684.96 1606.21 2685.28 1604.84 2686.13 1601.03 2686.98 1597.23 2687.82 1593.43 2688.67 1589.64 2689.36 1586.73 2689.89 1584.71 2690.37 1582.54 2690.61 1581.06 2690.61 1580.27 2690.61 1579.85 2690.55 1579.5 2690.44 1579.23 2690.33 1578.95 2690.14 1578.72 2689.85 1578.54 2689.56 1578.36 2689.17 1578.23 2688.67 1578.15 2688.18 1578.07 2687.53 1578.02 2686.74 1577.98L2687.15 1575.95ZM2674.34 1575.59 2676.49 1575.59C2675.26 1581.13 2674.13 1586.2 2673.11 1590.78 2672.08 1595.37 2670.97 1600.43 2669.76 1605.97 2669.48 1607.16 2669.28 1608.1 2669.16 1608.79 2669.04 1609.47 2668.98 1610.09 2668.98 1610.65 2668.98 1611.4 2669.14 1611.95 2669.44 1612.29 2669.75 1612.63 2670.22 1612.79 2670.86 1612.79 2671.22 1612.79 2671.57 1612.72 2671.93 1612.59 2672.29 1612.45 2672.67 1612.23 2673.06 1611.93 2673.46 1611.63 2673.9 1611.25 2674.39 1610.78 2674.87 1610.32 2675.43 1609.76 2676.04 1609.1L2677.98 1611.07C2676.96 1612.1 2676.05 1612.98 2675.22 1613.7 2674.4 1614.43 2673.61 1615.02 2672.87 1615.47 2672.12 1615.93 2671.39 1616.26 2670.67 1616.47 2669.94 1616.68 2669.16 1616.79 2668.33 1616.79 2667.57 1616.79 2666.89 1616.65 2666.29 1616.37 2665.68 1616.09 2665.16 1615.71 2664.72 1615.22 2664.29 1614.74 2663.95 1614.15 2663.71 1613.48 2663.47 1612.8 2663.35 1612.06 2663.35 1611.25 2663.35 1610.51 2663.43 1609.6 2663.58 1608.52 2663.73 1607.44 2663.96 1606.21 2664.28 1604.84 2665.13 1601.03 2665.98 1597.23 2666.82 1593.43 2667.67 1589.64 2668.36 1586.73 2668.89 1584.71 2669.37 1582.54 2669.61 1581.06 2669.61 1580.27 2669.61 1579.85 2669.55 1579.5 2669.44 1579.23 2669.33 1578.95 2669.14 1578.72 2668.85 1578.54 2668.56 1578.36 2668.17 1578.23 2667.67 1578.15 2667.18 1578.07 2666.53 1578.02 2665.74 1577.98L2666.15 1575.95Z" fill="#585858" fill-rule="evenodd"/><text fill="#000000" fill-opacity="0" font-family="Arial,Arial_MSFontService,sans-serif" font-size="41.1929" x="2589.57" y="1611.64">𝑍𝑒𝑙𝑙</text><path d="M2735.19 1581.41 2785.12 1581.41 2785.12 1586.8 2735.19 1586.8ZM2735.19 1564.59 2785.12 1564.59 2785.12 1569.98 2735.19 1569.98Z" fill="#585858" fill-rule="evenodd"/><text fill="#000000" fill-opacity="0" font-family="Arial,Arial_MSFontService,sans-serif" font-size="22.209" x="2735.19" y="1584.03">=</text><path d="M2826.87 1544.09 2864.16 1544.09 2861.36 1556.53 2857.47 1556.53C2857.36 1554.18 2857.16 1552.41 2856.86 1551.22 2856.57 1550.03 2856.21 1549.21 2855.79 1548.77 2855.37 1548.32 2854.87 1548.02 2854.29 1547.88 2853.71 1547.73 2852.88 1547.65 2851.8 1547.65L2838.59 1547.65 2833.97 1568.89 2841.71 1568.89C2843.62 1568.89 2845.09 1568.44 2846.1 1567.53 2847.12 1566.63 2848.14 1565.13 2849.16 1563.05L2852.85 1563.05 2849.2 1578.62 2845.76 1578.62C2845.76 1576.45 2845.62 1574.99 2845.35 1574.22 2845.08 1573.45 2844.69 1572.96 2844.16 1572.76 2843.63 1572.56 2842.68 1572.45 2841.3 1572.45L2833.2 1572.45 2828.01 1595.84 2840 1595.84C2841.6 1595.84 2842.86 1595.68 2843.79 1595.35 2844.73 1595.03 2845.6 1594.5 2846.43 1593.77 2847.25 1593.04 2848.08 1592.02 2848.9 1590.71 2849.72 1589.4 2850.7 1587.63 2851.84 1585.38L2855.77 1585.38 2852.2 1599.41 2816.26 1599.41 2816.7 1597.42C2817.73 1597.26 2818.5 1596.99 2819.01 1596.63 2819.52 1596.26 2819.96 1595.76 2820.31 1595.11 2820.66 1594.46 2820.98 1593.67 2821.28 1592.74 2821.58 1591.81 2822.02 1590 2822.62 1587.33L2829.51 1556.12C2830.1 1553.42 2830.4 1551.25 2830.4 1549.6 2830.4 1548.33 2830.08 1547.44 2829.45 1546.94 2828.81 1546.44 2827.81 1546.15 2826.43 1546.07Z" fill="#585858" fill-rule="evenodd"/><text fill="#000000" fill-opacity="0" font-family="Arial,Arial_MSFontService,sans-serif" font-size="55.3198" x="2816.26" y="1592.49">𝐸</text><path d="M2954.08 1591.65C2952.91 1591.65 2951.82 1591.91 2950.82 1592.41 2949.82 1592.92 2948.9 1593.61 2948.07 1594.5 2947.23 1595.38 2946.49 1596.4 2945.83 1597.56 2945.18 1598.73 2944.63 1599.97 2944.18 1601.29 2943.73 1602.61 2943.4 1603.96 2943.17 1605.34 2942.94 1606.72 2942.82 1608.06 2942.82 1609.37 2942.82 1611.52 2943.13 1613.11 2943.73 1614.15 2944.34 1615.2 2945.32 1615.72 2946.67 1615.72 2947.58 1615.72 2948.59 1615.41 2949.7 1614.8 2950.82 1614.18 2951.89 1613.29 2952.94 1612.13 2953.98 1610.97 2954.94 1609.55 2955.81 1607.89 2956.68 1606.22 2957.34 1604.34 2957.78 1602.26 2958 1601.18 2958.19 1600.11 2958.37 1599.04 2958.55 1597.97 2958.64 1596.98 2958.64 1596.09 2958.64 1594.48 2958.28 1593.34 2957.55 1592.66 2956.83 1591.99 2955.67 1591.65 2954.08 1591.65ZM2922.29 1591.65C2921.2 1591.65 2920.12 1591.92 2919.06 1592.46 2918 1592.99 2916.99 1593.75 2916.05 1594.73 2915.11 1595.72 2914.25 1596.91 2913.48 1598.31 2912.7 1599.71 2912.06 1601.27 2911.54 1603 2914.06 1602.98 2916.23 1602.78 2918.05 1602.4 2919.86 1602.03 2921.35 1601.51 2922.52 1600.86 2923.68 1600.2 2924.53 1599.43 2925.08 1598.53 2925.62 1597.64 2925.9 1596.66 2925.9 1595.58 2925.9 1594.35 2925.59 1593.39 2924.97 1592.69 2924.36 1592 2923.46 1591.65 2922.29 1591.65ZM2923.57 1588.7C2926.11 1588.7 2928.05 1589.26 2929.37 1590.37 2930.69 1591.48 2931.35 1593.06 2931.35 1595.11 2931.35 1602.3 2924.55 1605.89 2910.94 1605.89 2910.84 1606.41 2910.76 1606.97 2910.71 1607.57 2910.65 1608.18 2910.62 1608.84 2910.62 1609.55 2910.62 1611.72 2911.06 1613.3 2911.94 1614.29 2912.82 1615.28 2914.2 1615.78 2916.07 1615.78 2917.04 1615.78 2917.96 1615.67 2918.84 1615.47 2919.71 1615.26 2920.57 1614.93 2921.41 1614.5 2922.26 1614.06 2923.11 1613.5 2923.96 1612.81 2924.81 1612.13 2925.71 1611.31 2926.64 1610.36L2928.87 1612.77C2926.57 1615.05 2924.27 1616.77 2921.98 1617.92 2919.69 1619.07 2917.22 1619.65 2914.58 1619.65 2913.03 1619.65 2911.65 1619.42 2910.45 1618.95 2909.25 1618.48 2908.24 1617.8 2907.41 1616.91 2906.59 1616.02 2905.96 1614.93 2905.54 1613.65 2905.11 1612.37 2904.9 1610.92 2904.9 1609.31 2904.9 1608.18 2905 1607.01 2905.2 1605.79 2905.39 1604.56 2905.7 1603.34 2906.12 1602.12 2906.54 1600.9 2907.05 1599.71 2907.67 1598.55 2908.28 1597.39 2909.01 1596.3 2909.84 1595.29 2911.51 1593.22 2913.52 1591.61 2915.87 1590.45 2918.23 1589.28 2920.79 1588.7 2923.57 1588.7ZM2882.98 1583.64C2882.5 1583.64 2881.95 1583.65 2881.34 1583.67 2880.72 1583.69 2880.13 1583.7 2879.55 1583.7L2876.01 1599.28 2879.55 1599.28C2883.48 1599.28 2886.5 1598.48 2888.61 1596.88 2890.71 1595.28 2891.76 1592.85 2891.76 1589.6 2891.76 1588.5 2891.6 1587.58 2891.27 1586.81 2890.94 1586.05 2890.42 1585.43 2889.71 1584.97 2888.99 1584.5 2888.08 1584.16 2886.98 1583.95 2885.88 1583.74 2884.55 1583.64 2882.98 1583.64ZM2870.41 1580.48 2884.08 1580.48C2886.7 1580.48 2888.88 1580.71 2890.63 1581.17 2892.38 1581.62 2893.78 1582.25 2894.83 1583.06 2895.88 1583.86 2896.63 1584.81 2897.07 1585.9 2897.5 1587 2897.72 1588.18 2897.72 1589.45 2897.72 1592.39 2896.82 1594.84 2895.02 1596.8 2893.23 1598.77 2890.5 1600.27 2886.85 1601.3 2886.81 1601.38 2886.79 1601.45 2886.79 1601.51 2886.79 1601.57 2886.79 1601.64 2886.79 1601.72 2887.72 1602.35 2888.47 1603.15 2889.04 1604.1 2889.6 1605.06 2890.1 1606.32 2890.51 1607.89 2890.99 1609.75 2891.38 1611.26 2891.69 1612.41 2892 1613.56 2892.35 1614.47 2892.76 1615.14 2893.17 1615.8 2893.68 1616.29 2894.31 1616.6 2894.94 1616.9 2895.78 1617.14 2896.86 1617.3L2896.44 1619.11 2887.77 1619.11C2887.41 1618.34 2887.07 1617.39 2886.73 1616.27 2886.39 1615.15 2886.09 1614.05 2885.84 1612.98 2885.44 1611.41 2885.11 1610.05 2884.84 1608.91 2884.57 1607.77 2884.31 1606.81 2884.05 1606.02 2883.79 1605.24 2883.52 1604.61 2883.24 1604.15 2882.97 1603.68 2882.64 1603.31 2882.26 1603.03 2881.88 1602.75 2881.43 1602.57 2880.89 1602.48 2880.36 1602.39 2879.7 1602.33 2878.93 1602.29L2875.38 1602.29C2875.14 1603.34 2874.89 1604.47 2874.61 1605.68 2874.33 1606.89 2874.06 1608.07 2873.79 1609.23 2873.52 1610.38 2873.3 1611.45 2873.12 1612.46 2872.94 1613.46 2872.85 1614.27 2872.85 1614.88 2872.85 1615.3 2872.9 1615.65 2873 1615.94 2873.1 1616.23 2873.27 1616.46 2873.52 1616.64 2873.77 1616.82 2874.11 1616.96 2874.53 1617.06 2874.96 1617.16 2875.5 1617.24 2876.16 1617.3L2875.77 1619.11 2863.05 1619.11 2863.38 1617.3C2863.99 1617.2 2864.5 1617.07 2864.88 1616.92 2865.27 1616.78 2865.62 1616.49 2865.92 1616.06 2866.23 1615.63 2866.52 1614.99 2866.77 1614.14 2867.03 1613.29 2867.33 1612.09 2867.67 1610.57L2872.55 1588.85C2872.75 1587.98 2872.9 1587.2 2873 1586.53 2873.1 1585.85 2873.15 1585.3 2873.15 1584.86 2873.15 1583.97 2872.92 1583.33 2872.48 1582.95 2872.03 1582.58 2871.19 1582.38 2869.96 1582.36ZM2967.19 1578.46 2968.71 1578.46 2961.8 1608.84C2961.52 1610.01 2961.34 1610.94 2961.25 1611.64 2961.16 1612.33 2961.11 1612.96 2961.11 1613.51 2961.11 1614.27 2961.27 1614.82 2961.57 1615.15 2961.88 1615.49 2962.32 1615.66 2962.9 1615.66 2963.26 1615.66 2963.61 1615.59 2963.96 1615.45 2964.3 1615.31 2964.68 1615.09 2965.09 1614.8 2965.5 1614.5 2965.94 1614.12 2966.43 1613.65 2966.92 1613.18 2967.47 1612.62 2968.08 1611.97 2968.4 1612.3 2968.73 1612.64 2969.07 1612.96 2969.4 1613.29 2969.73 1613.61 2970.05 1613.93 2969.06 1614.94 2968.15 1615.81 2967.34 1616.54 2966.52 1617.26 2965.73 1617.86 2964.97 1618.32 2964.21 1618.79 2963.46 1619.13 2962.72 1619.34 2961.99 1619.55 2961.22 1619.65 2960.43 1619.65 2959 1619.65 2957.89 1619.19 2957.09 1618.27 2956.3 1617.34 2955.9 1616.08 2955.9 1614.47 2955.9 1613.57 2956.04 1612.72 2956.32 1611.91L2955.9 1611.73C2954.89 1613.14 2953.9 1614.34 2952.95 1615.33 2952 1616.32 2951.06 1617.14 2950.12 1617.79 2949.19 1618.43 2948.25 1618.91 2947.29 1619.2 2946.34 1619.5 2945.35 1619.65 2944.31 1619.65 2941.95 1619.65 2940.12 1618.8 2938.83 1617.1 2937.54 1615.41 2936.9 1612.94 2936.9 1609.7 2936.9 1607.78 2937.1 1605.92 2937.51 1604.15 2937.91 1602.37 2938.49 1600.7 2939.24 1599.14 2939.98 1597.58 2940.87 1596.16 2941.9 1594.88 2942.93 1593.6 2944.07 1592.51 2945.3 1591.59 2946.53 1590.68 2947.84 1589.97 2949.23 1589.46 2950.62 1588.96 2952.06 1588.7 2953.55 1588.7 2954.86 1588.7 2956.06 1588.83 2957.15 1589.09 2958.24 1589.35 2959.29 1589.86 2960.28 1590.64 2960.62 1589.39 2960.88 1588.32 2961.08 1587.44 2961.28 1586.55 2961.45 1585.74 2961.57 1585 2961.7 1584.25 2961.77 1583.63 2961.77 1583.13 2961.77 1582.72 2961.71 1582.37 2961.6 1582.09 2961.49 1581.81 2961.3 1581.58 2961.02 1581.41 2960.75 1581.23 2960.35 1581.1 2959.85 1581.02 2959.34 1580.94 2958.7 1580.88 2957.93 1580.84L2958.31 1578.81Z" fill="#585858" fill-rule="evenodd"/><text fill="#000000" fill-opacity="0" font-family="Arial,Arial_MSFontService,sans-serif" font-size="41.1929" x="2863.05" y="1614.5">𝑅𝑒𝑑</text><path d="M2977.55 1612.2 2982.76 1612.2C2983.04 1613.59 2983.18 1614.96 2983.18 1616.31 2983.18 1617.7 2982.94 1618.97 2982.47 1620.13 2981.99 1621.28 2981.23 1622.43 2980.19 1623.57 2979.14 1624.71 2977.71 1625.96 2975.88 1627.33L2974.27 1625.52C2975.29 1624.56 2976.02 1623.71 2976.48 1622.94 2976.94 1622.18 2977.26 1621.31 2977.46 1620.34 2977.66 1619.36 2977.76 1618.14 2977.76 1616.67 2977.76 1615.16 2977.69 1613.67 2977.55 1612.2Z" fill="#585858" fill-rule="evenodd"/><text fill="#000000" fill-opacity="0" font-family="Arial,Arial_MSFontService,sans-serif" font-size="15.1309" x="2974.27" y="1625.44">,</text><path d="M3005.94 1583.73 3010.77 1583.73 3010.77 1599.4 3025.51 1599.4 3025.51 1603.95 3010.77 1603.95 3010.77 1619.62 3005.94 1619.62 3005.94 1603.95 2991.2 1603.95 2991.2 1599.4 3005.94 1599.4Z" fill="#585858" fill-rule="evenodd"/><text fill="#000000" fill-opacity="0" font-family="Arial,Arial_MSFontService,sans-serif" font-size="35.8911" x="2991.2" y="1615.13">+</text><path d="M2889.5 1538.9C2888.39 1538.9 2887.34 1539.15 2886.37 1539.64 2885.4 1540.14 2884.51 1540.82 2883.69 1541.7 2882.88 1542.57 2882.15 1543.6 2881.5 1544.8 2880.86 1545.99 2880.31 1547.27 2879.86 1548.64 2879.42 1550.01 2879.07 1551.44 2878.84 1552.93 2878.6 1554.42 2878.48 1555.91 2878.48 1557.39 2878.48 1559.68 2878.95 1561.36 2879.89 1562.44 2880.84 1563.53 2882.27 1564.07 2884.2 1564.07 2885.27 1564.07 2886.28 1563.8 2887.24 1563.28 2888.19 1562.75 2889.06 1562.04 2889.86 1561.15 2890.65 1560.25 2891.36 1559.21 2891.99 1558.01 2892.61 1556.8 2893.14 1555.52 2893.58 1554.15 2894.02 1552.78 2894.35 1551.36 2894.58 1549.9 2894.81 1548.44 2894.92 1547.02 2894.92 1545.63 2894.92 1543.43 2894.48 1541.75 2893.61 1540.61 2892.74 1539.47 2891.37 1538.9 2889.5 1538.9ZM2890.06 1535.95C2891.85 1535.95 2893.42 1536.24 2894.76 1536.81 2896.1 1537.39 2897.21 1538.17 2898.11 1539.15 2899 1540.13 2899.67 1541.29 2900.12 1542.62 2900.56 1543.95 2900.79 1545.37 2900.79 1546.88 2900.79 1549.9 2900.34 1552.63 2899.45 1555.09 2898.55 1557.54 2897.32 1559.64 2895.74 1561.4 2894.16 1563.16 2892.3 1564.51 2890.17 1565.47 2888.03 1566.42 2885.72 1566.9 2883.21 1566.9 2881.57 1566.9 2880.09 1566.65 2878.78 1566.15 2877.47 1565.65 2876.35 1564.94 2875.44 1564.01 2874.53 1563.07 2873.83 1561.95 2873.34 1560.63 2872.85 1559.31 2872.61 1557.81 2872.61 1556.14 2872.61 1553.32 2873.05 1550.69 2873.94 1548.24 2874.82 1545.78 2876.04 1543.65 2877.6 1541.83 2879.16 1540.01 2881 1538.58 2883.12 1537.53 2885.25 1536.48 2887.56 1535.95 2890.06 1535.95Z" fill="#585858" fill-rule="evenodd"/><text fill="#000000" fill-opacity="0" font-family="Arial,Arial_MSFontService,sans-serif" font-size="30.9468" x="2872.61" y="1563.03">𝑜</text><path d="M3057.49 1572.98 3107.42 1572.98 3107.42 1578.37 3057.49 1578.37Z" fill="#585858" fill-rule="evenodd"/><text fill="#000000" fill-opacity="0" font-family="Arial,Arial_MSFontService,sans-serif" font-size="5.39014" x="3057.49" y="1577.7">−</text><path d="M3144.59 1544.09 3181.88 1544.09 3179.08 1556.53 3175.19 1556.53C3175.08 1554.18 3174.88 1552.41 3174.58 1551.22 3174.28 1550.03 3173.93 1549.21 3173.51 1548.77 3173.09 1548.32 3172.59 1548.02 3172.01 1547.88 3171.43 1547.73 3170.6 1547.65 3169.51 1547.65L3156.3 1547.65 3151.68 1568.89 3159.42 1568.89C3161.34 1568.89 3162.81 1568.44 3163.82 1567.53 3164.83 1566.63 3165.85 1565.13 3166.88 1563.05L3170.57 1563.05 3166.92 1578.62 3163.48 1578.62C3163.48 1576.45 3163.34 1574.99 3163.07 1574.22 3162.8 1573.45 3162.4 1572.96 3161.88 1572.76 3161.35 1572.56 3160.4 1572.45 3159.02 1572.45L3150.91 1572.45 3145.72 1595.84 3157.72 1595.84C3159.31 1595.84 3160.58 1595.68 3161.51 1595.35 3162.44 1595.03 3163.32 1594.5 3164.14 1593.77 3164.97 1593.04 3165.79 1592.02 3166.62 1590.71 3167.44 1589.4 3168.42 1587.63 3169.55 1585.38L3173.49 1585.38 3169.92 1599.41 3133.97 1599.41 3134.42 1597.42C3135.44 1597.26 3136.21 1596.99 3136.73 1596.63 3137.24 1596.26 3137.67 1595.76 3138.02 1595.11 3138.38 1594.46 3138.7 1593.67 3139 1592.74 3139.29 1591.81 3139.74 1590 3140.33 1587.33L3147.22 1556.12C3147.82 1553.42 3148.12 1551.25 3148.12 1549.6 3148.12 1548.33 3147.8 1547.44 3147.16 1546.94 3146.53 1546.44 3145.52 1546.15 3144.14 1546.07Z" fill="#585858" fill-rule="evenodd"/><text fill="#000000" fill-opacity="0" font-family="Arial,Arial_MSFontService,sans-serif" font-size="55.3198" x="3133.97" y="1592.49">𝐸</text><path d="M3271.8 1591.65C3270.63 1591.65 3269.54 1591.91 3268.54 1592.41 3267.54 1592.92 3266.62 1593.61 3265.78 1594.5 3264.95 1595.38 3264.2 1596.4 3263.55 1597.56 3262.89 1598.73 3262.34 1599.97 3261.9 1601.29 3261.45 1602.61 3261.11 1603.96 3260.88 1605.34 3260.66 1606.72 3260.54 1608.06 3260.54 1609.37 3260.54 1611.52 3260.84 1613.11 3261.45 1614.15 3262.06 1615.2 3263.03 1615.72 3264.38 1615.72 3265.3 1615.72 3266.31 1615.41 3267.42 1614.8 3268.53 1614.18 3269.61 1613.29 3270.65 1612.13 3271.7 1610.97 3272.65 1609.55 3273.53 1607.89 3274.4 1606.22 3275.06 1604.34 3275.49 1602.26 3275.71 1601.18 3275.91 1600.11 3276.09 1599.04 3276.27 1597.97 3276.36 1596.98 3276.36 1596.09 3276.36 1594.48 3275.99 1593.34 3275.27 1592.66 3274.54 1591.99 3273.39 1591.65 3271.8 1591.65ZM3240.01 1591.65C3238.92 1591.65 3237.84 1591.92 3236.78 1592.46 3235.71 1592.99 3234.71 1593.75 3233.77 1594.73 3232.83 1595.72 3231.97 1596.91 3231.19 1598.31 3230.42 1599.71 3229.77 1601.27 3229.26 1603 3231.78 1602.98 3233.95 1602.78 3235.76 1602.4 3237.58 1602.03 3239.07 1601.51 3240.23 1600.86 3241.39 1600.2 3242.25 1599.43 3242.79 1598.53 3243.34 1597.64 3243.61 1596.66 3243.61 1595.58 3243.61 1594.35 3243.3 1593.39 3242.69 1592.69 3242.07 1592 3241.18 1591.65 3240.01 1591.65ZM3241.29 1588.7C3243.83 1588.7 3245.76 1589.26 3247.08 1590.37 3248.4 1591.48 3249.06 1593.06 3249.06 1595.11 3249.06 1602.3 3242.26 1605.89 3228.66 1605.89 3228.56 1606.41 3228.48 1606.97 3228.42 1607.57 3228.36 1608.18 3228.33 1608.84 3228.33 1609.55 3228.33 1611.72 3228.77 1613.3 3229.66 1614.29 3230.54 1615.28 3231.92 1615.78 3233.78 1615.78 3234.76 1615.78 3235.68 1615.67 3236.55 1615.47 3237.43 1615.26 3238.29 1614.93 3239.13 1614.5 3239.97 1614.06 3240.82 1613.5 3241.68 1612.81 3242.53 1612.13 3243.42 1611.31 3244.36 1610.36L3246.59 1612.77C3244.29 1615.05 3241.99 1616.77 3239.7 1617.92 3237.4 1619.07 3234.93 1619.65 3232.29 1619.65 3230.75 1619.65 3229.37 1619.42 3228.17 1618.95 3226.97 1618.48 3225.95 1617.8 3225.13 1616.91 3224.31 1616.02 3223.68 1614.93 3223.25 1613.65 3222.83 1612.37 3222.61 1610.92 3222.61 1609.31 3222.61 1608.18 3222.71 1607.01 3222.91 1605.79 3223.11 1604.56 3223.42 1603.34 3223.83 1602.12 3224.25 1600.9 3224.77 1599.71 3225.38 1598.55 3226 1597.39 3226.72 1596.3 3227.56 1595.29 3229.23 1593.22 3231.24 1591.61 3233.59 1590.45 3235.94 1589.28 3238.51 1588.7 3241.29 1588.7ZM3200.69 1583.64C3200.22 1583.64 3199.67 1583.65 3199.06 1583.67 3198.44 1583.69 3197.84 1583.7 3197.27 1583.7L3193.72 1599.28 3197.27 1599.28C3201.2 1599.28 3204.22 1598.48 3206.32 1596.88 3208.43 1595.28 3209.48 1592.85 3209.48 1589.6 3209.48 1588.5 3209.32 1587.58 3208.99 1586.81 3208.66 1586.05 3208.14 1585.43 3207.42 1584.97 3206.71 1584.5 3205.8 1584.16 3204.7 1583.95 3203.6 1583.74 3202.26 1583.64 3200.69 1583.64ZM3188.12 1580.48 3201.8 1580.48C3204.42 1580.48 3206.6 1580.71 3208.35 1581.17 3210.1 1581.62 3211.5 1582.25 3212.55 1583.06 3213.6 1583.86 3214.34 1584.81 3214.78 1585.9 3215.22 1587 3215.44 1588.18 3215.44 1589.45 3215.44 1592.39 3214.54 1594.84 3212.74 1596.8 3210.94 1598.77 3208.22 1600.27 3204.57 1601.3 3204.53 1601.38 3204.51 1601.45 3204.51 1601.51 3204.51 1601.57 3204.51 1601.64 3204.51 1601.72 3205.44 1602.35 3206.19 1603.15 3206.75 1604.1 3207.32 1605.06 3207.81 1606.32 3208.23 1607.89 3208.71 1609.75 3209.1 1611.26 3209.41 1612.41 3209.71 1613.56 3210.07 1614.47 3210.48 1615.14 3210.88 1615.8 3211.4 1616.29 3212.03 1616.6 3212.65 1616.9 3213.5 1617.14 3214.57 1617.3L3214.16 1619.11 3205.49 1619.11C3205.13 1618.34 3204.78 1617.39 3204.45 1616.27 3204.11 1615.15 3203.81 1614.05 3203.55 1612.98 3203.16 1611.41 3202.82 1610.05 3202.55 1608.91 3202.29 1607.77 3202.02 1606.81 3201.77 1606.02 3201.51 1605.24 3201.24 1604.61 3200.96 1604.15 3200.68 1603.68 3200.36 1603.31 3199.98 1603.03 3199.6 1602.75 3199.14 1602.57 3198.61 1602.48 3198.07 1602.39 3197.42 1602.33 3196.64 1602.29L3193.1 1602.29C3192.86 1603.34 3192.6 1604.47 3192.32 1605.68 3192.05 1606.89 3191.77 1608.07 3191.5 1609.23 3191.24 1610.38 3191.01 1611.45 3190.83 1612.46 3190.66 1613.46 3190.57 1614.27 3190.57 1614.88 3190.57 1615.3 3190.62 1615.65 3190.72 1615.94 3190.81 1616.23 3190.99 1616.46 3191.24 1616.64 3191.48 1616.82 3191.82 1616.96 3192.25 1617.06 3192.68 1617.16 3193.22 1617.24 3193.87 1617.3L3193.49 1619.11 3180.77 1619.11 3181.09 1617.3C3181.71 1617.2 3182.21 1617.07 3182.6 1616.92 3182.99 1616.78 3183.33 1616.49 3183.64 1616.06 3183.95 1615.63 3184.23 1614.99 3184.49 1614.14 3184.75 1613.29 3185.05 1612.09 3185.38 1610.57L3190.27 1588.85C3190.47 1587.98 3190.62 1587.2 3190.72 1586.53 3190.81 1585.85 3190.86 1585.3 3190.86 1584.86 3190.86 1583.97 3190.64 1583.33 3190.19 1582.95 3189.75 1582.58 3188.91 1582.38 3187.68 1582.36ZM3284.91 1578.46 3286.42 1578.46 3279.51 1608.84C3279.24 1610.01 3279.05 1610.94 3278.96 1611.64 3278.87 1612.33 3278.83 1612.96 3278.83 1613.51 3278.83 1614.27 3278.98 1614.82 3279.29 1615.15 3279.6 1615.49 3280.04 1615.66 3280.62 1615.66 3280.97 1615.66 3281.33 1615.59 3281.67 1615.45 3282.02 1615.31 3282.4 1615.09 3282.81 1614.8 3283.21 1614.5 3283.66 1614.12 3284.15 1613.65 3284.63 1613.18 3285.18 1612.62 3285.8 1611.97 3286.12 1612.3 3286.44 1612.64 3286.78 1612.96 3287.12 1613.29 3287.45 1613.61 3287.76 1613.93 3286.77 1614.94 3285.87 1615.81 3285.05 1616.54 3284.24 1617.26 3283.45 1617.86 3282.69 1618.32 3281.92 1618.79 3281.17 1619.13 3280.44 1619.34 3279.7 1619.55 3278.94 1619.65 3278.14 1619.65 3276.71 1619.65 3275.6 1619.19 3274.81 1618.27 3274.01 1617.34 3273.62 1616.08 3273.62 1614.47 3273.62 1613.57 3273.76 1612.72 3274.03 1611.91L3273.62 1611.73C3272.6 1613.14 3271.62 1614.34 3270.67 1615.33 3269.71 1616.32 3268.77 1617.14 3267.84 1617.79 3266.91 1618.43 3265.96 1618.91 3265.01 1619.2 3264.06 1619.5 3263.06 1619.65 3262.03 1619.65 3259.67 1619.65 3257.84 1618.8 3256.55 1617.1 3255.26 1615.41 3254.61 1612.94 3254.61 1609.7 3254.61 1607.78 3254.82 1605.92 3255.22 1604.15 3255.63 1602.37 3256.21 1600.7 3256.95 1599.14 3257.7 1597.58 3258.59 1596.16 3259.62 1594.88 3260.65 1593.6 3261.78 1592.51 3263.01 1591.59 3264.24 1590.68 3265.55 1589.97 3266.94 1589.46 3268.33 1588.96 3269.77 1588.7 3271.26 1588.7 3272.57 1588.7 3273.78 1588.83 3274.87 1589.09 3275.96 1589.35 3277 1589.86 3278 1590.64 3278.33 1589.39 3278.6 1588.32 3278.8 1587.44 3279 1586.55 3279.16 1585.74 3279.29 1585 3279.42 1584.25 3279.48 1583.63 3279.48 1583.13 3279.48 1582.72 3279.43 1582.37 3279.32 1582.09 3279.21 1581.81 3279.02 1581.58 3278.74 1581.41 3278.46 1581.23 3278.07 1581.1 3277.56 1581.02 3277.06 1580.94 3276.42 1580.88 3275.64 1580.84L3276.03 1578.81Z" fill="#585858" fill-rule="evenodd"/><text fill="#000000" fill-opacity="0" font-family="Arial,Arial_MSFontService,sans-serif" font-size="41.1929" x="3180.77" y="1614.5">𝑅𝑒𝑑</text><path d="M3295.27 1612.2 3300.48 1612.2C3300.76 1613.59 3300.9 1614.96 3300.9 1616.31 3300.9 1617.7 3300.66 1618.97 3300.18 1620.13 3299.71 1621.28 3298.95 1622.43 3297.9 1623.57 3296.86 1624.71 3295.43 1625.96 3293.6 1627.33L3291.99 1625.52C3293 1624.56 3293.74 1623.71 3294.2 1622.94 3294.65 1622.18 3294.98 1621.31 3295.18 1620.34 3295.38 1619.36 3295.48 1618.14 3295.48 1616.67 3295.48 1615.16 3295.41 1613.67 3295.27 1612.2Z" fill="#585858" fill-rule="evenodd"/><text fill="#000000" fill-opacity="0" font-family="Arial,Arial_MSFontService,sans-serif" font-size="15.1309" x="3291.99" y="1625.44">,</text><path d="M3308.91 1599.4 3343.23 1599.4 3343.23 1603.95 3308.91 1603.95Z" fill="#585858" fill-rule="evenodd"/><text fill="#000000" fill-opacity="0" font-family="Arial,Arial_MSFontService,sans-serif" font-size="4.55713" x="3308.91" y="1603.38">−</text><path d="M3207.22 1538.9C3206.1 1538.9 3205.06 1539.15 3204.09 1539.64 3203.12 1540.14 3202.22 1540.82 3201.41 1541.7 3200.59 1542.57 3199.86 1543.6 3199.22 1544.8 3198.57 1545.99 3198.03 1547.27 3197.58 1548.64 3197.13 1550.01 3196.79 1551.44 3196.55 1552.93 3196.31 1554.42 3196.2 1555.91 3196.2 1557.39 3196.2 1559.68 3196.67 1561.36 3197.61 1562.44 3198.55 1563.53 3199.99 1564.07 3201.91 1564.07 3202.99 1564.07 3204 1563.8 3204.95 1563.28 3205.91 1562.75 3206.78 1562.04 3207.57 1561.15 3208.37 1560.25 3209.08 1559.21 3209.7 1558.01 3210.33 1556.8 3210.86 1555.52 3211.3 1554.15 3211.73 1552.78 3212.07 1551.36 3212.29 1549.9 3212.52 1548.44 3212.64 1547.02 3212.64 1545.63 3212.64 1543.43 3212.2 1541.75 3211.33 1540.61 3210.45 1539.47 3209.08 1538.9 3207.22 1538.9ZM3207.78 1535.95C3209.57 1535.95 3211.13 1536.24 3212.47 1536.81 3213.81 1537.39 3214.93 1538.17 3215.82 1539.15 3216.72 1540.13 3217.39 1541.29 3217.83 1542.62 3218.28 1543.95 3218.5 1545.37 3218.5 1546.88 3218.5 1549.9 3218.06 1552.63 3217.16 1555.09 3216.27 1557.54 3215.03 1559.64 3213.46 1561.4 3211.88 1563.16 3210.02 1564.51 3207.89 1565.47 3205.75 1566.42 3203.43 1566.9 3200.93 1566.9 3199.28 1566.9 3197.8 1566.65 3196.49 1566.15 3195.18 1565.65 3194.07 1564.94 3193.16 1564.01 3192.24 1563.07 3191.54 1561.95 3191.06 1560.63 3190.57 1559.31 3190.33 1557.81 3190.33 1556.14 3190.33 1553.32 3190.77 1550.69 3191.65 1548.24 3192.54 1545.78 3193.76 1543.65 3195.32 1541.83 3196.88 1540.01 3198.72 1538.58 3200.84 1537.53 3202.97 1536.48 3205.28 1535.95 3207.78 1535.95Z" fill="#585858" fill-rule="evenodd"/><text fill="#000000" fill-opacity="0" font-family="Arial,Arial_MSFontService,sans-serif" font-size="30.9468" x="3190.33" y="1563.03">𝑜</text></g></svg>