<svg width="1099" height="134" xmlns="http://www.w3.org/2000/svg" xmlns:xlink="http://www.w3.org/1999/xlink" xml:space="preserve" overflow="hidden"><defs><clipPath id="clip0"><rect x="2397" y="2066" width="1099" height="134"/></clipPath></defs><g clip-path="url(#clip0)" transform="translate(-2397 -2066)"><path d="M2671.98 2113.15 2656.54 2153.68 2684.74 2153.68ZM2670.56 2104.2 2676.56 2104.2 2693.66 2157.57 2693.66 2160.16 2649.36 2160.16 2649.36 2157.57Z" fill="#585858" fill-rule="evenodd"/><text fill="#000000" fill-opacity="0" font-family="Arial,Arial_MSFontService,sans-serif" font-size="55.9683" x="2649.36" y="2153.17">Δ</text><path d="M2709.49 2104.84 2746.78 2104.84 2743.98 2117.29 2740.09 2117.29C2739.98 2114.94 2739.78 2113.17 2739.48 2111.98 2739.19 2110.79 2738.83 2109.97 2738.41 2109.53 2737.99 2109.08 2737.49 2108.78 2736.91 2108.63 2736.33 2108.49 2735.5 2108.41 2734.42 2108.41L2721.21 2108.41 2716.59 2129.65 2724.33 2129.65C2726.25 2129.65 2727.71 2129.19 2728.72 2128.29 2729.74 2127.38 2730.76 2125.89 2731.78 2123.81L2735.47 2123.81 2731.82 2139.37 2728.38 2139.37C2728.38 2137.21 2728.24 2135.75 2727.97 2134.98 2727.7 2134.21 2727.31 2133.72 2726.78 2133.52 2726.25 2133.32 2725.3 2133.21 2723.92 2133.21L2715.82 2133.21 2710.63 2156.6 2722.62 2156.6C2724.22 2156.6 2725.48 2156.44 2726.41 2156.11 2727.35 2155.79 2728.22 2155.26 2729.05 2154.53 2729.87 2153.8 2730.7 2152.78 2731.52 2151.47 2732.34 2150.16 2733.32 2148.38 2734.46 2146.14L2738.39 2146.14 2734.82 2160.16 2698.88 2160.16 2699.32 2158.18C2700.35 2158.02 2701.12 2157.75 2701.63 2157.39 2702.15 2157.02 2702.58 2156.52 2702.93 2155.87 2703.28 2155.22 2703.6 2154.43 2703.9 2153.5 2704.2 2152.57 2704.64 2150.76 2705.24 2148.09L2712.13 2116.88C2712.72 2114.18 2713.02 2112 2713.02 2110.36 2713.02 2109.09 2712.7 2108.2 2712.07 2107.7 2711.43 2107.2 2710.43 2106.91 2709.05 2106.83Z" fill="#585858" fill-rule="evenodd"/><text fill="#000000" fill-opacity="0" font-family="Arial,Arial_MSFontService,sans-serif" font-size="55.3198" x="2698.88" y="2153.25">𝐸</text><path d="M2791.46 2153.72C2790.39 2153.72 2789.42 2153.93 2788.55 2154.36 2787.69 2154.78 2786.94 2155.41 2786.29 2156.22 2785.64 2157.03 2785.12 2158.03 2784.71 2159.21 2784.3 2160.39 2784.04 2161.73 2783.92 2163.22L2797.74 2163.22C2797.54 2159.98 2796.95 2157.59 2795.97 2156.04 2794.99 2154.49 2793.48 2153.72 2791.46 2153.72ZM2791.81 2150.77C2793.92 2150.77 2795.74 2151.09 2797.27 2151.74 2798.79 2152.38 2800.04 2153.27 2800.99 2154.4 2801.47 2154.96 2801.89 2155.59 2802.27 2156.31 2802.65 2157.02 2802.97 2157.85 2803.24 2158.8 2803.51 2159.74 2803.71 2160.82 2803.86 2162.03 2804.01 2163.24 2804.11 2164.62 2804.15 2166.17L2783.74 2166.17 2783.74 2166.44C2783.74 2170.19 2784.44 2173 2785.84 2174.86 2787.24 2176.73 2789.46 2177.66 2792.5 2177.66 2793.31 2177.66 2794.09 2177.58 2794.84 2177.41 2795.58 2177.24 2796.32 2176.98 2797.06 2176.62 2797.79 2176.26 2798.53 2175.8 2799.28 2175.24 2800.02 2174.67 2800.8 2174 2801.61 2173.23L2803.7 2175.7C2802.59 2176.79 2801.53 2177.72 2800.53 2178.48 2799.52 2179.25 2798.53 2179.87 2797.53 2180.35 2796.54 2180.82 2795.53 2181.17 2794.5 2181.39 2793.46 2181.61 2792.37 2181.72 2791.22 2181.72 2786.69 2181.72 2783.29 2180.42 2781 2177.83 2778.72 2175.24 2777.58 2171.42 2777.58 2166.38 2777.58 2164.05 2777.92 2161.93 2778.59 2160.02 2779.27 2158.1 2780.23 2156.46 2781.48 2155.09 2782.73 2153.72 2784.23 2152.66 2785.98 2151.9 2787.72 2151.15 2789.67 2150.77 2791.81 2150.77ZM2762.17 2150.77C2763.15 2150.77 2764.06 2150.8 2764.91 2150.86 2765.77 2150.92 2766.58 2151.01 2767.35 2151.13 2768.13 2151.25 2768.88 2151.39 2769.62 2151.56 2770.35 2151.73 2771.08 2151.91 2771.79 2152.11L2771.79 2158.9 2767.41 2158.9C2766.94 2157.05 2766.25 2155.73 2765.36 2154.92 2764.47 2154.12 2763.22 2153.72 2761.64 2153.72 2760.48 2153.72 2759.44 2153.99 2758.49 2154.52 2757.55 2155.06 2756.75 2155.84 2756.08 2156.87 2755.42 2157.91 2754.9 2159.18 2754.53 2160.7 2754.17 2162.22 2753.98 2163.96 2753.98 2165.93 2753.98 2167.82 2754.13 2169.49 2754.41 2170.95 2754.7 2172.41 2755.16 2173.63 2755.8 2174.63 2756.43 2175.62 2757.25 2176.37 2758.26 2176.89 2759.26 2177.41 2760.46 2177.66 2761.87 2177.66 2763.36 2177.66 2764.77 2177.35 2766.09 2176.73 2767.41 2176.1 2768.78 2175.08 2770.21 2173.67 2770.51 2174.07 2770.83 2174.45 2771.18 2174.82 2771.53 2175.19 2771.85 2175.56 2772.15 2175.94 2771.14 2177.01 2770.16 2177.91 2769.23 2178.65 2768.3 2179.38 2767.36 2179.98 2766.42 2180.43 2765.47 2180.89 2764.5 2181.22 2763.48 2181.42 2762.47 2181.62 2761.38 2181.72 2760.21 2181.72 2756.14 2181.72 2753.01 2180.4 2750.84 2177.78 2748.66 2175.16 2747.58 2171.36 2747.58 2166.38 2747.58 2164.05 2747.93 2161.93 2748.64 2160.02 2749.34 2158.1 2750.33 2156.46 2751.61 2155.09 2752.89 2153.72 2754.43 2152.66 2756.23 2151.9 2758.03 2151.15 2760.01 2150.77 2762.17 2150.77ZM2837.16 2137.84 2839.33 2137.84 2839.33 2173.58C2839.33 2174.78 2839.36 2175.69 2839.41 2176.32 2839.46 2176.96 2839.6 2177.45 2839.84 2177.8 2840.08 2178.15 2840.44 2178.41 2840.91 2178.59 2841.39 2178.77 2842.05 2178.99 2842.91 2179.27L2842.91 2181.18 2829.77 2181.18 2829.77 2179.27C2830.71 2178.99 2831.43 2178.76 2831.93 2178.56 2832.44 2178.36 2832.81 2178.08 2833.03 2177.72 2833.26 2177.37 2833.39 2176.88 2833.42 2176.25 2833.45 2175.62 2833.47 2174.74 2833.47 2173.58L2833.47 2148.3C2833.47 2146.83 2833.45 2145.71 2833.41 2144.93 2833.37 2144.16 2833.31 2143.53 2833.23 2143.05 2833.15 2142.68 2833.05 2142.34 2832.95 2142.06 2832.84 2141.77 2832.65 2141.51 2832.38 2141.28 2832.11 2141.05 2831.73 2140.85 2831.23 2140.69 2830.74 2140.52 2830.07 2140.36 2829.24 2140.22L2829.24 2138.26ZM2818.16 2137.84 2820.33 2137.84 2820.33 2173.58C2820.33 2174.78 2820.36 2175.69 2820.41 2176.32 2820.46 2176.96 2820.6 2177.45 2820.84 2177.8 2821.08 2178.15 2821.44 2178.41 2821.91 2178.59 2822.39 2178.77 2823.05 2178.99 2823.91 2179.27L2823.91 2181.18 2810.77 2181.18 2810.77 2179.27C2811.71 2178.99 2812.43 2178.76 2812.93 2178.56 2813.44 2178.36 2813.81 2178.08 2814.03 2177.72 2814.26 2177.37 2814.39 2176.88 2814.42 2176.25 2814.45 2175.62 2814.47 2174.74 2814.47 2173.58L2814.47 2148.3C2814.47 2146.83 2814.45 2145.71 2814.41 2144.93 2814.37 2144.16 2814.31 2143.53 2814.23 2143.05 2814.15 2142.68 2814.05 2142.34 2813.95 2142.06 2813.84 2141.77 2813.65 2141.51 2813.38 2141.28 2813.11 2141.05 2812.73 2140.85 2812.23 2140.69 2811.74 2140.52 2811.07 2140.36 2810.24 2140.22L2810.24 2138.26Z" fill="#585858" fill-rule="evenodd"/><text fill="#000000" fill-opacity="0" font-family="Arial,Arial_MSFontService,sans-serif" font-size="43.8735" x="2747.58" y="2176.23">cell</text><path d="M2772.12 2098.33C2771.01 2098.33 2769.97 2098.58 2768.99 2099.07 2768.02 2099.57 2767.13 2100.25 2766.31 2101.13 2765.5 2102 2764.77 2103.03 2764.12 2104.23 2763.48 2105.42 2762.93 2106.7 2762.48 2108.07 2762.04 2109.44 2761.7 2110.87 2761.46 2112.36 2761.22 2113.85 2761.1 2115.33 2761.1 2116.82 2761.1 2119.11 2761.57 2120.79 2762.51 2121.87 2763.46 2122.96 2764.89 2123.5 2766.82 2123.5 2767.89 2123.5 2768.9 2123.23 2769.86 2122.71 2770.81 2122.18 2771.68 2121.47 2772.48 2120.58 2773.27 2119.68 2773.98 2118.64 2774.61 2117.43 2775.23 2116.23 2775.76 2114.95 2776.2 2113.58 2776.64 2112.21 2776.97 2110.79 2777.2 2109.33 2777.43 2107.87 2777.54 2106.45 2777.54 2105.06 2777.54 2102.85 2777.1 2101.18 2776.23 2100.04 2775.36 2098.9 2773.99 2098.33 2772.12 2098.33ZM2772.69 2095.38C2774.47 2095.38 2776.04 2095.67 2777.38 2096.24 2778.72 2096.82 2779.83 2097.6 2780.73 2098.58 2781.62 2099.56 2782.29 2100.72 2782.74 2102.05 2783.19 2103.38 2783.41 2104.8 2783.41 2106.31 2783.41 2109.33 2782.96 2112.06 2782.07 2114.52 2781.17 2116.97 2779.94 2119.07 2778.36 2120.83 2776.78 2122.59 2774.92 2123.94 2772.79 2124.9 2770.66 2125.85 2768.34 2126.33 2765.84 2126.33 2764.19 2126.33 2762.71 2126.08 2761.4 2125.58 2760.09 2125.08 2758.97 2124.37 2758.06 2123.44 2757.15 2122.5 2756.45 2121.38 2755.96 2120.06 2755.47 2118.74 2755.23 2117.24 2755.23 2115.57 2755.23 2112.75 2755.67 2110.12 2756.56 2107.67 2757.44 2105.21 2758.66 2103.08 2760.22 2101.26 2761.78 2099.44 2763.62 2098.01 2765.75 2096.96 2767.87 2095.91 2770.18 2095.38 2772.69 2095.38Z" fill="#585858" fill-rule="evenodd"/><text fill="#000000" fill-opacity="0" font-family="Arial,Arial_MSFontService,sans-serif" font-size="30.9468" x="2755.23" y="2122.46">𝑜</text><path d="M2877.48 2142.17 2927.41 2142.17 2927.41 2147.56 2877.48 2147.56ZM2877.48 2125.35 2927.41 2125.35 2927.41 2130.74 2877.48 2130.74Z" fill="#585858" fill-rule="evenodd"/><text fill="#000000" fill-opacity="0" font-family="Arial,Arial_MSFontService,sans-serif" font-size="22.209" x="2877.48" y="2144.78">=</text><path d="M2969.16 2104.84 3006.45 2104.84 3003.65 2117.29 2999.76 2117.29C2999.65 2114.94 2999.45 2113.17 2999.15 2111.98 2998.86 2110.79 2998.5 2109.97 2998.08 2109.53 2997.66 2109.08 2997.16 2108.78 2996.58 2108.63 2996 2108.49 2995.17 2108.41 2994.09 2108.41L2980.88 2108.41 2976.26 2129.65 2984 2129.65C2985.91 2129.65 2987.38 2129.19 2988.39 2128.29 2989.41 2127.38 2990.43 2125.89 2991.45 2123.81L2995.14 2123.81 2991.49 2139.37 2988.05 2139.37C2988.05 2137.21 2987.91 2135.75 2987.64 2134.98 2987.37 2134.21 2986.97 2133.72 2986.45 2133.52 2985.92 2133.32 2984.97 2133.21 2983.59 2133.21L2975.49 2133.21 2970.3 2156.6 2982.29 2156.6C2983.89 2156.6 2985.15 2156.44 2986.08 2156.11 2987.02 2155.79 2987.89 2155.26 2988.72 2154.53 2989.54 2153.8 2990.37 2152.78 2991.19 2151.47 2992.01 2150.16 2992.99 2148.38 2994.13 2146.14L2998.06 2146.14 2994.49 2160.16 2958.54 2160.16 2958.99 2158.18C2960.02 2158.02 2960.79 2157.75 2961.3 2157.39 2961.81 2157.02 2962.25 2156.52 2962.6 2155.87 2962.95 2155.22 2963.27 2154.43 2963.57 2153.5 2963.87 2152.57 2964.31 2150.76 2964.91 2148.09L2971.8 2116.88C2972.39 2114.18 2972.69 2112 2972.69 2110.36 2972.69 2109.09 2972.37 2108.2 2971.74 2107.7 2971.1 2107.2 2970.09 2106.91 2968.72 2106.83Z" fill="#585858" fill-rule="evenodd"/><text fill="#000000" fill-opacity="0" font-family="Arial,Arial_MSFontService,sans-serif" font-size="55.3198" x="2958.54" y="2153.25">𝐸</text><path d="M3023.15 2141.88 3027.98 2141.88 3027.98 2157.54 3042.72 2157.54 3042.72 2162.1 3027.98 2162.1 3027.98 2177.77 3023.15 2177.77 3023.15 2162.1 3008.41 2162.1 3008.41 2157.54 3023.15 2157.54Z" fill="#585858" fill-rule="evenodd"/><text fill="#000000" fill-opacity="0" font-family="Arial,Arial_MSFontService,sans-serif" font-size="35.8911" x="3008.41" y="2173.28">+</text><path d="M3031.79 2101.35C3030.68 2101.35 3029.63 2101.6 3028.66 2102.1 3027.69 2102.59 3026.79 2103.28 3025.98 2104.15 3025.17 2105.03 3024.44 2106.06 3023.79 2107.25 3023.15 2108.44 3022.6 2109.72 3022.15 2111.09 3021.71 2112.46 3021.36 2113.89 3021.13 2115.38 3020.89 2116.87 3020.77 2118.36 3020.77 2119.85 3020.77 2122.13 3021.24 2123.82 3022.18 2124.9 3023.13 2125.98 3024.56 2126.52 3026.49 2126.52 3027.56 2126.52 3028.57 2126.26 3029.52 2125.73 3030.48 2125.21 3031.35 2124.5 3032.15 2123.6 3032.94 2122.71 3033.65 2121.66 3034.28 2120.46 3034.9 2119.26 3035.43 2117.97 3035.87 2116.6 3036.31 2115.23 3036.64 2113.82 3036.87 2112.36 3037.1 2110.9 3037.21 2109.47 3037.21 2108.08 3037.21 2105.88 3036.77 2104.21 3035.9 2103.07 3035.03 2101.92 3033.66 2101.35 3031.79 2101.35ZM3032.35 2098.4C3034.14 2098.4 3035.71 2098.69 3037.05 2099.27 3038.39 2099.84 3039.5 2100.62 3040.4 2101.61 3041.29 2102.59 3041.96 2103.75 3042.41 2105.08 3042.85 2106.41 3043.08 2107.83 3043.08 2109.34 3043.08 2112.35 3042.63 2115.09 3041.74 2117.54 3040.84 2119.99 3039.61 2122.1 3038.03 2123.86 3036.45 2125.61 3034.59 2126.97 3032.46 2127.92 3030.32 2128.87 3028.01 2129.35 3025.5 2129.35 3023.86 2129.35 3022.38 2129.1 3021.07 2128.61 3019.76 2128.11 3018.64 2127.4 3017.73 2126.46 3016.82 2125.53 3016.12 2124.4 3015.63 2123.08 3015.14 2121.76 3014.9 2120.27 3014.9 2118.6 3014.9 2115.78 3015.34 2113.14 3016.23 2110.69 3017.11 2108.24 3018.33 2106.1 3019.89 2104.29 3021.45 2102.47 3023.29 2101.04 3025.41 2099.98 3027.54 2098.93 3029.85 2098.4 3032.35 2098.4Z" fill="#585858" fill-rule="evenodd"/><text fill="#000000" fill-opacity="0" font-family="Arial,Arial_MSFontService,sans-serif" font-size="30.9468" x="3014.9" y="2125.48">𝑜</text><path d="M3075.67 2133.74 3125.59 2133.74 3125.59 2139.13 3075.67 2139.13Z" fill="#585858" fill-rule="evenodd"/><text fill="#000000" fill-opacity="0" font-family="Arial,Arial_MSFontService,sans-serif" font-size="5.39014" x="3075.67" y="2138.46">−</text><path d="M3162.76 2104.84 3200.05 2104.84 3197.25 2117.29 3193.36 2117.29C3193.25 2114.94 3193.05 2113.17 3192.75 2111.98 3192.46 2110.79 3192.1 2109.97 3191.68 2109.53 3191.26 2109.08 3190.76 2108.78 3190.18 2108.63 3189.6 2108.49 3188.77 2108.41 3187.69 2108.41L3174.48 2108.41 3169.86 2129.65 3177.6 2129.65C3179.51 2129.65 3180.98 2129.19 3181.99 2128.29 3183.01 2127.38 3184.03 2125.89 3185.05 2123.81L3188.74 2123.81 3185.09 2139.37 3181.65 2139.37C3181.65 2137.21 3181.51 2135.75 3181.24 2134.98 3180.97 2134.21 3180.57 2133.72 3180.05 2133.52 3179.52 2133.32 3178.57 2133.21 3177.19 2133.21L3169.09 2133.21 3163.9 2156.6 3175.89 2156.6C3177.49 2156.6 3178.75 2156.44 3179.68 2156.11 3180.62 2155.79 3181.49 2155.26 3182.32 2154.53 3183.14 2153.8 3183.97 2152.78 3184.79 2151.47 3185.61 2150.16 3186.59 2148.38 3187.73 2146.14L3191.66 2146.14 3188.09 2160.16 3152.14 2160.16 3152.59 2158.18C3153.62 2158.02 3154.39 2157.75 3154.9 2157.39 3155.41 2157.02 3155.85 2156.52 3156.2 2155.87 3156.55 2155.22 3156.87 2154.43 3157.17 2153.5 3157.47 2152.57 3157.91 2150.76 3158.51 2148.09L3165.4 2116.88C3165.99 2114.18 3166.29 2112 3166.29 2110.36 3166.29 2109.09 3165.97 2108.2 3165.34 2107.7 3164.7 2107.2 3163.7 2106.91 3162.32 2106.83Z" fill="#585858" fill-rule="evenodd"/><text fill="#000000" fill-opacity="0" font-family="Arial,Arial_MSFontService,sans-serif" font-size="55.3198" x="3152.14" y="2153.25">𝐸</text><path d="M3202.01 2157.29 3236.32 2157.29 3236.32 2161.85 3202.01 2161.85Z" fill="#585858" fill-rule="evenodd"/><text fill="#000000" fill-opacity="0" font-family="Arial,Arial_MSFontService,sans-serif" font-size="4.55713" x="3202.01" y="2161.28">−</text><path d="M3225.39 2102.5C3224.28 2102.5 3223.23 2102.75 3222.26 2103.24 3221.29 2103.74 3220.39 2104.42 3219.58 2105.3 3218.77 2106.17 3218.04 2107.2 3217.39 2108.4 3216.75 2109.59 3216.2 2110.87 3215.75 2112.24 3215.31 2113.61 3214.96 2115.04 3214.73 2116.53 3214.49 2118.02 3214.37 2119.51 3214.37 2121 3214.37 2123.28 3214.84 2124.96 3215.78 2126.04 3216.73 2127.13 3218.16 2127.67 3220.09 2127.67 3221.16 2127.67 3222.17 2127.4 3223.12 2126.88 3224.08 2126.35 3224.95 2125.64 3225.75 2124.75 3226.54 2123.85 3227.25 2122.81 3227.88 2121.61 3228.5 2120.4 3229.03 2119.12 3229.47 2117.75 3229.91 2116.38 3230.24 2114.96 3230.47 2113.5 3230.7 2112.04 3230.81 2110.62 3230.81 2109.23 3230.81 2107.03 3230.37 2105.35 3229.5 2104.21 3228.63 2103.07 3227.26 2102.5 3225.39 2102.5ZM3225.95 2099.55C3227.74 2099.55 3229.31 2099.84 3230.65 2100.41 3231.99 2100.99 3233.1 2101.77 3234 2102.75 3234.89 2103.73 3235.56 2104.89 3236.01 2106.22 3236.45 2107.55 3236.68 2108.97 3236.68 2110.48 3236.68 2113.5 3236.23 2116.23 3235.34 2118.69 3234.44 2121.14 3233.21 2123.24 3231.63 2125 3230.05 2126.76 3228.19 2128.11 3226.06 2129.07 3223.92 2130.02 3221.61 2130.5 3219.1 2130.5 3217.46 2130.5 3215.98 2130.25 3214.67 2129.75 3213.36 2129.26 3212.24 2128.54 3211.33 2127.61 3210.42 2126.67 3209.72 2125.55 3209.23 2124.23 3208.74 2122.91 3208.5 2121.41 3208.5 2119.74 3208.5 2116.92 3208.94 2114.29 3209.83 2111.84 3210.71 2109.38 3211.93 2107.25 3213.49 2105.43 3215.05 2103.62 3216.89 2102.18 3219.01 2101.13 3221.14 2100.08 3223.45 2099.55 3225.95 2099.55Z" fill="#585858" fill-rule="evenodd"/><text fill="#000000" fill-opacity="0" font-family="Arial,Arial_MSFontService,sans-serif" font-size="30.9468" x="3208.5" y="2126.63">𝑜</text></g></svg>