<svg width="1099" height="134" xmlns="http://www.w3.org/2000/svg" xmlns:xlink="http://www.w3.org/1999/xlink" xml:space="preserve" overflow="hidden"><defs><clipPath id="clip0"><rect x="2397" y="1744" width="1099" height="134"/></clipPath></defs><g clip-path="url(#clip0)" transform="translate(-2397 -1744)"><path d="M2669.11 1791.47 2653.67 1832 2681.88 1832ZM2667.69 1782.52 2673.69 1782.52 2690.79 1835.89 2690.79 1838.49 2646.5 1838.49 2646.5 1835.89Z" fill="#585858" fill-rule="evenodd"/><text fill="#000000" fill-opacity="0" font-family="Arial,Arial_MSFontService,sans-serif" font-size="55.9683" x="2646.5" y="1831.49">Δ</text><path d="M2706.63 1783.17 2743.91 1783.17 2741.12 1795.61 2737.23 1795.61C2737.12 1793.26 2736.92 1791.49 2736.62 1790.3 2736.32 1789.11 2735.96 1788.29 2735.55 1787.85 2735.13 1787.4 2734.63 1787.1 2734.05 1786.96 2733.47 1786.81 2732.63 1786.73 2731.55 1786.73L2718.34 1786.73 2713.72 1807.97 2721.46 1807.97C2723.38 1807.97 2724.85 1807.52 2725.86 1806.61 2726.87 1805.71 2727.89 1804.21 2728.92 1802.13L2732.61 1802.13 2728.96 1817.7 2725.52 1817.7C2725.52 1815.53 2725.38 1814.07 2725.11 1813.3 2724.84 1812.53 2724.44 1812.04 2723.91 1811.84 2723.39 1811.64 2722.44 1811.54 2721.06 1811.54L2712.95 1811.54 2707.76 1834.92 2719.76 1834.92C2721.35 1834.92 2722.62 1834.76 2723.55 1834.43 2724.48 1834.11 2725.36 1833.58 2726.18 1832.85 2727.01 1832.12 2727.83 1831.1 2728.66 1829.79 2729.48 1828.48 2730.46 1826.71 2731.59 1824.46L2735.53 1824.46 2731.96 1838.49 2696.01 1838.49 2696.46 1836.5C2697.48 1836.34 2698.25 1836.08 2698.77 1835.71 2699.28 1835.35 2699.71 1834.84 2700.06 1834.19 2700.42 1833.54 2700.74 1832.75 2701.04 1831.82 2701.33 1830.89 2701.78 1829.08 2702.37 1826.41L2709.26 1795.2C2709.86 1792.5 2710.16 1790.33 2710.16 1788.68 2710.16 1787.41 2709.84 1786.52 2709.2 1786.02 2708.57 1785.52 2707.56 1785.23 2706.18 1785.15Z" fill="#585858" fill-rule="evenodd"/><text fill="#000000" fill-opacity="0" font-family="Arial,Arial_MSFontService,sans-serif" font-size="55.3198" x="2696.01" y="1831.57">𝐸</text><path d="M2794.59 1832.04C2793.52 1832.04 2792.55 1832.25 2791.69 1832.68 2790.83 1833.11 2790.07 1833.73 2789.43 1834.54 2788.78 1835.36 2788.25 1836.35 2787.85 1837.53 2787.44 1838.72 2787.18 1840.05 2787.06 1841.54L2800.88 1841.54C2800.68 1838.3 2800.09 1835.91 2799.11 1834.36 2798.12 1832.81 2796.62 1832.04 2794.59 1832.04ZM2794.95 1829.09C2797.06 1829.09 2798.87 1829.41 2800.4 1830.06 2801.93 1830.7 2803.17 1831.59 2804.12 1832.72 2804.6 1833.28 2805.03 1833.92 2805.41 1834.63 2805.78 1835.35 2806.1 1836.17 2806.37 1837.12 2806.64 1838.06 2806.85 1839.14 2807 1840.35 2807.15 1841.56 2807.24 1842.94 2807.28 1844.49L2786.88 1844.49 2786.88 1844.76C2786.88 1848.51 2787.58 1851.32 2788.98 1853.19 2790.38 1855.05 2792.6 1855.99 2795.64 1855.99 2796.45 1855.99 2797.23 1855.9 2797.97 1855.73 2798.72 1855.56 2799.46 1855.3 2800.19 1854.94 2800.93 1854.59 2801.67 1854.12 2802.41 1853.56 2803.16 1852.99 2803.94 1852.32 2804.75 1851.55L2806.83 1854.02C2805.72 1855.11 2804.67 1856.04 2803.66 1856.81 2802.66 1857.57 2801.66 1858.19 2800.67 1858.67 2799.68 1859.14 2798.66 1859.49 2797.63 1859.71 2796.6 1859.93 2795.51 1860.04 2794.35 1860.04 2789.83 1860.04 2786.42 1858.74 2784.14 1856.15 2781.85 1853.56 2780.71 1849.74 2780.71 1844.7 2780.71 1842.37 2781.05 1840.25 2781.73 1838.34 2782.4 1836.42 2783.36 1834.78 2784.61 1833.41 2785.87 1832.04 2787.37 1830.98 2789.11 1830.22 2790.86 1829.47 2792.81 1829.09 2794.95 1829.09ZM2744.59 1818.84 2774.17 1818.84 2774.17 1820.72C2770.52 1826.7 2766.87 1832.61 2763.24 1838.47 2759.61 1844.33 2755.96 1850.23 2752.31 1856.17L2763.6 1856.17C2764.77 1856.17 2765.72 1856.1 2766.46 1855.96 2767.19 1855.82 2767.81 1855.47 2768.3 1854.93 2768.8 1854.38 2769.24 1853.56 2769.63 1852.47 2770.02 1851.38 2770.46 1849.88 2770.95 1847.97L2774.35 1847.97 2774.35 1859.5 2744.18 1859.5 2744.18 1857.59C2747.81 1851.68 2751.44 1845.78 2755.08 1839.9 2758.71 1834.02 2762.35 1828.13 2765.98 1822.21L2754.66 1822.21C2753.83 1822.21 2753.11 1822.29 2752.52 1822.45 2751.92 1822.61 2751.38 1822.94 2750.88 1823.46 2750.38 1823.98 2749.91 1824.73 2749.46 1825.72 2749.02 1826.72 2748.55 1828.05 2748.05 1829.72L2744.59 1829.72ZM2839.3 1816.16 2841.47 1816.16 2841.47 1851.91C2841.47 1853.1 2841.49 1854.01 2841.54 1854.65 2841.59 1855.28 2841.74 1855.77 2841.98 1856.12 2842.21 1856.47 2842.57 1856.73 2843.05 1856.91 2843.53 1857.09 2844.19 1857.32 2845.04 1857.59L2845.04 1859.5 2831.91 1859.5 2831.91 1857.59C2832.84 1857.32 2833.56 1857.08 2834.07 1856.88 2834.57 1856.68 2834.94 1856.4 2835.17 1856.05 2835.4 1855.69 2835.53 1855.2 2835.56 1854.57 2835.59 1853.95 2835.6 1853.06 2835.6 1851.91L2835.6 1826.62C2835.6 1825.15 2835.58 1824.03 2835.54 1823.25 2835.5 1822.48 2835.44 1821.85 2835.36 1821.38 2835.28 1821 2835.19 1820.67 2835.08 1820.38 2834.97 1820.09 2834.78 1819.83 2834.52 1819.6 2834.25 1819.38 2833.86 1819.18 2833.37 1819.01 2832.87 1818.84 2832.21 1818.69 2831.37 1818.55L2831.37 1816.58ZM2820.3 1816.16 2822.47 1816.16 2822.47 1851.91C2822.47 1853.1 2822.49 1854.01 2822.54 1854.65 2822.59 1855.28 2822.74 1855.77 2822.98 1856.12 2823.21 1856.47 2823.57 1856.73 2824.05 1856.91 2824.53 1857.09 2825.19 1857.32 2826.04 1857.59L2826.04 1859.5 2812.91 1859.5 2812.91 1857.59C2813.84 1857.32 2814.56 1857.08 2815.07 1856.88 2815.57 1856.68 2815.94 1856.4 2816.17 1856.05 2816.4 1855.69 2816.53 1855.2 2816.56 1854.57 2816.59 1853.95 2816.6 1853.06 2816.6 1851.91L2816.6 1826.62C2816.6 1825.15 2816.58 1824.03 2816.54 1823.25 2816.5 1822.48 2816.44 1821.85 2816.36 1821.38 2816.28 1821 2816.19 1820.67 2816.08 1820.38 2815.97 1820.09 2815.78 1819.83 2815.52 1819.6 2815.25 1819.38 2814.86 1819.18 2814.37 1819.01 2813.87 1818.84 2813.21 1818.69 2812.37 1818.55L2812.37 1816.58Z" fill="#585858" fill-rule="evenodd"/><text fill="#000000" fill-opacity="0" font-family="Arial,Arial_MSFontService,sans-serif" font-size="43.8735" x="2744.18" y="1854.55">Zell</text><path d="M2769.26 1776.65C2768.14 1776.65 2767.1 1776.9 2766.13 1777.39 2765.16 1777.89 2764.26 1778.58 2763.45 1779.45 2762.63 1780.32 2761.9 1781.36 2761.26 1782.55 2760.61 1783.74 2760.07 1785.02 2759.62 1786.39 2759.17 1787.76 2758.83 1789.19 2758.59 1790.68 2758.35 1792.17 2758.23 1793.66 2758.23 1795.15 2758.23 1797.43 2758.71 1799.11 2759.65 1800.19 2760.59 1801.28 2762.03 1801.82 2763.95 1801.82 2765.03 1801.82 2766.04 1801.55 2766.99 1801.03 2767.94 1800.5 2768.82 1799.79 2769.61 1798.9 2770.41 1798.01 2771.12 1796.96 2771.74 1795.76 2772.37 1794.56 2772.9 1793.27 2773.34 1791.9 2773.77 1790.53 2774.11 1789.11 2774.33 1787.66 2774.56 1786.2 2774.68 1784.77 2774.68 1783.38 2774.68 1781.18 2774.24 1779.5 2773.37 1778.36 2772.49 1777.22 2771.12 1776.65 2769.26 1776.65ZM2769.82 1773.7C2771.61 1773.7 2773.17 1773.99 2774.51 1774.56 2775.85 1775.14 2776.97 1775.92 2777.86 1776.9 2778.76 1777.89 2779.43 1779.04 2779.87 1780.37 2780.32 1781.7 2780.54 1783.12 2780.54 1784.63 2780.54 1787.65 2780.1 1790.39 2779.2 1792.84 2778.31 1795.29 2777.07 1797.39 2775.5 1799.15 2773.92 1800.91 2772.06 1802.26 2769.93 1803.22 2767.79 1804.17 2765.47 1804.65 2762.97 1804.65 2761.32 1804.65 2759.84 1804.4 2758.53 1803.9 2757.22 1803.41 2756.11 1802.69 2755.2 1801.76 2754.28 1800.83 2753.58 1799.7 2753.1 1798.38 2752.61 1797.06 2752.37 1795.56 2752.37 1793.9 2752.37 1791.08 2752.81 1788.44 2753.69 1785.99 2754.58 1783.53 2755.8 1781.4 2757.36 1779.58 2758.92 1777.77 2760.76 1776.33 2762.88 1775.28 2765.01 1774.23 2767.32 1773.7 2769.82 1773.7Z" fill="#585858" fill-rule="evenodd"/><text fill="#000000" fill-opacity="0" font-family="Arial,Arial_MSFontService,sans-serif" font-size="30.9468" x="2752.37" y="1800.78">𝑜</text><path d="M2880.35 1820.49 2930.28 1820.49 2930.28 1825.88 2880.35 1825.88ZM2880.35 1803.67 2930.28 1803.67 2930.28 1809.06 2880.35 1809.06Z" fill="#585858" fill-rule="evenodd"/><text fill="#000000" fill-opacity="0" font-family="Arial,Arial_MSFontService,sans-serif" font-size="22.209" x="2880.35" y="1823.11">=</text><path d="M2972.03 1783.17 3009.31 1783.17 3006.52 1795.61 3002.63 1795.61C3002.52 1793.26 3002.31 1791.49 3002.02 1790.3 3001.72 1789.11 3001.36 1788.29 3000.94 1787.85 3000.53 1787.4 3000.03 1787.1 2999.44 1786.96 2998.86 1786.81 2998.03 1786.73 2996.95 1786.73L2983.74 1786.73 2979.12 1807.97 2986.86 1807.97C2988.78 1807.97 2990.24 1807.52 2991.26 1806.61 2992.27 1805.71 2993.29 1804.21 2994.32 1802.13L2998.01 1802.13 2994.36 1817.7 2990.91 1817.7C2990.91 1815.53 2990.78 1814.07 2990.51 1813.3 2990.24 1812.53 2989.84 1812.04 2989.31 1811.84 2988.79 1811.64 2987.83 1811.54 2986.46 1811.54L2978.35 1811.54 2973.16 1834.92 2985.16 1834.92C2986.75 1834.92 2988.02 1834.76 2988.95 1834.43 2989.88 1834.11 2990.76 1833.58 2991.58 1832.85 2992.41 1832.12 2993.23 1831.1 2994.05 1829.79 2994.88 1828.48 2995.86 1826.71 2996.99 1824.46L3000.92 1824.46 2997.36 1838.49 2961.41 1838.49 2961.86 1836.5C2962.88 1836.34 2963.65 1836.08 2964.17 1835.71 2964.68 1835.35 2965.11 1834.84 2965.46 1834.19 2965.81 1833.54 2966.14 1832.75 2966.43 1831.82 2966.73 1830.89 2967.18 1829.08 2967.77 1826.41L2974.66 1795.2C2975.26 1792.5 2975.55 1790.33 2975.55 1788.68 2975.55 1787.41 2975.24 1786.52 2974.6 1786.02 2973.97 1785.52 2972.96 1785.23 2971.58 1785.15Z" fill="#585858" fill-rule="evenodd"/><text fill="#000000" fill-opacity="0" font-family="Arial,Arial_MSFontService,sans-serif" font-size="55.3198" x="2961.41" y="1831.57">𝐸</text><path d="M3026.02 1820.2 3030.84 1820.2 3030.84 1835.86 3045.58 1835.86 3045.58 1840.42 3030.84 1840.42 3030.84 1856.09 3026.02 1856.09 3026.02 1840.42 3011.27 1840.42 3011.27 1835.86 3026.02 1835.86Z" fill="#585858" fill-rule="evenodd"/><text fill="#000000" fill-opacity="0" font-family="Arial,Arial_MSFontService,sans-serif" font-size="35.8911" x="3011.27" y="1851.6">+</text><path d="M3034.65 1779.67C3033.54 1779.67 3032.5 1779.92 3031.53 1780.42 3030.55 1780.92 3029.66 1781.6 3028.85 1782.47 3028.03 1783.35 3027.3 1784.38 3026.66 1785.57 3026.01 1786.76 3025.46 1788.04 3025.02 1789.41 3024.57 1790.78 3024.23 1792.21 3023.99 1793.7 3023.75 1795.19 3023.63 1796.68 3023.63 1798.17 3023.63 1800.45 3024.1 1802.14 3025.05 1803.22 3025.99 1804.3 3027.43 1804.84 3029.35 1804.84 3030.42 1804.84 3031.44 1804.58 3032.39 1804.05 3033.34 1803.53 3034.22 1802.82 3035.01 1801.92 3035.8 1801.03 3036.51 1799.98 3037.14 1798.78 3037.77 1797.58 3038.3 1796.29 3038.73 1794.92 3039.17 1793.55 3039.5 1792.14 3039.73 1790.68 3039.96 1789.22 3040.07 1787.8 3040.07 1786.41 3040.07 1784.2 3039.64 1782.53 3038.76 1781.39 3037.89 1780.25 3036.52 1779.67 3034.65 1779.67ZM3035.22 1776.73C3037.01 1776.73 3038.57 1777.01 3039.91 1777.59 3041.25 1778.17 3042.37 1778.94 3043.26 1779.93 3044.15 1780.91 3044.82 1782.07 3045.27 1783.4 3045.72 1784.73 3045.94 1786.15 3045.94 1787.66 3045.94 1790.68 3045.5 1793.41 3044.6 1795.86 3043.71 1798.32 3042.47 1800.42 3040.89 1802.18 3039.31 1803.93 3037.46 1805.29 3035.32 1806.24 3033.19 1807.2 3030.87 1807.67 3028.37 1807.67 3026.72 1807.67 3025.24 1807.42 3023.93 1806.93 3022.62 1806.43 3021.51 1805.72 3020.59 1804.78 3019.68 1803.85 3018.98 1802.72 3018.49 1801.4 3018.01 1800.08 3017.77 1798.59 3017.77 1796.92 3017.77 1794.1 3018.21 1791.46 3019.09 1789.01 3019.97 1786.56 3021.2 1784.43 3022.75 1782.61 3024.31 1780.79 3026.15 1779.36 3028.28 1778.3 3030.4 1777.25 3032.72 1776.73 3035.22 1776.73Z" fill="#585858" fill-rule="evenodd"/><text fill="#000000" fill-opacity="0" font-family="Arial,Arial_MSFontService,sans-serif" font-size="30.9468" x="3017.77" y="1803.8">𝑜</text><path d="M3078.53 1812.06 3128.46 1812.06 3128.46 1817.45 3078.53 1817.45Z" fill="#585858" fill-rule="evenodd"/><text fill="#000000" fill-opacity="0" font-family="Arial,Arial_MSFontService,sans-serif" font-size="5.39014" x="3078.53" y="1816.78">−</text><path d="M3165.63 1783.17 3202.91 1783.17 3200.12 1795.61 3196.23 1795.61C3196.12 1793.26 3195.91 1791.49 3195.62 1790.3 3195.32 1789.11 3194.96 1788.29 3194.54 1787.85 3194.12 1787.4 3193.62 1787.1 3193.04 1786.96 3192.46 1786.81 3191.63 1786.73 3190.55 1786.73L3177.34 1786.73 3172.72 1807.97 3180.46 1807.97C3182.38 1807.97 3183.84 1807.52 3184.86 1806.61 3185.87 1805.71 3186.89 1804.21 3187.92 1802.13L3191.61 1802.13 3187.96 1817.7 3184.51 1817.7C3184.51 1815.53 3184.38 1814.07 3184.11 1813.3 3183.84 1812.53 3183.44 1812.04 3182.91 1811.84 3182.39 1811.64 3181.43 1811.54 3180.06 1811.54L3171.95 1811.54 3166.76 1834.92 3178.76 1834.92C3180.35 1834.92 3181.62 1834.76 3182.55 1834.43 3183.48 1834.11 3184.36 1833.58 3185.18 1832.85 3186.01 1832.12 3186.83 1831.1 3187.65 1829.79 3188.48 1828.48 3189.46 1826.71 3190.59 1824.46L3194.52 1824.46 3190.96 1838.49 3155.01 1838.49 3155.46 1836.5C3156.48 1836.34 3157.25 1836.08 3157.77 1835.71 3158.28 1835.35 3158.71 1834.84 3159.06 1834.19 3159.41 1833.54 3159.74 1832.75 3160.03 1831.82 3160.33 1830.89 3160.78 1829.08 3161.37 1826.41L3168.26 1795.2C3168.86 1792.5 3169.15 1790.33 3169.15 1788.68 3169.15 1787.41 3168.84 1786.52 3168.2 1786.02 3167.57 1785.52 3166.56 1785.23 3165.18 1785.15Z" fill="#585858" fill-rule="evenodd"/><text fill="#000000" fill-opacity="0" font-family="Arial,Arial_MSFontService,sans-serif" font-size="55.3198" x="3155.01" y="1831.57">𝐸</text><path d="M3204.87 1835.61 3239.19 1835.61 3239.19 1840.17 3204.87 1840.17Z" fill="#585858" fill-rule="evenodd"/><text fill="#000000" fill-opacity="0" font-family="Arial,Arial_MSFontService,sans-serif" font-size="4.55713" x="3204.87" y="1839.6">−</text><path d="M3228.25 1780.82C3227.14 1780.82 3226.1 1781.07 3225.13 1781.56 3224.15 1782.06 3223.26 1782.75 3222.45 1783.62 3221.63 1784.49 3220.9 1785.53 3220.26 1786.72 3219.61 1787.91 3219.06 1789.19 3218.62 1790.56 3218.17 1791.93 3217.83 1793.36 3217.59 1794.85 3217.35 1796.34 3217.23 1797.83 3217.23 1799.32 3217.23 1801.6 3217.7 1803.28 3218.65 1804.37 3219.59 1805.45 3221.03 1805.99 3222.95 1805.99 3224.02 1805.99 3225.04 1805.73 3225.99 1805.2 3226.94 1804.67 3227.82 1803.96 3228.61 1803.07 3229.4 1802.18 3230.11 1801.13 3230.74 1799.93 3231.37 1798.73 3231.9 1797.44 3232.33 1796.07 3232.77 1794.7 3233.1 1793.29 3233.33 1791.83 3233.56 1790.37 3233.67 1788.94 3233.67 1787.55 3233.67 1785.35 3233.24 1783.67 3232.36 1782.53 3231.49 1781.39 3230.12 1780.82 3228.25 1780.82ZM3228.82 1777.87C3230.61 1777.87 3232.17 1778.16 3233.51 1778.74 3234.85 1779.31 3235.97 1780.09 3236.86 1781.07 3237.75 1782.06 3238.42 1783.21 3238.87 1784.54 3239.32 1785.87 3239.54 1787.29 3239.54 1788.8 3239.54 1791.82 3239.09 1794.56 3238.2 1797.01 3237.31 1799.46 3236.07 1801.57 3234.49 1803.32 3232.91 1805.08 3231.06 1806.44 3228.92 1807.39 3226.79 1808.34 3224.47 1808.82 3221.97 1808.82 3220.32 1808.82 3218.84 1808.57 3217.53 1808.07 3216.22 1807.58 3215.11 1806.86 3214.19 1805.93 3213.28 1805 3212.58 1803.87 3212.09 1802.55 3211.61 1801.23 3211.36 1799.73 3211.36 1798.07 3211.36 1795.25 3211.81 1792.61 3212.69 1790.16 3213.57 1787.71 3214.8 1785.57 3216.35 1783.75 3217.91 1781.94 3219.75 1780.5 3221.88 1779.45 3224 1778.4 3226.32 1777.87 3228.82 1777.87Z" fill="#585858" fill-rule="evenodd"/><text fill="#000000" fill-opacity="0" font-family="Arial,Arial_MSFontService,sans-serif" font-size="30.9468" x="3211.36" y="1804.95">𝑜</text></g></svg>