<svg width="1296" height="349" xmlns="http://www.w3.org/2000/svg" xmlns:xlink="http://www.w3.org/1999/xlink" xml:space="preserve" overflow="hidden"><defs><clipPath id="clip0"><rect x="1286" y="603" width="1296" height="349"/></clipPath></defs><g clip-path="url(#clip0)" transform="translate(-1286 -603)"><path d="M1329.49 733.385 1354.49 733.385 1353.8 736.448C1352.22 736.781 1351.08 737.156 1350.39 737.573 1349.71 737.99 1349.09 738.615 1348.55 739.448 1348.01 740.281 1347.45 741.583 1346.86 743.354 1346.28 745.125 1345.55 748.01 1344.67 752.01L1340.24 771.948 1342.3 771.948C1344.05 771.948 1345.64 771.656 1347.08 771.073 1348.52 770.49 1350.2 769.427 1352.11 767.885 1354.03 766.344 1357.08 763.51 1361.27 759.385 1365.46 755.26 1368.44 752.125 1370.21 749.979 1371.98 747.833 1373.27 745.979 1374.08 744.417 1374.89 742.854 1375.3 741.427 1375.3 740.135 1375.3 739.094 1374.88 738.25 1374.05 737.604 1373.22 736.958 1372.03 736.573 1370.49 736.448L1371.17 733.385 1397.99 733.385 1397.3 736.448C1395.63 736.698 1393.75 737.562 1391.64 739.042 1389.54 740.521 1386.32 743.406 1381.99 747.698L1357.74 771.323 1371.05 803.323C1372.42 806.615 1373.56 808.99 1374.46 810.448 1375.35 811.906 1376.42 813.062 1377.67 813.917 1378.92 814.771 1380.47 815.344 1382.3 815.635L1381.61 818.698 1357.49 818.698 1358.17 815.635C1360.42 815.427 1361.55 814.427 1361.55 812.635 1361.55 811.51 1361.32 810.229 1360.86 808.792 1360.4 807.354 1359.86 805.865 1359.24 804.323L1351.11 784.448C1350.15 782.073 1349.32 780.406 1348.61 779.448 1347.9 778.49 1347.15 777.823 1346.36 777.448 1345.57 777.073 1344.34 776.885 1342.67 776.885L1339.17 776.885 1333.99 800.51C1333.45 803.01 1333.09 804.979 1332.92 806.417 1332.76 807.854 1332.67 809.135 1332.67 810.26 1332.67 812.135 1333.14 813.458 1334.08 814.229 1335.02 815 1336.59 815.469 1338.8 815.635L1338.11 818.698 1313.11 818.698 1313.8 815.635C1315.38 815.385 1316.57 814.979 1317.36 814.417 1318.15 813.854 1318.82 813.073 1319.36 812.073 1319.9 811.073 1320.4 809.854 1320.86 808.417 1321.32 806.979 1322.01 804.198 1322.92 800.073L1333.55 751.948C1334.47 747.781 1334.92 744.427 1334.92 741.885 1334.92 739.927 1334.44 738.562 1333.46 737.792 1332.48 737.021 1330.92 736.573 1328.8 736.448Z" fill-rule="evenodd"/><text fill="#000000" fill-opacity="0" font-family="Arial,Arial_MSFontService,sans-serif" font-size="85.3125" x="1313.11" y="808.034">𝐾</text><path d="M1471.67 803.023C1469.89 803.023 1468.23 803.409 1466.7 804.181 1465.17 804.953 1463.77 806.013 1462.5 807.36 1461.23 808.707 1460.09 810.266 1459.09 812.037 1458.09 813.808 1457.25 815.7 1456.57 817.714 1455.89 819.727 1455.38 821.785 1455.03 823.889 1454.68 825.993 1454.51 828.044 1454.51 830.042 1454.51 833.312 1454.97 835.741 1455.89 837.331 1456.82 838.92 1458.31 839.715 1460.37 839.715 1461.79 839.715 1463.34 839.223 1465.02 838.239 1466.7 837.255 1468.33 835.87 1469.92 834.084 1471.51 832.298 1472.96 830.141 1474.26 827.613 1475.56 825.085 1476.55 822.277 1477.21 819.189 1477.61 817.555 1477.94 815.912 1478.21 814.262 1478.48 812.613 1478.62 811.122 1478.62 809.79 1478.62 807.337 1478.07 805.597 1476.96 804.567 1475.86 803.538 1474.09 803.023 1471.67 803.023ZM1420.99 803.023C1419.33 803.023 1417.68 803.432 1416.06 804.25 1414.44 805.067 1412.91 806.225 1411.48 807.723 1410.04 809.222 1408.73 811.038 1407.55 813.173 1406.37 815.307 1405.38 817.691 1404.6 820.325 1408.44 820.294 1411.75 819.992 1414.52 819.417 1417.29 818.841 1419.56 818.054 1421.33 817.055 1423.1 816.056 1424.4 814.875 1425.24 813.513 1426.07 812.151 1426.48 810.652 1426.48 809.018 1426.48 807.141 1426.02 805.672 1425.08 804.613 1424.14 803.553 1422.78 803.023 1420.99 803.023ZM1470.85 798.528C1473.16 798.528 1475.22 798.808 1477.05 799.368 1478.89 799.928 1480.57 800.692 1482.12 801.661L1486.43 798.528 1490.11 799.481C1488.11 808.473 1486.14 817.373 1484.18 826.183 1482.23 834.992 1480.41 843.287 1478.71 851.067 1478.14 853.156 1477.85 854.852 1477.85 856.153 1477.85 857.273 1478.27 858.068 1479.12 858.537 1479.97 859.007 1481.42 859.332 1483.48 859.514L1482.84 862.511 1467.27 862.511C1468.54 857.546 1469.73 852.937 1470.83 848.683 1471.94 844.43 1473.14 839.821 1474.44 834.856L1473.72 834.674C1472.2 836.642 1470.73 838.322 1469.29 839.715 1467.85 841.107 1466.44 842.25 1465.07 843.143 1463.69 844.036 1462.31 844.687 1460.93 845.096 1459.56 845.505 1458.17 845.709 1456.78 845.709 1453.18 845.709 1450.39 844.415 1448.42 841.826 1446.45 839.238 1445.47 835.477 1445.47 830.542 1445.47 827.605 1445.78 824.782 1446.4 822.073 1447.02 819.364 1447.9 816.821 1449.04 814.444 1450.17 812.068 1451.53 809.903 1453.1 807.95 1454.67 805.998 1456.4 804.325 1458.28 802.933 1460.15 801.54 1462.15 800.458 1464.27 799.686 1466.39 798.914 1468.58 798.528 1470.85 798.528ZM1422.94 798.528C1426.82 798.528 1429.76 799.375 1431.78 801.071 1433.79 802.766 1434.79 805.173 1434.79 808.291 1434.79 819.25 1424.43 824.729 1403.69 824.729 1403.54 825.517 1403.42 826.372 1403.33 827.295 1403.23 828.219 1403.19 829.225 1403.19 830.315 1403.19 833.615 1403.86 836.021 1405.21 837.535 1406.56 839.049 1408.65 839.806 1411.5 839.806 1412.98 839.806 1414.39 839.647 1415.72 839.329 1417.05 839.011 1418.36 838.519 1419.65 837.853 1420.94 837.187 1422.23 836.332 1423.53 835.287 1424.83 834.243 1426.2 832.994 1427.62 831.541L1431.03 835.219C1427.51 838.701 1424.01 841.319 1420.51 843.075 1417.02 844.831 1413.26 845.709 1409.23 845.709 1406.87 845.709 1404.77 845.353 1402.94 844.642 1401.11 843.93 1399.56 842.894 1398.31 841.531 1397.05 840.169 1396.1 838.511 1395.45 836.559 1394.8 834.606 1394.47 832.404 1394.47 829.952 1394.47 828.226 1394.62 826.432 1394.92 824.571 1395.23 822.709 1395.7 820.847 1396.33 818.985 1396.97 817.123 1397.76 815.307 1398.69 813.536 1399.63 811.765 1400.74 810.107 1402.01 808.563 1404.55 805.415 1407.62 802.955 1411.2 801.184 1414.79 799.413 1418.7 798.528 1422.94 798.528Z" fill-rule="evenodd"/><text fill="#000000" fill-opacity="0" font-family="Arial,Arial_MSFontService,sans-serif" font-size="63.9829" x="1394.47" y="854.513">𝑒𝑞</text><path d="M1548.92 790.948 1625.92 790.948 1625.92 799.26 1548.92 799.26ZM1548.92 765.01 1625.92 765.01 1625.92 773.323 1548.92 773.323Z" fill-rule="evenodd"/><text fill="#000000" fill-opacity="0" font-family="Arial,Arial_MSFontService,sans-serif" font-size="34.25" x="1548.92" y="794.979">=</text><path d="M1947.97 621.458 1975.84 621.458 1975.84 740.646 1947.97 740.646 1947.97 735.833 1965.47 735.833 1965.47 626.271 1947.97 626.271ZM1685.2 621.458 1713.07 621.458 1713.07 626.271 1695.57 626.271 1695.57 735.833 1713.07 735.833 1713.07 740.646 1685.2 740.646Z" fill-rule="evenodd"/><path d="M1723.45 632.323 1749.76 632.323 1749.76 635.385C1747.93 635.844 1746.6 636.302 1745.79 636.76 1744.98 637.219 1744.33 637.792 1743.85 638.479 1743.38 639.167 1743.02 640.198 1742.79 641.573 1742.56 642.948 1742.45 645.073 1742.45 647.948L1742.45 670.073 1777.2 670.073 1777.2 647.948C1777.2 644.323 1777.02 641.844 1776.67 640.51 1776.31 639.177 1775.72 638.156 1774.89 637.448 1774.05 636.74 1772.41 636.052 1769.95 635.385L1769.95 632.323 1796.14 632.323 1796.14 635.385C1793.8 635.969 1792.18 636.625 1791.26 637.354 1790.34 638.083 1789.72 639.177 1789.39 640.635 1789.05 642.094 1788.89 644.531 1788.89 647.948L1788.89 702.01C1788.89 704.427 1788.95 706.24 1789.07 707.448 1789.2 708.656 1789.41 709.625 1789.7 710.354 1789.99 711.083 1790.34 711.677 1790.76 712.135 1791.18 712.594 1791.77 713.01 1792.54 713.385 1793.31 713.76 1794.51 714.156 1796.14 714.573L1796.14 717.635 1769.95 717.635 1769.95 714.573C1772.24 713.99 1773.84 713.344 1774.76 712.635 1775.68 711.927 1776.31 710.844 1776.67 709.385 1777.02 707.927 1777.2 705.469 1777.2 702.01L1777.2 675.823 1742.45 675.823 1742.45 702.01C1742.45 704.802 1742.54 706.844 1742.73 708.135 1742.92 709.427 1743.23 710.448 1743.67 711.198 1744.1 711.948 1744.75 712.573 1745.6 713.073 1746.46 713.573 1747.84 714.073 1749.76 714.573L1749.76 717.635 1723.45 717.635 1723.45 714.573C1726.03 713.906 1727.76 713.167 1728.64 712.354 1729.51 711.542 1730.08 710.385 1730.35 708.885 1730.62 707.385 1730.76 705.094 1730.76 702.01L1730.76 647.948C1730.76 645.073 1730.66 642.979 1730.45 641.667 1730.24 640.354 1729.9 639.333 1729.42 638.604 1728.94 637.875 1728.3 637.292 1727.51 636.854 1726.72 636.417 1725.36 635.927 1723.45 635.385Z" fill-rule="evenodd"/><text fill="#000000" fill-opacity="0" font-family="Arial,Arial_MSFontService,sans-serif" font-size="85.3125" x="1723.45" y="706.971">H</text><path d="M1839.3 631.323C1842.47 631.323 1845.56 631.49 1848.58 631.823 1851.6 632.156 1855.39 632.906 1859.93 634.073L1859.93 650.948 1853.74 650.948C1852.78 647.281 1851.57 644.427 1850.11 642.385 1848.66 640.344 1846.95 638.917 1844.99 638.104 1843.03 637.292 1840.49 636.885 1837.36 636.885 1834.66 636.885 1832.23 637.385 1830.08 638.385 1827.94 639.385 1826.24 640.896 1824.99 642.917 1823.74 644.938 1823.11 647.344 1823.11 650.135 1823.11 653.094 1823.65 655.594 1824.71 657.635 1825.77 659.677 1827.43 661.573 1829.68 663.323 1831.93 665.073 1835.26 667.031 1839.68 669.198 1845.01 671.865 1849.15 674.344 1852.08 676.635 1855.02 678.927 1857.31 681.542 1858.96 684.479 1860.6 687.417 1861.43 690.844 1861.43 694.76 1861.43 699.135 1860.74 702.833 1859.36 705.854 1857.99 708.875 1856.08 711.333 1853.65 713.229 1851.21 715.125 1848.29 716.5 1844.9 717.354 1841.5 718.208 1837.78 718.635 1833.74 718.635 1827.2 718.635 1819.66 717.531 1811.11 715.323L1811.11 698.198 1817.36 698.198C1818.2 701.865 1819.32 704.76 1820.74 706.885 1822.16 709.01 1823.99 710.583 1826.24 711.604 1828.49 712.625 1831.39 713.135 1834.93 713.135 1839.8 713.135 1843.54 711.865 1846.15 709.323 1848.75 706.781 1850.05 703.073 1850.05 698.198 1850.05 695.073 1849.51 692.448 1848.43 690.323 1847.34 688.198 1845.57 686.198 1843.11 684.323 1840.66 682.448 1836.91 680.26 1831.86 677.76 1826.99 675.344 1823.14 672.979 1820.3 670.667 1817.47 668.354 1815.35 665.844 1813.96 663.135 1812.56 660.427 1811.86 657.469 1811.86 654.26 1811.86 649.594 1812.96 645.542 1815.15 642.104 1817.33 638.667 1820.54 636.01 1824.77 634.135 1829 632.26 1833.84 631.323 1839.3 631.323Z" fill-rule="evenodd"/><text fill="#000000" fill-opacity="0" font-family="Arial,Arial_MSFontService,sans-serif" font-size="87.3125" x="1811.11" y="707.721">S</text><path d="M1879.46 640.572 1931.77 640.572 1931.77 647.52 1879.46 647.52Z" fill-rule="evenodd"/><text fill="#000000" fill-opacity="0" font-family="Arial,Arial_MSFontService,sans-serif" font-size="6.94775" x="1879.46" y="646.651">−</text><path d="M2073.23 701.961C2071.45 701.961 2069.79 702.347 2068.26 703.119 2066.73 703.891 2065.33 704.95 2064.06 706.298 2062.79 707.645 2061.66 709.204 2060.66 710.975 2059.66 712.746 2058.82 714.638 2058.14 716.651 2057.45 718.664 2056.94 720.723 2056.59 722.827 2056.24 724.931 2056.07 726.982 2056.07 728.98 2056.07 732.25 2056.53 734.679 2057.45 736.268 2058.38 737.858 2059.87 738.652 2061.93 738.652 2063.35 738.652 2064.9 738.16 2066.58 737.177 2068.26 736.193 2069.9 734.808 2071.49 733.021 2073.08 731.235 2074.52 729.078 2075.82 726.551 2077.12 724.023 2078.11 721.215 2078.77 718.127 2079.17 716.492 2079.5 714.85 2079.77 713.2 2080.05 711.55 2080.18 710.059 2080.18 708.727 2080.18 706.275 2079.63 704.534 2078.53 703.505 2077.42 702.476 2075.66 701.961 2073.23 701.961ZM2022.55 701.961C2020.89 701.961 2019.25 702.37 2017.63 703.187 2016.01 704.004 2014.48 705.162 2013.04 706.661 2011.6 708.159 2010.29 709.976 2009.11 712.11 2007.93 714.244 2006.95 716.628 2006.16 719.262 2010 719.232 2013.31 718.929 2016.08 718.354 2018.85 717.779 2021.12 716.992 2022.89 715.993 2024.66 714.994 2025.97 713.813 2026.8 712.451 2027.63 711.088 2028.05 709.59 2028.05 707.955 2028.05 706.078 2027.58 704.61 2026.64 703.55 2025.7 702.491 2024.34 701.961 2022.55 701.961ZM2072.42 697.465C2074.72 697.465 2076.78 697.745 2078.62 698.305 2080.45 698.865 2082.14 699.63 2083.68 700.599L2087.99 697.465 2091.67 698.419C2089.67 707.41 2087.7 716.311 2085.75 725.12 2083.79 733.93 2081.97 742.225 2080.27 750.005 2079.7 752.094 2079.41 753.789 2079.41 755.091 2079.41 756.211 2079.83 757.006 2080.68 757.475 2081.53 757.944 2082.98 758.27 2085.04 758.451L2084.41 761.448 2068.83 761.448C2070.1 756.483 2071.29 751.874 2072.39 747.621 2073.5 743.367 2074.7 738.758 2076 733.793L2075.28 733.612C2073.76 735.58 2072.29 737.26 2070.85 738.652 2069.41 740.045 2068.01 741.188 2066.63 742.081 2065.25 742.974 2063.87 743.625 2062.5 744.033 2061.12 744.442 2059.73 744.646 2058.34 744.646 2054.74 744.646 2051.95 743.352 2049.98 740.764 2048.02 738.176 2047.03 734.414 2047.03 729.479 2047.03 726.543 2047.34 723.72 2047.96 721.01 2048.58 718.301 2049.46 715.758 2050.6 713.382 2051.73 711.005 2053.09 708.841 2054.66 706.888 2056.24 704.935 2057.96 703.263 2059.84 701.87 2061.72 700.478 2063.71 699.395 2065.83 698.623 2067.95 697.851 2070.15 697.465 2072.42 697.465ZM2024.51 697.465C2028.38 697.465 2031.32 698.313 2033.34 700.008 2035.35 701.704 2036.36 704.11 2036.36 707.229 2036.36 718.188 2025.99 723.667 2005.25 723.667 2005.1 724.454 2004.98 725.309 2004.89 726.233 2004.8 727.156 2004.75 728.163 2004.75 729.252 2004.75 732.552 2005.43 734.959 2006.77 736.473 2008.12 737.986 2010.22 738.743 2013.06 738.743 2014.55 738.743 2015.95 738.584 2017.29 738.266 2018.62 737.948 2019.93 737.457 2021.21 736.791 2022.5 736.125 2023.79 735.269 2025.1 734.225 2026.4 733.18 2027.76 731.932 2029.18 730.479L2032.59 734.157C2029.08 737.638 2025.57 740.257 2022.08 742.013 2018.58 743.769 2014.82 744.646 2010.79 744.646 2008.43 744.646 2006.33 744.291 2004.5 743.579 2002.67 742.868 2001.13 741.831 1999.87 740.469 1998.61 739.106 1997.66 737.449 1997.01 735.496 1996.36 733.544 1996.03 731.341 1996.03 728.889 1996.03 727.164 1996.18 725.37 1996.49 723.508 1996.79 721.646 1997.26 719.784 1997.9 717.923 1998.53 716.061 1999.32 714.244 2000.26 712.473 2001.19 710.702 2002.3 709.045 2003.57 707.501 2006.11 704.353 2009.18 701.893 2012.77 700.122 2016.35 698.351 2020.27 697.465 2024.51 697.465Z" fill-rule="evenodd"/><text fill="#000000" fill-opacity="0" font-family="Arial,Arial_MSFontService,sans-serif" font-size="63.9829" x="1996.03" y="753.45">𝑒𝑞</text><path d="M2400.64 621.458 2428.52 621.458 2428.52 740.646 2400.64 740.646 2400.64 735.833 2418.14 735.833 2418.14 626.271 2400.64 626.271ZM2119.76 621.458 2147.64 621.458 2147.64 626.271 2130.14 626.271 2130.14 735.833 2147.64 735.833 2147.64 740.646 2119.76 740.646Z" fill-rule="evenodd"/><path d="M2317.77 632.323 2337.33 632.323 2368.2 683.823C2369.7 686.323 2370.96 688.51 2371.99 690.385 2373.01 692.26 2374.06 694.365 2375.14 696.698L2375.95 696.698C2375.75 694.156 2375.56 689.104 2375.39 681.542 2375.22 673.979 2375.14 667.156 2375.14 661.073L2375.14 647.948C2375.14 645.073 2375.06 642.969 2374.89 641.635 2374.72 640.302 2374.42 639.281 2373.99 638.573 2373.55 637.865 2372.94 637.292 2372.17 636.854 2371.4 636.417 2370.06 635.927 2368.14 635.385L2368.14 632.323 2390.64 632.323 2390.64 635.385C2388.77 635.885 2387.44 636.344 2386.67 636.76 2385.9 637.177 2385.28 637.719 2384.8 638.385 2384.32 639.052 2383.95 640.052 2383.7 641.385 2383.45 642.719 2383.33 644.906 2383.33 647.948L2383.33 718.01 2375.52 718.01 2340.7 659.635C2338.54 656.01 2337 653.365 2336.08 651.698 2335.16 650.031 2334.31 648.385 2333.52 646.76L2332.45 646.76C2332.75 649.969 2332.95 655.771 2333.08 664.167 2333.2 672.562 2333.27 680.927 2333.27 689.26L2333.27 702.01C2333.27 704.802 2333.36 706.844 2333.55 708.135 2333.74 709.427 2334.05 710.448 2334.49 711.198 2334.92 711.948 2335.57 712.573 2336.42 713.073 2337.28 713.573 2338.66 714.073 2340.58 714.573L2340.58 717.635 2317.77 717.635 2317.77 714.573C2320.35 713.906 2322.08 713.167 2322.95 712.354 2323.83 711.542 2324.4 710.385 2324.67 708.885 2324.94 707.385 2325.08 705.094 2325.08 702.01L2325.08 647.948C2325.08 645.073 2324.97 642.979 2324.77 641.667 2324.56 640.354 2324.21 639.333 2323.74 638.604 2323.26 637.875 2322.62 637.292 2321.83 636.854 2321.04 636.417 2319.68 635.927 2317.77 635.385ZM2158.02 632.323 2184.33 632.323 2184.33 635.385C2182.5 635.844 2181.17 636.302 2180.36 636.76 2179.55 637.219 2178.9 637.792 2178.42 638.479 2177.94 639.167 2177.59 640.198 2177.36 641.573 2177.13 642.948 2177.02 645.073 2177.02 647.948L2177.02 670.073 2211.77 670.073 2211.77 647.948C2211.77 644.323 2211.59 641.844 2211.24 640.51 2210.88 639.177 2210.29 638.156 2209.45 637.448 2208.62 636.74 2206.97 636.052 2204.52 635.385L2204.52 632.323 2230.7 632.323 2230.7 635.385C2228.37 635.969 2226.75 636.625 2225.83 637.354 2224.91 638.083 2224.29 639.177 2223.95 640.635 2223.62 642.094 2223.45 644.531 2223.45 647.948L2223.45 702.01C2223.45 704.427 2223.52 706.24 2223.64 707.448 2223.77 708.656 2223.97 709.625 2224.27 710.354 2224.56 711.083 2224.91 711.677 2225.33 712.135 2225.75 712.594 2226.34 713.01 2227.11 713.385 2227.88 713.76 2229.08 714.156 2230.7 714.573L2230.7 717.635 2204.52 717.635 2204.52 714.573C2206.81 713.99 2208.41 713.344 2209.33 712.635 2210.25 711.927 2210.88 710.844 2211.24 709.385 2211.59 707.927 2211.77 705.469 2211.77 702.01L2211.77 675.823 2177.02 675.823 2177.02 702.01C2177.02 704.802 2177.11 706.844 2177.3 708.135 2177.49 709.427 2177.8 710.448 2178.24 711.198 2178.67 711.948 2179.32 712.573 2180.17 713.073 2181.03 713.573 2182.41 714.073 2184.33 714.573L2184.33 717.635 2158.02 717.635 2158.02 714.573C2160.6 713.906 2162.33 713.167 2163.2 712.354 2164.08 711.542 2164.65 710.385 2164.92 708.885 2165.19 707.385 2165.33 705.094 2165.33 702.01L2165.33 647.948C2165.33 645.073 2165.22 642.979 2165.02 641.667 2164.81 640.354 2164.46 639.333 2163.99 638.604 2163.51 637.875 2162.87 637.292 2162.08 636.854 2161.29 636.417 2159.93 635.927 2158.02 635.385ZM2282.08 631.323C2285.87 631.323 2289.37 631.521 2292.58 631.917 2295.79 632.312 2299.45 633.052 2303.58 634.135L2303.58 651.448 2297.39 651.448C2296.39 647.823 2295.12 644.938 2293.58 642.792 2292.04 640.646 2290.25 639.115 2288.2 638.198 2286.16 637.281 2283.7 636.823 2280.83 636.823 2276.54 636.823 2272.71 638.25 2269.36 641.104 2266.01 643.958 2263.37 648.25 2261.45 653.979 2259.54 659.708 2258.58 666.635 2258.58 674.76 2258.58 682.927 2259.37 689.896 2260.95 695.667 2262.54 701.437 2264.87 705.792 2267.95 708.729 2271.04 711.667 2274.83 713.135 2279.33 713.135 2282.75 713.135 2285.54 712.646 2287.7 711.667 2289.87 710.687 2291.69 709.135 2293.17 707.01 2294.65 704.885 2296.06 701.76 2297.39 697.635L2303.58 697.635 2303.58 715.51C2299.66 716.552 2295.65 717.333 2291.55 717.854 2287.44 718.375 2282.93 718.635 2278.02 718.635 2267.43 718.635 2259.43 715.052 2254.02 707.885 2248.6 700.719 2245.89 690.031 2245.89 675.823 2245.89 666.906 2247.3 659.094 2250.11 652.385 2252.92 645.677 2257.06 640.49 2262.52 636.823 2267.97 633.156 2274.5 631.323 2282.08 631.323Z" fill-rule="evenodd"/><text fill="#000000" fill-opacity="0" font-family="Arial,Arial_MSFontService,sans-serif" font-size="87.3125" x="2158.02" y="707.721">HCN</text><path d="M2525.91 701.961C2524.12 701.961 2522.46 702.347 2520.94 703.119 2519.41 703.891 2518.01 704.95 2516.73 706.298 2515.46 707.645 2514.33 709.204 2513.33 710.975 2512.33 712.746 2511.49 714.638 2510.81 716.651 2510.13 718.664 2509.61 720.723 2509.26 722.827 2508.92 724.931 2508.74 726.982 2508.74 728.98 2508.74 732.25 2509.2 734.679 2510.13 736.268 2511.05 737.858 2512.54 738.652 2514.6 738.652 2516.02 738.652 2517.57 738.16 2519.26 737.177 2520.94 736.193 2522.57 734.808 2524.16 733.021 2525.75 731.235 2527.19 729.078 2528.5 726.551 2529.8 724.023 2530.78 721.215 2531.45 718.127 2531.84 716.492 2532.17 714.85 2532.45 713.2 2532.72 711.55 2532.86 710.059 2532.86 708.727 2532.86 706.275 2532.3 704.534 2531.2 703.505 2530.09 702.476 2528.33 701.961 2525.91 701.961ZM2475.23 701.961C2473.56 701.961 2471.92 702.37 2470.3 703.187 2468.68 704.004 2467.15 705.162 2465.71 706.661 2464.27 708.159 2462.96 709.976 2461.78 712.11 2460.6 714.244 2459.62 716.628 2458.83 719.262 2462.68 719.232 2465.98 718.929 2468.75 718.354 2471.52 717.779 2473.8 716.992 2475.57 715.993 2477.34 714.994 2478.64 713.813 2479.47 712.451 2480.3 711.088 2480.72 709.59 2480.72 707.955 2480.72 706.078 2480.25 704.61 2479.31 703.55 2478.37 702.491 2477.01 701.961 2475.23 701.961ZM2525.09 697.465C2527.39 697.465 2529.46 697.745 2531.29 698.305 2533.12 698.865 2534.81 699.63 2536.35 700.599L2540.67 697.465 2544.34 698.419C2542.35 707.41 2540.37 716.311 2538.42 725.12 2536.47 733.93 2534.64 742.225 2532.95 750.005 2532.37 752.094 2532.08 753.789 2532.08 755.091 2532.08 756.211 2532.51 757.006 2533.35 757.475 2534.2 757.944 2535.66 758.27 2537.71 758.451L2537.08 761.448 2521.5 761.448C2522.77 756.483 2523.96 751.874 2525.07 747.621 2526.17 743.367 2527.38 738.758 2528.68 733.793L2527.95 733.612C2526.44 735.58 2524.96 737.26 2523.52 738.652 2522.09 740.045 2520.68 741.188 2519.3 742.081 2517.92 742.974 2516.55 743.625 2515.17 744.033 2513.79 744.442 2512.41 744.646 2511.01 744.646 2507.41 744.646 2504.63 743.352 2502.66 740.764 2500.69 738.176 2499.71 734.414 2499.71 729.479 2499.71 726.543 2500.02 723.72 2500.64 721.01 2501.26 718.301 2502.14 715.758 2503.27 713.382 2504.41 711.005 2505.76 708.841 2507.33 706.888 2508.91 704.935 2510.63 703.263 2512.51 701.87 2514.39 700.478 2516.39 699.395 2518.51 698.623 2520.62 697.851 2522.82 697.465 2525.09 697.465ZM2477.18 697.465C2481.05 697.465 2484 698.313 2486.01 700.008 2488.02 701.704 2489.03 704.11 2489.03 707.229 2489.03 718.188 2478.66 723.667 2457.92 723.667 2457.77 724.454 2457.65 725.309 2457.56 726.233 2457.47 727.156 2457.42 728.163 2457.42 729.252 2457.42 732.552 2458.1 734.959 2459.45 736.473 2460.79 737.986 2462.89 738.743 2465.73 738.743 2467.22 738.743 2468.63 738.584 2469.96 738.266 2471.29 737.948 2472.6 737.457 2473.89 736.791 2475.17 736.125 2476.47 735.269 2477.77 734.225 2479.07 733.18 2480.43 731.932 2481.86 730.479L2485.26 734.157C2481.75 737.638 2478.25 740.257 2474.75 742.013 2471.25 743.769 2467.49 744.646 2463.46 744.646 2461.1 744.646 2459.01 744.291 2457.18 743.579 2455.34 742.868 2453.8 741.831 2452.54 740.469 2451.29 739.106 2450.33 737.449 2449.68 735.496 2449.03 733.544 2448.71 731.341 2448.71 728.889 2448.71 727.164 2448.86 725.37 2449.16 723.508 2449.46 721.646 2449.93 719.784 2450.57 717.923 2451.2 716.061 2451.99 714.244 2452.93 712.473 2453.87 710.702 2454.97 709.045 2456.24 707.501 2458.79 704.353 2461.85 701.893 2465.44 700.122 2469.03 698.351 2472.94 697.465 2477.18 697.465Z" fill-rule="evenodd"/><text fill="#000000" fill-opacity="0" font-family="Arial,Arial_MSFontService,sans-serif" font-size="63.9829" x="2448.71" y="753.45">𝑒𝑞</text><path d="M1944.37 808.367 1972.25 808.367 1972.25 927.554 1944.37 927.554 1944.37 922.742 1961.87 922.742 1961.87 813.179 1944.37 813.179ZM1699.43 808.367 1727.3 808.367 1727.3 813.179 1709.8 813.179 1709.8 922.742 1727.3 922.742 1727.3 927.554 1699.43 927.554Z" fill-rule="evenodd"/><path d="M1737.68 819.231 1763.99 819.231 1763.99 822.294C1762.16 822.752 1760.84 823.21 1760.02 823.669 1759.21 824.127 1758.56 824.7 1758.09 825.387 1757.61 826.075 1757.25 827.106 1757.02 828.481 1756.79 829.856 1756.68 831.981 1756.68 834.856L1756.68 856.981 1791.43 856.981 1791.43 834.856C1791.43 831.231 1791.25 828.752 1790.9 827.419 1790.54 826.085 1789.95 825.065 1789.12 824.356 1788.28 823.648 1786.64 822.96 1784.18 822.294L1784.18 819.231 1810.37 819.231 1810.37 822.294C1808.03 822.877 1806.41 823.533 1805.49 824.262 1804.57 824.992 1803.95 826.085 1803.62 827.544 1803.28 829.002 1803.12 831.44 1803.12 834.856L1803.12 888.919C1803.12 891.335 1803.18 893.148 1803.3 894.356 1803.43 895.565 1803.64 896.533 1803.93 897.262 1804.22 897.992 1804.57 898.585 1804.99 899.044 1805.41 899.502 1806 899.919 1806.77 900.294 1807.54 900.669 1808.74 901.065 1810.37 901.481L1810.37 904.544 1784.18 904.544 1784.18 901.481C1786.47 900.898 1788.07 900.252 1788.99 899.544 1789.91 898.835 1790.54 897.752 1790.9 896.294 1791.25 894.835 1791.43 892.377 1791.43 888.919L1791.43 862.731 1756.68 862.731 1756.68 888.919C1756.68 891.71 1756.77 893.752 1756.96 895.044 1757.15 896.335 1757.46 897.356 1757.9 898.106 1758.34 898.856 1758.98 899.481 1759.84 899.981 1760.69 900.481 1762.07 900.981 1763.99 901.481L1763.99 904.544 1737.68 904.544 1737.68 901.481C1740.26 900.815 1741.99 900.075 1742.87 899.262 1743.74 898.45 1744.31 897.294 1744.59 895.794 1744.86 894.294 1744.99 892.002 1744.99 888.919L1744.99 834.856C1744.99 831.981 1744.89 829.887 1744.68 828.575 1744.47 827.262 1744.13 826.242 1743.65 825.512 1743.17 824.783 1742.53 824.2 1741.74 823.762 1740.95 823.325 1739.6 822.835 1737.68 822.294Z" fill-rule="evenodd"/><text fill="#000000" fill-opacity="0" font-family="Arial,Arial_MSFontService,sans-serif" font-size="85.3125" x="1737.68" y="893.88">H</text><path d="M1845.46 871.931C1848.6 871.931 1851.29 872.287 1853.52 872.998 1855.74 873.71 1857.55 874.671 1858.94 875.882 1860.33 877.093 1861.34 878.546 1861.96 880.241 1862.58 881.937 1862.89 883.768 1862.89 885.736 1862.89 886.917 1862.81 888.014 1862.64 889.028 1862.48 890.042 1862.19 891.041 1861.78 892.025 1861.37 893.009 1860.83 894.001 1860.17 895 1859.5 895.999 1858.67 897.058 1857.67 898.178 1856.91 899.147 1855.93 900.267 1854.72 901.539 1853.51 902.81 1852.18 904.172 1850.75 905.626 1849.31 907.079 1847.8 908.592 1846.23 910.167 1844.65 911.741 1843.12 913.3 1841.64 914.844 1840.16 916.388 1838.8 917.886 1837.55 919.339 1836.31 920.793 1835.3 922.125 1834.51 923.336L1851.31 923.336C1852.74 923.336 1853.87 923.283 1854.72 923.177 1855.57 923.071 1856.27 922.836 1856.83 922.473 1857.39 922.109 1857.87 921.557 1858.26 920.815 1858.65 920.074 1859.11 919.052 1859.62 917.75L1863.85 917.75C1863.7 919.9 1863.55 922.064 1863.42 924.244 1863.28 926.423 1863.14 928.588 1862.98 930.737L1824.52 930.737 1824.52 928.376C1825.25 926.741 1826.1 925.129 1827.06 923.54 1828.03 921.951 1829.12 920.339 1830.33 918.704 1831.54 917.069 1832.92 915.381 1834.47 913.641 1836.01 911.9 1837.72 910.091 1839.6 908.214 1842.44 905.368 1844.76 902.939 1846.55 900.926 1848.33 898.912 1849.74 897.119 1850.77 895.545 1851.8 893.97 1852.5 892.517 1852.88 891.185 1853.26 889.853 1853.45 888.43 1853.45 886.917 1853.45 885.373 1853.23 883.95 1852.79 882.648 1852.35 881.346 1851.72 880.241 1850.9 879.333 1850.09 878.425 1849.05 877.714 1847.79 877.199 1846.54 876.684 1845.09 876.427 1843.46 876.427 1840.64 876.427 1838.28 877.191 1836.37 878.72 1834.47 880.249 1832.98 882.466 1831.92 885.373L1825.97 885.373 1825.97 876.518C1829.85 874.913 1833.41 873.748 1836.67 873.021 1839.92 872.295 1842.85 871.931 1845.46 871.931Z" fill-rule="evenodd"/><text fill="#000000" fill-opacity="0" font-family="Arial,Arial_MSFontService,sans-serif" font-size="58.8062" x="1824.52" y="923.387">2</text><path d="M1913.28 818.231C1916.44 818.231 1919.54 818.398 1922.56 818.731 1925.58 819.065 1929.36 819.815 1933.9 820.981L1933.9 837.856 1927.71 837.856C1926.76 834.19 1925.55 831.335 1924.09 829.294 1922.63 827.252 1920.92 825.825 1918.96 825.012 1917.01 824.2 1914.46 823.794 1911.34 823.794 1908.63 823.794 1906.2 824.294 1904.06 825.294 1901.91 826.294 1900.21 827.804 1898.96 829.825 1897.71 831.846 1897.09 834.252 1897.09 837.044 1897.09 840.002 1897.62 842.502 1898.68 844.544 1899.75 846.585 1901.4 848.481 1903.65 850.231 1905.9 851.981 1909.24 853.94 1913.65 856.106 1918.99 858.773 1923.12 861.252 1926.06 863.544 1929 865.835 1931.29 868.45 1932.93 871.387 1934.58 874.325 1935.4 877.752 1935.4 881.669 1935.4 886.044 1934.71 889.742 1933.34 892.762 1931.96 895.783 1930.06 898.242 1927.62 900.137 1925.18 902.033 1922.27 903.408 1918.87 904.262 1915.47 905.117 1911.76 905.544 1907.71 905.544 1901.17 905.544 1893.63 904.44 1885.09 902.231L1885.09 885.106 1891.34 885.106C1892.17 888.773 1893.3 891.669 1894.71 893.794 1896.13 895.919 1897.96 897.492 1900.21 898.512 1902.46 899.533 1905.36 900.044 1908.9 900.044 1913.78 900.044 1917.52 898.773 1920.12 896.231 1922.72 893.69 1924.03 889.981 1924.03 885.106 1924.03 881.981 1923.49 879.356 1922.4 877.231 1921.32 875.106 1919.55 873.106 1917.09 871.231 1914.63 869.356 1910.88 867.169 1905.84 864.669 1900.96 862.252 1897.11 859.887 1894.28 857.575 1891.44 855.262 1889.33 852.752 1887.93 850.044 1886.54 847.335 1885.84 844.377 1885.84 841.169 1885.84 836.502 1886.93 832.45 1889.12 829.012 1891.31 825.575 1894.52 822.919 1898.75 821.044 1902.97 819.169 1907.82 818.231 1913.28 818.231Z" fill-rule="evenodd"/><text fill="#000000" fill-opacity="0" font-family="Arial,Arial_MSFontService,sans-serif" font-size="87.3125" x="1885.09" y="894.63">S</text><path d="M2069.64 888.869C2067.85 888.869 2066.19 889.255 2064.66 890.027 2063.14 890.799 2061.74 891.859 2060.46 893.206 2059.19 894.553 2058.06 896.112 2057.06 897.883 2056.06 899.654 2055.22 901.546 2054.54 903.559 2053.86 905.573 2053.34 907.631 2052.99 909.735 2052.65 911.839 2052.47 913.89 2052.47 915.888 2052.47 919.158 2052.93 921.587 2053.86 923.177 2054.78 924.766 2056.27 925.561 2058.33 925.561 2059.75 925.561 2061.3 925.069 2062.98 924.085 2064.66 923.101 2066.3 921.716 2067.89 919.93 2069.48 918.144 2070.92 915.987 2072.23 913.459 2073.53 910.931 2074.51 908.123 2075.18 905.035 2075.57 903.401 2075.9 901.758 2076.18 900.108 2076.45 898.458 2076.58 896.967 2076.58 895.635 2076.58 893.183 2076.03 891.443 2074.93 890.413 2073.82 889.384 2072.06 888.869 2069.64 888.869ZM2018.95 888.869C2017.29 888.869 2015.65 889.278 2014.03 890.095 2012.41 890.913 2010.88 892.071 2009.44 893.569 2008 895.068 2006.69 896.884 2005.51 899.018 2004.33 901.153 2003.35 903.537 2002.56 906.171 2006.41 906.14 2009.71 905.838 2012.48 905.262 2015.25 904.687 2017.52 903.9 2019.3 902.901 2021.07 901.902 2022.37 900.721 2023.2 899.359 2024.03 897.997 2024.45 896.498 2024.45 894.863 2024.45 892.986 2023.98 891.518 2023.04 890.459 2022.1 889.399 2020.74 888.869 2018.95 888.869ZM2068.82 884.374C2071.12 884.374 2073.19 884.654 2075.02 885.214 2076.85 885.774 2078.54 886.538 2080.08 887.507L2084.4 884.374 2088.07 885.327C2086.08 894.318 2084.1 903.219 2082.15 912.028 2080.19 920.838 2078.37 929.133 2076.68 936.913 2076.1 939.002 2075.81 940.697 2075.81 941.999 2075.81 943.119 2076.24 943.914 2077.08 944.383 2077.93 944.852 2079.39 945.178 2081.44 945.359L2080.81 948.357 2065.23 948.357C2066.5 943.392 2067.69 938.783 2068.8 934.529 2069.9 930.276 2071.11 925.667 2072.41 920.702L2071.68 920.52C2070.17 922.488 2068.69 924.168 2067.25 925.561 2065.81 926.953 2064.41 928.096 2063.03 928.989 2061.65 929.882 2060.27 930.533 2058.9 930.942 2057.52 931.35 2056.14 931.555 2054.74 931.555 2051.14 931.555 2048.35 930.261 2046.39 927.672 2044.42 925.084 2043.44 921.322 2043.44 916.388 2043.44 913.451 2043.75 910.628 2044.37 907.919 2044.99 905.209 2045.86 902.666 2047 900.29 2048.14 897.913 2049.49 895.749 2051.06 893.796 2052.64 891.844 2054.36 890.171 2056.24 888.778 2058.12 887.386 2060.12 886.304 2062.24 885.532 2064.35 884.76 2066.55 884.374 2068.82 884.374ZM2020.91 884.374C2024.78 884.374 2027.73 885.221 2029.74 886.917 2031.75 888.612 2032.76 891.019 2032.76 894.137 2032.76 905.096 2022.39 910.575 2001.65 910.575 2001.5 911.362 2001.38 912.218 2001.29 913.141 2001.2 914.064 2001.15 915.071 2001.15 916.161 2001.15 919.461 2001.83 921.867 2003.17 923.381 2004.52 924.895 2006.62 925.651 2009.46 925.651 2010.95 925.651 2012.36 925.493 2013.69 925.175 2015.02 924.857 2016.33 924.365 2017.62 923.699 2018.9 923.033 2020.2 922.178 2021.5 921.133 2022.8 920.089 2024.16 918.84 2025.58 917.387L2028.99 921.065C2025.48 924.547 2021.97 927.165 2018.48 928.921 2014.98 930.677 2011.22 931.555 2007.19 931.555 2004.83 931.555 2002.74 931.199 2000.9 930.488 1999.07 929.776 1997.53 928.739 1996.27 927.377 1995.02 926.015 1994.06 924.357 1993.41 922.405 1992.76 920.452 1992.44 918.25 1992.44 915.797 1992.44 914.072 1992.59 912.278 1992.89 910.416 1993.19 908.555 1993.66 906.693 1994.3 904.831 1994.93 902.969 1995.72 901.153 1996.66 899.382 1997.6 897.611 1998.7 895.953 1999.97 894.409 2002.52 891.261 2005.58 888.801 2009.17 887.03 2012.76 885.259 2016.67 884.374 2020.91 884.374Z" fill-rule="evenodd"/><text fill="#000000" fill-opacity="0" font-family="Arial,Arial_MSFontService,sans-serif" font-size="63.9829" x="1992.44" y="940.359">𝑒𝑞</text><path d="M2386.39 808.367 2414.26 808.367 2414.26 927.554 2386.39 927.554 2386.39 922.742 2403.89 922.742 2403.89 813.179 2386.39 813.179ZM2116.17 808.367 2144.04 808.367 2144.04 813.179 2126.54 813.179 2126.54 922.742 2144.04 922.742 2144.04 927.554 2116.17 927.554Z" fill-rule="evenodd"/><path d="M2226.17 819.231 2245.73 819.231 2276.61 870.731C2278.11 873.231 2279.37 875.419 2280.39 877.294 2281.41 879.169 2282.46 881.273 2283.54 883.606L2284.36 883.606C2284.15 881.065 2283.96 876.012 2283.79 868.45 2283.63 860.887 2283.54 854.065 2283.54 847.981L2283.54 834.856C2283.54 831.981 2283.46 829.877 2283.29 828.544 2283.13 827.21 2282.82 826.19 2282.39 825.481 2281.95 824.773 2281.35 824.2 2280.57 823.762 2279.8 823.325 2278.46 822.835 2276.54 822.294L2276.54 819.231 2299.04 819.231 2299.04 822.294C2297.17 822.794 2295.85 823.252 2295.07 823.669 2294.3 824.085 2293.68 824.627 2293.2 825.294 2292.72 825.96 2292.36 826.96 2292.11 828.294 2291.86 829.627 2291.73 831.815 2291.73 834.856L2291.73 904.919 2283.92 904.919 2249.11 846.544C2246.94 842.919 2245.4 840.273 2244.48 838.606 2243.56 836.94 2242.71 835.294 2241.92 833.669L2240.86 833.669C2241.15 836.877 2241.36 842.679 2241.48 851.075 2241.61 859.471 2241.67 867.835 2241.67 876.169L2241.67 888.919C2241.67 891.71 2241.76 893.752 2241.95 895.044 2242.14 896.335 2242.45 897.356 2242.89 898.106 2243.32 898.856 2243.97 899.481 2244.82 899.981 2245.68 900.481 2247.06 900.981 2248.98 901.481L2248.98 904.544 2226.17 904.544 2226.17 901.481C2228.75 900.815 2230.48 900.075 2231.36 899.262 2232.23 898.45 2232.8 897.294 2233.07 895.794 2233.35 894.294 2233.48 892.002 2233.48 888.919L2233.48 834.856C2233.48 831.981 2233.38 829.887 2233.17 828.575 2232.96 827.262 2232.62 826.242 2232.14 825.512 2231.66 824.783 2231.02 824.2 2230.23 823.762 2229.44 823.325 2228.09 822.835 2226.17 822.294ZM2190.48 818.231C2194.27 818.231 2197.77 818.429 2200.98 818.825 2204.19 819.221 2207.86 819.96 2211.98 821.044L2211.98 838.356 2205.79 838.356C2204.79 834.731 2203.52 831.846 2201.98 829.7 2200.44 827.554 2198.65 826.023 2196.61 825.106 2194.56 824.19 2192.11 823.731 2189.23 823.731 2184.94 823.731 2181.12 825.158 2177.76 828.012 2174.41 830.867 2171.77 835.158 2169.86 840.887 2167.94 846.617 2166.98 853.544 2166.98 861.669 2166.98 869.835 2167.77 876.804 2169.36 882.575 2170.94 888.346 2173.27 892.7 2176.36 895.637 2179.44 898.575 2183.23 900.044 2187.73 900.044 2191.15 900.044 2193.94 899.554 2196.11 898.575 2198.27 897.596 2200.1 896.044 2201.57 893.919 2203.05 891.794 2204.46 888.669 2205.79 884.544L2211.98 884.544 2211.98 902.419C2208.06 903.46 2204.05 904.242 2199.95 904.762 2195.85 905.283 2191.34 905.544 2186.42 905.544 2175.84 905.544 2167.84 901.96 2162.42 894.794 2157 887.627 2154.29 876.94 2154.29 862.731 2154.29 853.815 2155.7 846.002 2158.51 839.294 2161.32 832.585 2165.46 827.398 2170.92 823.731 2176.38 820.065 2182.9 818.231 2190.48 818.231Z" fill-rule="evenodd"/><text fill="#000000" fill-opacity="0" font-family="Arial,Arial_MSFontService,sans-serif" font-size="87.3125" x="2154.29" y="894.63">CN</text><path d="M2317.88 835.936 2370.19 835.936 2370.19 842.884 2317.88 842.884Z" fill-rule="evenodd"/><text fill="#000000" fill-opacity="0" font-family="Arial,Arial_MSFontService,sans-serif" font-size="6.94775" x="2317.88" y="842.016">−</text><path d="M2511.65 888.869C2509.87 888.869 2508.21 889.255 2506.68 890.027 2505.15 890.799 2503.75 891.859 2502.48 893.206 2501.21 894.553 2500.07 896.112 2499.07 897.883 2498.08 899.654 2497.24 901.546 2496.55 903.559 2495.87 905.573 2495.36 907.631 2495.01 909.735 2494.66 911.839 2494.49 913.89 2494.49 915.888 2494.49 919.158 2494.95 921.587 2495.87 923.177 2496.8 924.766 2498.29 925.561 2500.35 925.561 2501.77 925.561 2503.32 925.069 2505 924.085 2506.68 923.101 2508.32 921.716 2509.91 919.93 2511.49 918.144 2512.94 915.987 2514.24 913.459 2515.54 910.931 2516.53 908.123 2517.19 905.035 2517.59 903.401 2517.92 901.758 2518.19 900.108 2518.47 898.458 2518.6 896.967 2518.6 895.635 2518.6 893.183 2518.05 891.443 2516.94 890.413 2515.84 889.384 2514.08 888.869 2511.65 888.869ZM2460.97 888.869C2459.31 888.869 2457.66 889.278 2456.04 890.095 2454.42 890.913 2452.9 892.071 2451.46 893.569 2450.02 895.068 2448.71 896.884 2447.53 899.018 2446.35 901.153 2445.37 903.537 2444.58 906.171 2448.42 906.14 2451.73 905.838 2454.5 905.262 2457.27 904.687 2459.54 903.9 2461.31 902.901 2463.08 901.902 2464.38 900.721 2465.22 899.359 2466.05 897.997 2466.47 896.498 2466.47 894.863 2466.47 892.986 2466 891.518 2465.06 890.459 2464.12 889.399 2462.76 888.869 2460.97 888.869ZM2510.84 884.374C2513.14 884.374 2515.2 884.654 2517.03 885.214 2518.87 885.774 2520.55 886.538 2522.1 887.507L2526.41 884.374 2530.09 885.327C2528.09 894.318 2526.12 903.219 2524.16 912.028 2522.21 920.838 2520.39 929.133 2518.69 936.913 2518.12 939.002 2517.83 940.697 2517.83 941.999 2517.83 943.119 2518.25 943.914 2519.1 944.383 2519.95 944.852 2521.4 945.178 2523.46 945.359L2522.82 948.357 2507.25 948.357C2508.52 943.392 2509.71 938.783 2510.81 934.529 2511.92 930.276 2513.12 925.667 2514.42 920.702L2513.7 920.52C2512.18 922.488 2510.71 924.168 2509.27 925.561 2507.83 926.953 2506.42 928.096 2505.05 928.989 2503.67 929.882 2502.29 930.533 2500.91 930.942 2499.54 931.35 2498.15 931.555 2496.76 931.555 2493.16 931.555 2490.37 930.261 2488.4 927.672 2486.44 925.084 2485.45 921.322 2485.45 916.388 2485.45 913.451 2485.76 910.628 2486.38 907.919 2487 905.209 2487.88 902.666 2489.02 900.29 2490.15 897.913 2491.51 895.749 2493.08 893.796 2494.66 891.844 2496.38 890.171 2498.26 888.778 2500.13 887.386 2502.13 886.304 2504.25 885.532 2506.37 884.76 2508.57 884.374 2510.84 884.374ZM2462.92 884.374C2466.8 884.374 2469.74 885.221 2471.76 886.917 2473.77 888.612 2474.78 891.019 2474.78 894.137 2474.78 905.096 2464.41 910.575 2443.67 910.575 2443.52 911.362 2443.4 912.218 2443.31 913.141 2443.22 914.064 2443.17 915.071 2443.17 916.161 2443.17 919.461 2443.84 921.867 2445.19 923.381 2446.54 924.895 2448.64 925.651 2451.48 925.651 2452.96 925.651 2454.37 925.493 2455.7 925.175 2457.04 924.857 2458.35 924.365 2459.63 923.699 2460.92 923.033 2462.21 922.178 2463.51 921.133 2464.82 920.089 2466.18 918.84 2467.6 917.387L2471.01 921.065C2467.5 924.547 2463.99 927.165 2460.49 928.921 2457 930.677 2453.24 931.555 2449.21 931.555 2446.85 931.555 2444.75 931.199 2442.92 930.488 2441.09 929.776 2439.55 928.739 2438.29 927.377 2437.03 926.015 2436.08 924.357 2435.43 922.405 2434.78 920.452 2434.45 918.25 2434.45 915.797 2434.45 914.072 2434.6 912.278 2434.91 910.416 2435.21 908.555 2435.68 906.693 2436.31 904.831 2436.95 902.969 2437.74 901.153 2438.68 899.382 2439.61 897.611 2440.72 895.953 2441.99 894.409 2444.53 891.261 2447.6 888.801 2451.19 887.03 2454.77 885.259 2458.69 884.374 2462.92 884.374Z" fill-rule="evenodd"/><text fill="#000000" fill-opacity="0" font-family="Arial,Arial_MSFontService,sans-serif" font-size="63.9829" x="2434.45" y="940.359">𝑒𝑞</text><path d="M1670.62 777.708 1966.29 777.708 2261.96 777.708 2557.62 777.708 2557.62 785.708 2261.96 785.708 1966.29 785.708 1670.62 785.708Z" fill-rule="evenodd"/></g></svg>