<svg width="1429" height="349" xmlns="http://www.w3.org/2000/svg" xmlns:xlink="http://www.w3.org/1999/xlink" xml:space="preserve" overflow="hidden"><defs><clipPath id="clip0"><rect x="1286" y="603" width="1429" height="349"/></clipPath></defs><g clip-path="url(#clip0)" transform="translate(-1286 -603)"><path d="M1329.99 733.385 1354.99 733.385 1354.3 736.448C1352.72 736.781 1351.59 737.156 1350.9 737.573 1350.21 737.99 1349.6 738.615 1349.05 739.448 1348.51 740.281 1347.95 741.583 1347.37 743.354 1346.78 745.125 1346.05 748.01 1345.18 752.01L1340.74 771.948 1342.8 771.948C1344.55 771.948 1346.15 771.656 1347.59 771.073 1349.02 770.49 1350.7 769.427 1352.62 767.885 1354.53 766.344 1357.59 763.51 1361.77 759.385 1365.96 755.26 1368.94 752.125 1370.71 749.979 1372.48 747.833 1373.77 745.979 1374.59 744.417 1375.4 742.854 1375.8 741.427 1375.8 740.135 1375.8 739.094 1375.39 738.25 1374.55 737.604 1373.72 736.958 1372.53 736.573 1370.99 736.448L1371.68 733.385 1398.49 733.385 1397.8 736.448C1396.14 736.698 1394.25 737.562 1392.15 739.042 1390.04 740.521 1386.82 743.406 1382.49 747.698L1358.24 771.323 1371.55 803.323C1372.93 806.615 1374.06 808.99 1374.96 810.448 1375.86 811.906 1376.93 813.062 1378.18 813.917 1379.43 814.771 1380.97 815.344 1382.8 815.635L1382.12 818.698 1357.99 818.698 1358.68 815.635C1360.93 815.427 1362.05 814.427 1362.05 812.635 1362.05 811.51 1361.82 810.229 1361.37 808.792 1360.91 807.354 1360.37 805.865 1359.74 804.323L1351.62 784.448C1350.66 782.073 1349.82 780.406 1349.12 779.448 1348.41 778.49 1347.66 777.823 1346.87 777.448 1346.07 777.073 1344.85 776.885 1343.18 776.885L1339.68 776.885 1334.49 800.51C1333.95 803.01 1333.6 804.979 1333.43 806.417 1333.26 807.854 1333.18 809.135 1333.18 810.26 1333.18 812.135 1333.65 813.458 1334.59 814.229 1335.52 815 1337.1 815.469 1339.3 815.635L1338.62 818.698 1313.62 818.698 1314.3 815.635C1315.89 815.385 1317.07 814.979 1317.87 814.417 1318.66 813.854 1319.32 813.073 1319.87 812.073 1320.41 811.073 1320.91 809.854 1321.37 808.417 1321.82 806.979 1322.51 804.198 1323.43 800.073L1334.05 751.948C1334.97 747.781 1335.43 744.427 1335.43 741.885 1335.43 739.927 1334.94 738.562 1333.96 737.792 1332.98 737.021 1331.43 736.573 1329.3 736.448Z" fill-rule="evenodd"/><text fill="#000000" fill-opacity="0" font-family="Arial,Arial_MSFontService,sans-serif" font-size="85.3125" x="1313.62" y="808.034">𝐾</text><path d="M1472.18 803.023C1470.39 803.023 1468.73 803.409 1467.2 804.181 1465.68 804.953 1464.28 806.013 1463 807.36 1461.73 808.707 1460.6 810.266 1459.6 812.037 1458.6 813.808 1457.76 815.7 1457.08 817.714 1456.4 819.727 1455.88 821.785 1455.53 823.889 1455.19 825.993 1455.01 828.044 1455.01 830.042 1455.01 833.312 1455.47 835.741 1456.4 837.331 1457.32 838.92 1458.81 839.715 1460.87 839.715 1462.29 839.715 1463.84 839.223 1465.52 838.239 1467.2 837.255 1468.84 835.87 1470.43 834.084 1472.02 832.298 1473.46 830.141 1474.77 827.613 1476.07 825.085 1477.05 822.277 1477.72 819.189 1478.11 817.555 1478.44 815.912 1478.72 814.262 1478.99 812.613 1479.12 811.122 1479.12 809.79 1479.12 807.337 1478.57 805.597 1477.47 804.567 1476.36 803.538 1474.6 803.023 1472.18 803.023ZM1421.49 803.023C1419.83 803.023 1418.19 803.432 1416.57 804.25 1414.95 805.067 1413.42 806.225 1411.98 807.723 1410.54 809.222 1409.23 811.038 1408.05 813.173 1406.87 815.307 1405.89 817.691 1405.1 820.325 1408.95 820.294 1412.25 819.992 1415.02 819.417 1417.79 818.841 1420.06 818.054 1421.84 817.055 1423.61 816.056 1424.91 814.875 1425.74 813.513 1426.57 812.151 1426.99 810.652 1426.99 809.018 1426.99 807.141 1426.52 805.672 1425.58 804.613 1424.64 803.553 1423.28 803.023 1421.49 803.023ZM1471.36 798.528C1473.66 798.528 1475.73 798.808 1477.56 799.368 1479.39 799.928 1481.08 800.692 1482.62 801.661L1486.93 798.528 1490.61 799.481C1488.62 808.473 1486.64 817.373 1484.69 826.183 1482.73 834.992 1480.91 843.287 1479.22 851.067 1478.64 853.156 1478.35 854.852 1478.35 856.153 1478.35 857.273 1478.78 858.068 1479.62 858.537 1480.47 859.007 1481.92 859.332 1483.98 859.514L1483.35 862.511 1467.77 862.511C1469.04 857.546 1470.23 852.937 1471.34 848.683 1472.44 844.43 1473.64 839.821 1474.95 834.856L1474.22 834.674C1472.71 836.642 1471.23 838.322 1469.79 839.715 1468.35 841.107 1466.95 842.25 1465.57 843.143 1464.19 844.036 1462.81 844.687 1461.44 845.096 1460.06 845.505 1458.67 845.709 1457.28 845.709 1453.68 845.709 1450.89 844.415 1448.93 841.826 1446.96 839.238 1445.97 835.477 1445.97 830.542 1445.97 827.605 1446.29 824.782 1446.91 822.073 1447.53 819.364 1448.4 816.821 1449.54 814.444 1450.67 812.068 1452.03 809.903 1453.6 807.95 1455.18 805.998 1456.9 804.325 1458.78 802.933 1460.66 801.54 1462.66 800.458 1464.77 799.686 1466.89 798.914 1469.09 798.528 1471.36 798.528ZM1423.45 798.528C1427.32 798.528 1430.27 799.375 1432.28 801.071 1434.29 802.766 1435.3 805.173 1435.3 808.291 1435.3 819.25 1424.93 824.729 1404.19 824.729 1404.04 825.517 1403.92 826.372 1403.83 827.295 1403.74 828.219 1403.69 829.225 1403.69 830.315 1403.69 833.615 1404.37 836.021 1405.71 837.535 1407.06 839.049 1409.16 839.806 1412 839.806 1413.49 839.806 1414.89 839.647 1416.23 839.329 1417.56 839.011 1418.87 838.519 1420.15 837.853 1421.44 837.187 1422.74 836.332 1424.04 835.287 1425.34 834.243 1426.7 832.994 1428.12 831.541L1431.53 835.219C1428.02 838.701 1424.51 841.319 1421.02 843.075 1417.52 844.831 1413.76 845.709 1409.73 845.709 1407.37 845.709 1405.28 845.353 1403.44 844.642 1401.61 843.93 1400.07 842.894 1398.81 841.531 1397.56 840.169 1396.6 838.511 1395.95 836.559 1395.3 834.606 1394.97 832.404 1394.97 829.952 1394.97 828.226 1395.13 826.432 1395.43 824.571 1395.73 822.709 1396.2 820.847 1396.84 818.985 1397.47 817.123 1398.26 815.307 1399.2 813.536 1400.14 811.765 1401.24 810.107 1402.51 808.563 1405.06 805.415 1408.12 802.955 1411.71 801.184 1415.3 799.413 1419.21 798.528 1423.45 798.528Z" fill-rule="evenodd"/><text fill="#000000" fill-opacity="0" font-family="Arial,Arial_MSFontService,sans-serif" font-size="63.9829" x="1394.97" y="854.513">𝑒𝑞</text><path d="M1549.43 790.948 1626.43 790.948 1626.43 799.26 1549.43 799.26ZM1549.43 765.01 1626.43 765.01 1626.43 773.323 1549.43 773.323Z" fill-rule="evenodd"/><text fill="#000000" fill-opacity="0" font-family="Arial,Arial_MSFontService,sans-serif" font-size="34.25" x="1549.43" y="794.979">=</text><path d="M1948.47 621.458 1976.35 621.458 1976.35 740.646 1948.47 740.646 1948.47 735.833 1965.97 735.833 1965.97 626.271 1948.47 626.271ZM1685.7 621.458 1713.57 621.458 1713.57 626.271 1696.07 626.271 1696.07 735.833 1713.57 735.833 1713.57 740.646 1685.7 740.646Z" fill-rule="evenodd"/><path d="M1723.95 632.323 1750.26 632.323 1750.26 635.385C1748.43 635.844 1747.11 636.302 1746.3 636.76 1745.48 637.219 1744.84 637.792 1744.36 638.479 1743.88 639.167 1743.52 640.198 1743.3 641.573 1743.07 642.948 1742.95 645.073 1742.95 647.948L1742.95 670.073 1777.7 670.073 1777.7 647.948C1777.7 644.323 1777.52 641.844 1777.17 640.51 1776.82 639.177 1776.22 638.156 1775.39 637.448 1774.56 636.74 1772.91 636.052 1770.45 635.385L1770.45 632.323 1796.64 632.323 1796.64 635.385C1794.31 635.969 1792.68 636.625 1791.76 637.354 1790.85 638.083 1790.22 639.177 1789.89 640.635 1789.56 642.094 1789.39 644.531 1789.39 647.948L1789.39 702.01C1789.39 704.427 1789.45 706.24 1789.58 707.448 1789.7 708.656 1789.91 709.625 1790.2 710.354 1790.49 711.083 1790.85 711.677 1791.26 712.135 1791.68 712.594 1792.27 713.01 1793.05 713.385 1793.82 713.76 1795.01 714.156 1796.64 714.573L1796.64 717.635 1770.45 717.635 1770.45 714.573C1772.74 713.99 1774.35 713.344 1775.26 712.635 1776.18 711.927 1776.82 710.844 1777.17 709.385 1777.52 707.927 1777.7 705.469 1777.7 702.01L1777.7 675.823 1742.95 675.823 1742.95 702.01C1742.95 704.802 1743.05 706.844 1743.23 708.135 1743.42 709.427 1743.73 710.448 1744.17 711.198 1744.61 711.948 1745.25 712.573 1746.11 713.073 1746.96 713.573 1748.35 714.073 1750.26 714.573L1750.26 717.635 1723.95 717.635 1723.95 714.573C1726.54 713.906 1728.26 713.167 1729.14 712.354 1730.01 711.542 1730.59 710.385 1730.86 708.885 1731.13 707.385 1731.26 705.094 1731.26 702.01L1731.26 647.948C1731.26 645.073 1731.16 642.979 1730.95 641.667 1730.74 640.354 1730.4 639.333 1729.92 638.604 1729.44 637.875 1728.81 637.292 1728.01 636.854 1727.22 636.417 1725.87 635.927 1723.95 635.385Z" fill-rule="evenodd"/><text fill="#000000" fill-opacity="0" font-family="Arial,Arial_MSFontService,sans-serif" font-size="85.3125" x="1723.95" y="706.971">H</text><path d="M1839.81 631.323C1842.97 631.323 1846.07 631.49 1849.09 631.823 1852.11 632.156 1855.89 632.906 1860.43 634.073L1860.43 650.948 1854.24 650.948C1853.29 647.281 1852.08 644.427 1850.62 642.385 1849.16 640.344 1847.45 638.917 1845.49 638.104 1843.54 637.292 1840.99 636.885 1837.87 636.885 1835.16 636.885 1832.73 637.385 1830.59 638.385 1828.44 639.385 1826.74 640.896 1825.49 642.917 1824.24 644.938 1823.62 647.344 1823.62 650.135 1823.62 653.094 1824.15 655.594 1825.21 657.635 1826.27 659.677 1827.93 661.573 1830.18 663.323 1832.43 665.073 1835.76 667.031 1840.18 669.198 1845.51 671.865 1849.65 674.344 1852.59 676.635 1855.52 678.927 1857.82 681.542 1859.46 684.479 1861.11 687.417 1861.93 690.844 1861.93 694.76 1861.93 699.135 1861.24 702.833 1859.87 705.854 1858.49 708.875 1856.59 711.333 1854.15 713.229 1851.71 715.125 1848.8 716.5 1845.4 717.354 1842 718.208 1838.29 718.635 1834.24 718.635 1827.7 718.635 1820.16 717.531 1811.62 715.323L1811.62 698.198 1817.87 698.198C1818.7 701.865 1819.83 704.76 1821.24 706.885 1822.66 709.01 1824.49 710.583 1826.74 711.604 1828.99 712.625 1831.89 713.135 1835.43 713.135 1840.31 713.135 1844.05 711.865 1846.65 709.323 1849.25 706.781 1850.56 703.073 1850.56 698.198 1850.56 695.073 1850.01 692.448 1848.93 690.323 1847.85 688.198 1846.08 686.198 1843.62 684.323 1841.16 682.448 1837.41 680.26 1832.37 677.76 1827.49 675.344 1823.64 672.979 1820.81 670.667 1817.97 668.354 1815.86 665.844 1814.46 663.135 1813.07 660.427 1812.37 657.469 1812.37 654.26 1812.37 649.594 1813.46 645.542 1815.65 642.104 1817.84 638.667 1821.05 636.01 1825.27 634.135 1829.5 632.26 1834.35 631.323 1839.81 631.323Z" fill-rule="evenodd"/><text fill="#000000" fill-opacity="0" font-family="Arial,Arial_MSFontService,sans-serif" font-size="87.3125" x="1811.62" y="707.721">S</text><path d="M1879.97 640.572 1932.28 640.572 1932.28 647.52 1879.97 647.52Z" fill-rule="evenodd"/><text fill="#000000" fill-opacity="0" font-family="Arial,Arial_MSFontService,sans-serif" font-size="6.94775" x="1879.97" y="646.651">−</text><path d="M2073.74 701.961C2071.95 701.961 2070.3 702.347 2068.77 703.119 2067.24 703.891 2065.84 704.95 2064.57 706.298 2063.29 707.645 2062.16 709.204 2061.16 710.975 2060.16 712.746 2059.32 714.638 2058.64 716.651 2057.96 718.664 2057.44 720.723 2057.1 722.827 2056.75 724.931 2056.57 726.982 2056.57 728.98 2056.57 732.25 2057.04 734.679 2057.96 736.268 2058.88 737.858 2060.37 738.652 2062.43 738.652 2063.85 738.652 2065.41 738.16 2067.09 737.177 2068.77 736.193 2070.4 734.808 2071.99 733.021 2073.58 731.235 2075.03 729.078 2076.33 726.551 2077.63 724.023 2078.61 721.215 2079.28 718.127 2079.67 716.492 2080.01 714.85 2080.28 713.2 2080.55 711.55 2080.69 710.059 2080.69 708.727 2080.69 706.275 2080.13 704.534 2079.03 703.505 2077.92 702.476 2076.16 701.961 2073.74 701.961ZM2023.06 701.961C2021.39 701.961 2019.75 702.37 2018.13 703.187 2016.51 704.004 2014.98 705.162 2013.54 706.661 2012.11 708.159 2010.8 709.976 2009.62 712.11 2008.43 714.244 2007.45 716.628 2006.66 719.262 2010.51 719.232 2013.82 718.929 2016.59 718.354 2019.36 717.779 2021.63 716.992 2023.4 715.993 2025.17 714.994 2026.47 713.813 2027.3 712.451 2028.14 711.088 2028.55 709.59 2028.55 707.955 2028.55 706.078 2028.08 704.61 2027.14 703.55 2026.21 702.491 2024.84 701.961 2023.06 701.961ZM2072.92 697.465C2075.22 697.465 2077.29 697.745 2079.12 698.305 2080.95 698.865 2082.64 699.63 2084.18 700.599L2088.5 697.465 2092.18 698.419C2090.18 707.41 2088.2 716.311 2086.25 725.12 2084.3 733.93 2082.47 742.225 2080.78 750.005 2080.2 752.094 2079.91 753.789 2079.91 755.091 2079.91 756.211 2080.34 757.006 2081.19 757.475 2082.03 757.944 2083.49 758.27 2085.55 758.451L2084.91 761.448 2069.33 761.448C2070.61 756.483 2071.79 751.874 2072.9 747.621 2074 743.367 2075.21 738.758 2076.51 733.793L2075.78 733.612C2074.27 735.58 2072.79 737.26 2071.35 738.652 2069.92 740.045 2068.51 741.188 2067.13 742.081 2065.75 742.974 2064.38 743.625 2063 744.033 2061.62 744.442 2060.24 744.646 2058.84 744.646 2055.24 744.646 2052.46 743.352 2050.49 740.764 2048.52 738.176 2047.54 734.414 2047.54 729.479 2047.54 726.543 2047.85 723.72 2048.47 721.01 2049.09 718.301 2049.97 715.758 2051.1 713.382 2052.24 711.005 2053.59 708.841 2055.17 706.888 2056.74 704.935 2058.47 703.263 2060.34 701.87 2062.22 700.478 2064.22 699.395 2066.34 698.623 2068.46 697.851 2070.65 697.465 2072.92 697.465ZM2025.01 697.465C2028.88 697.465 2031.83 698.313 2033.84 700.008 2035.85 701.704 2036.86 704.11 2036.86 707.229 2036.86 718.188 2026.49 723.667 2005.76 723.667 2005.6 724.454 2005.48 725.309 2005.39 726.233 2005.3 727.156 2005.26 728.163 2005.26 729.252 2005.26 732.552 2005.93 734.959 2007.28 736.473 2008.62 737.986 2010.72 738.743 2013.57 738.743 2015.05 738.743 2016.46 738.584 2017.79 738.266 2019.12 737.948 2020.43 737.457 2021.72 736.791 2023 736.125 2024.3 735.269 2025.6 734.225 2026.9 733.18 2028.26 731.932 2029.69 730.479L2033.09 734.157C2029.58 737.638 2026.08 740.257 2022.58 742.013 2019.08 743.769 2015.32 744.646 2011.3 744.646 2008.93 744.646 2006.84 744.291 2005.01 743.579 2003.17 742.868 2001.63 741.831 2000.37 740.469 1999.12 739.106 1998.16 737.449 1997.51 735.496 1996.86 733.544 1996.54 731.341 1996.54 728.889 1996.54 727.164 1996.69 725.37 1996.99 723.508 1997.29 721.646 1997.76 719.784 1998.4 717.923 1999.03 716.061 1999.82 714.244 2000.76 712.473 2001.7 710.702 2002.8 709.045 2004.08 707.501 2006.62 704.353 2009.68 701.893 2013.27 700.122 2016.86 698.351 2020.77 697.465 2025.01 697.465Z" fill-rule="evenodd"/><text fill="#000000" fill-opacity="0" font-family="Arial,Arial_MSFontService,sans-serif" font-size="63.9829" x="1996.54" y="753.45">𝑒𝑞</text><path d="M2401.15 621.458 2429.02 621.458 2429.02 740.646 2401.15 740.646 2401.15 735.833 2418.65 735.833 2418.65 626.271 2401.15 626.271ZM2120.27 621.458 2148.14 621.458 2148.14 626.271 2130.64 626.271 2130.64 735.833 2148.14 735.833 2148.14 740.646 2120.27 740.646Z" fill-rule="evenodd"/><path d="M2318.27 632.323 2337.83 632.323 2368.71 683.823C2370.21 686.323 2371.47 688.51 2372.49 690.385 2373.51 692.26 2374.56 694.365 2375.65 696.698L2376.46 696.698C2376.25 694.156 2376.06 689.104 2375.9 681.542 2375.73 673.979 2375.65 667.156 2375.65 661.073L2375.65 647.948C2375.65 645.073 2375.56 642.969 2375.4 641.635 2375.23 640.302 2374.93 639.281 2374.49 638.573 2374.05 637.865 2373.45 637.292 2372.68 636.854 2371.91 636.417 2370.56 635.927 2368.65 635.385L2368.65 632.323 2391.15 632.323 2391.15 635.385C2389.27 635.885 2387.95 636.344 2387.18 636.76 2386.41 637.177 2385.78 637.719 2385.3 638.385 2384.82 639.052 2384.46 640.052 2384.21 641.385 2383.96 642.719 2383.83 644.906 2383.83 647.948L2383.83 718.01 2376.02 718.01 2341.21 659.635C2339.04 656.01 2337.5 653.365 2336.58 651.698 2335.67 650.031 2334.81 648.385 2334.02 646.76L2332.96 646.76C2333.25 649.969 2333.46 655.771 2333.58 664.167 2333.71 672.562 2333.77 680.927 2333.77 689.26L2333.77 702.01C2333.77 704.802 2333.86 706.844 2334.05 708.135 2334.24 709.427 2334.55 710.448 2334.99 711.198 2335.43 711.948 2336.07 712.573 2336.93 713.073 2337.78 713.573 2339.17 714.073 2341.08 714.573L2341.08 717.635 2318.27 717.635 2318.27 714.573C2320.85 713.906 2322.58 713.167 2323.46 712.354 2324.33 711.542 2324.91 710.385 2325.18 708.885 2325.45 707.385 2325.58 705.094 2325.58 702.01L2325.58 647.948C2325.58 645.073 2325.48 642.979 2325.27 641.667 2325.06 640.354 2324.72 639.333 2324.24 638.604 2323.76 637.875 2323.12 637.292 2322.33 636.854 2321.54 636.417 2320.19 635.927 2318.27 635.385ZM2158.52 632.323 2184.83 632.323 2184.83 635.385C2183 635.844 2181.68 636.302 2180.86 636.76 2180.05 637.219 2179.41 637.792 2178.93 638.479 2178.45 639.167 2178.09 640.198 2177.86 641.573 2177.64 642.948 2177.52 645.073 2177.52 647.948L2177.52 670.073 2212.27 670.073 2212.27 647.948C2212.27 644.323 2212.09 641.844 2211.74 640.51 2211.39 639.177 2210.79 638.156 2209.96 637.448 2209.12 636.74 2207.48 636.052 2205.02 635.385L2205.02 632.323 2231.21 632.323 2231.21 635.385C2228.88 635.969 2227.25 636.625 2226.33 637.354 2225.42 638.083 2224.79 639.177 2224.46 640.635 2224.12 642.094 2223.96 644.531 2223.96 647.948L2223.96 702.01C2223.96 704.427 2224.02 706.24 2224.15 707.448 2224.27 708.656 2224.48 709.625 2224.77 710.354 2225.06 711.083 2225.42 711.677 2225.83 712.135 2226.25 712.594 2226.84 713.01 2227.61 713.385 2228.39 713.76 2229.58 714.156 2231.21 714.573L2231.21 717.635 2205.02 717.635 2205.02 714.573C2207.31 713.99 2208.92 713.344 2209.83 712.635 2210.75 711.927 2211.39 710.844 2211.74 709.385 2212.09 707.927 2212.27 705.469 2212.27 702.01L2212.27 675.823 2177.52 675.823 2177.52 702.01C2177.52 704.802 2177.61 706.844 2177.8 708.135 2177.99 709.427 2178.3 710.448 2178.74 711.198 2179.18 711.948 2179.82 712.573 2180.68 713.073 2181.53 713.573 2182.92 714.073 2184.83 714.573L2184.83 717.635 2158.52 717.635 2158.52 714.573C2161.1 713.906 2162.83 713.167 2163.71 712.354 2164.58 711.542 2165.16 710.385 2165.43 708.885 2165.7 707.385 2165.83 705.094 2165.83 702.01L2165.83 647.948C2165.83 645.073 2165.73 642.979 2165.52 641.667 2165.31 640.354 2164.97 639.333 2164.49 638.604 2164.01 637.875 2163.38 637.292 2162.58 636.854 2161.79 636.417 2160.44 635.927 2158.52 635.385ZM2282.58 631.323C2286.38 631.323 2289.88 631.521 2293.08 631.917 2296.29 632.312 2299.96 633.052 2304.08 634.135L2304.08 651.448 2297.9 651.448C2296.9 647.823 2295.62 644.938 2294.08 642.792 2292.54 640.646 2290.75 639.115 2288.71 638.198 2286.67 637.281 2284.21 636.823 2281.33 636.823 2277.04 636.823 2273.22 638.25 2269.86 641.104 2266.51 643.958 2263.88 648.25 2261.96 653.979 2260.04 659.708 2259.08 666.635 2259.08 674.76 2259.08 682.927 2259.88 689.896 2261.46 695.667 2263.04 701.437 2265.38 705.792 2268.46 708.729 2271.54 711.667 2275.33 713.135 2279.83 713.135 2283.25 713.135 2286.04 712.646 2288.21 711.667 2290.38 710.687 2292.2 709.135 2293.68 707.01 2295.16 704.885 2296.56 701.76 2297.9 697.635L2304.08 697.635 2304.08 715.51C2300.17 716.552 2296.16 717.333 2292.05 717.854 2287.95 718.375 2283.44 718.635 2278.52 718.635 2267.94 718.635 2259.94 715.052 2254.52 707.885 2249.1 700.719 2246.4 690.031 2246.4 675.823 2246.4 666.906 2247.8 659.094 2250.61 652.385 2253.43 645.677 2257.56 640.49 2263.02 636.823 2268.48 633.156 2275 631.323 2282.58 631.323Z" fill-rule="evenodd"/><text fill="#000000" fill-opacity="0" font-family="Arial,Arial_MSFontService,sans-serif" font-size="87.3125" x="2158.52" y="707.721">HCN</text><path d="M2526.41 701.961C2524.63 701.961 2522.97 702.347 2521.44 703.119 2519.91 703.891 2518.51 704.95 2517.24 706.298 2515.97 707.645 2514.83 709.204 2513.83 710.975 2512.83 712.746 2511.99 714.638 2511.31 716.651 2510.63 718.664 2510.12 720.723 2509.77 722.827 2509.42 724.931 2509.25 726.982 2509.25 728.98 2509.25 732.25 2509.71 734.679 2510.63 736.268 2511.56 737.858 2513.05 738.652 2515.1 738.652 2516.53 738.652 2518.08 738.16 2519.76 737.177 2521.44 736.193 2523.07 734.808 2524.66 733.021 2526.25 731.235 2527.7 729.078 2529 726.551 2530.3 724.023 2531.29 721.215 2531.95 718.127 2532.35 716.492 2532.68 714.85 2532.95 713.2 2533.22 711.55 2533.36 710.059 2533.36 708.727 2533.36 706.275 2532.81 704.534 2531.7 703.505 2530.6 702.476 2528.83 701.961 2526.41 701.961ZM2475.73 701.961C2474.06 701.961 2472.42 702.37 2470.8 703.187 2469.18 704.004 2467.65 705.162 2466.22 706.661 2464.78 708.159 2463.47 709.976 2462.29 712.11 2461.11 714.244 2460.12 716.628 2459.34 719.262 2463.18 719.232 2466.49 718.929 2469.26 718.354 2472.03 717.779 2474.3 716.992 2476.07 715.993 2477.84 714.994 2479.14 713.813 2479.98 712.451 2480.81 711.088 2481.22 709.59 2481.22 707.955 2481.22 706.078 2480.76 704.61 2479.82 703.55 2478.88 702.491 2477.52 701.961 2475.73 701.961ZM2525.59 697.465C2527.9 697.465 2529.96 697.745 2531.79 698.305 2533.62 698.865 2535.31 699.63 2536.86 700.599L2541.17 697.465 2544.85 698.419C2542.85 707.41 2540.88 716.311 2538.92 725.12 2536.97 733.93 2535.15 742.225 2533.45 750.005 2532.88 752.094 2532.59 753.789 2532.59 755.091 2532.59 756.211 2533.01 757.006 2533.86 757.475 2534.71 757.944 2536.16 758.27 2538.22 758.451L2537.58 761.448 2522.01 761.448C2523.28 756.483 2524.47 751.874 2525.57 747.621 2526.68 743.367 2527.88 738.758 2529.18 733.793L2528.46 733.612C2526.94 735.58 2525.47 737.26 2524.03 738.652 2522.59 740.045 2521.18 741.188 2519.8 742.081 2518.43 742.974 2517.05 743.625 2515.67 744.033 2514.29 744.442 2512.91 744.646 2511.52 744.646 2507.91 744.646 2505.13 743.352 2503.16 740.764 2501.19 738.176 2500.21 734.414 2500.21 729.479 2500.21 726.543 2500.52 723.72 2501.14 721.01 2501.76 718.301 2502.64 715.758 2503.77 713.382 2504.91 711.005 2506.26 708.841 2507.84 706.888 2509.41 704.935 2511.14 703.263 2513.02 701.87 2514.89 700.478 2516.89 699.395 2519.01 698.623 2521.13 697.851 2523.32 697.465 2525.59 697.465ZM2477.68 697.465C2481.56 697.465 2484.5 698.313 2486.51 700.008 2488.53 701.704 2489.53 704.11 2489.53 707.229 2489.53 718.188 2479.17 723.667 2458.43 723.667 2458.28 724.454 2458.16 725.309 2458.07 726.233 2457.97 727.156 2457.93 728.163 2457.93 729.252 2457.93 732.552 2458.6 734.959 2459.95 736.473 2461.3 737.986 2463.39 738.743 2466.24 738.743 2467.72 738.743 2469.13 738.584 2470.46 738.266 2471.79 737.948 2473.1 737.457 2474.39 736.791 2475.68 736.125 2476.97 735.269 2478.27 734.225 2479.57 733.18 2480.94 731.932 2482.36 730.479L2485.77 734.157C2482.25 737.638 2478.75 740.257 2475.25 742.013 2471.76 743.769 2467.99 744.646 2463.97 744.646 2461.61 744.646 2459.51 744.291 2457.68 743.579 2455.85 742.868 2454.3 741.831 2453.05 740.469 2451.79 739.106 2450.84 737.449 2450.19 735.496 2449.54 733.544 2449.21 731.341 2449.21 728.889 2449.21 727.164 2449.36 725.37 2449.66 723.508 2449.97 721.646 2450.44 719.784 2451.07 717.923 2451.71 716.061 2452.49 714.244 2453.43 712.473 2454.37 710.702 2455.48 709.045 2456.75 707.501 2459.29 704.353 2462.36 701.893 2465.94 700.122 2469.53 698.351 2473.44 697.465 2477.68 697.465Z" fill-rule="evenodd"/><text fill="#000000" fill-opacity="0" font-family="Arial,Arial_MSFontService,sans-serif" font-size="63.9829" x="2449.21" y="753.45">𝑒𝑞</text><path d="M1944.87 808.367 1972.75 808.367 1972.75 927.554 1944.87 927.554 1944.87 922.742 1962.37 922.742 1962.37 813.179 1944.87 813.179ZM1699.93 808.367 1727.81 808.367 1727.81 813.179 1710.31 813.179 1710.31 922.742 1727.81 922.742 1727.81 927.554 1699.93 927.554Z" fill-rule="evenodd"/><path d="M1738.18 819.231 1764.5 819.231 1764.5 822.294C1762.66 822.752 1761.34 823.21 1760.53 823.669 1759.71 824.127 1759.07 824.7 1758.59 825.387 1758.11 826.075 1757.76 827.106 1757.53 828.481 1757.3 829.856 1757.18 831.981 1757.18 834.856L1757.18 856.981 1791.93 856.981 1791.93 834.856C1791.93 831.231 1791.76 828.752 1791.4 827.419 1791.05 826.085 1790.45 825.065 1789.62 824.356 1788.79 823.648 1787.14 822.96 1784.68 822.294L1784.68 819.231 1810.87 819.231 1810.87 822.294C1808.54 822.877 1806.91 823.533 1806 824.262 1805.08 824.992 1804.45 826.085 1804.12 827.544 1803.79 829.002 1803.62 831.44 1803.62 834.856L1803.62 888.919C1803.62 891.335 1803.68 893.148 1803.81 894.356 1803.93 895.565 1804.14 896.533 1804.43 897.262 1804.72 897.992 1805.08 898.585 1805.5 899.044 1805.91 899.502 1806.51 899.919 1807.28 900.294 1808.05 900.669 1809.25 901.065 1810.87 901.481L1810.87 904.544 1784.68 904.544 1784.68 901.481C1786.97 900.898 1788.58 900.252 1789.5 899.544 1790.41 898.835 1791.05 897.752 1791.4 896.294 1791.76 894.835 1791.93 892.377 1791.93 888.919L1791.93 862.731 1757.18 862.731 1757.18 888.919C1757.18 891.71 1757.28 893.752 1757.46 895.044 1757.65 896.335 1757.96 897.356 1758.4 898.106 1758.84 898.856 1759.49 899.481 1760.34 899.981 1761.19 900.481 1762.58 900.981 1764.5 901.481L1764.5 904.544 1738.18 904.544 1738.18 901.481C1740.77 900.815 1742.5 900.075 1743.37 899.262 1744.25 898.45 1744.82 897.294 1745.09 895.794 1745.36 894.294 1745.5 892.002 1745.5 888.919L1745.5 834.856C1745.5 831.981 1745.39 829.887 1745.18 828.575 1744.97 827.262 1744.63 826.242 1744.15 825.512 1743.67 824.783 1743.04 824.2 1742.25 823.762 1741.45 823.325 1740.1 822.835 1738.18 822.294Z" fill-rule="evenodd"/><text fill="#000000" fill-opacity="0" font-family="Arial,Arial_MSFontService,sans-serif" font-size="85.3125" x="1738.18" y="893.88">H</text><path d="M1845.96 871.931C1849.11 871.931 1851.79 872.287 1854.02 872.998 1856.25 873.71 1858.05 874.671 1859.45 875.882 1860.84 877.093 1861.85 878.546 1862.47 880.241 1863.09 881.937 1863.4 883.768 1863.4 885.736 1863.4 886.917 1863.31 888.014 1863.15 889.028 1862.98 890.042 1862.69 891.041 1862.28 892.025 1861.88 893.009 1861.34 894.001 1860.67 895 1860.01 895.999 1859.17 897.058 1858.18 898.178 1857.42 899.147 1856.43 900.267 1855.22 901.539 1854.01 902.81 1852.69 904.172 1851.25 905.626 1849.81 907.079 1848.31 908.592 1846.73 910.167 1845.16 911.741 1843.63 913.3 1842.15 914.844 1840.66 916.388 1839.3 917.886 1838.06 919.339 1836.82 920.793 1835.8 922.125 1835.02 923.336L1851.82 923.336C1853.24 923.336 1854.38 923.283 1855.22 923.177 1856.07 923.071 1856.77 922.836 1857.33 922.473 1857.9 922.109 1858.37 921.557 1858.77 920.815 1859.16 920.074 1859.61 919.052 1860.13 917.75L1864.35 917.75C1864.2 919.9 1864.06 922.064 1863.92 924.244 1863.78 926.423 1863.64 928.588 1863.49 930.737L1825.03 930.737 1825.03 928.376C1825.75 926.741 1826.6 925.129 1827.57 923.54 1828.54 921.951 1829.63 920.339 1830.84 918.704 1832.05 917.069 1833.43 915.381 1834.97 913.641 1836.51 911.9 1838.22 910.091 1840.1 908.214 1842.95 905.368 1845.26 902.939 1847.05 900.926 1848.84 898.912 1850.24 897.119 1851.27 895.545 1852.3 893.97 1853.01 892.517 1853.38 891.185 1853.76 889.853 1853.95 888.43 1853.95 886.917 1853.95 885.373 1853.73 883.95 1853.29 882.648 1852.85 881.346 1852.23 880.241 1851.41 879.333 1850.59 878.425 1849.55 877.714 1848.3 877.199 1847.04 876.684 1845.6 876.427 1843.96 876.427 1841.15 876.427 1838.78 877.191 1836.88 878.72 1834.97 880.249 1833.49 882.466 1832.43 885.373L1826.48 885.373 1826.48 876.518C1830.35 874.913 1833.92 873.748 1837.17 873.021 1840.43 872.295 1843.36 871.931 1845.96 871.931Z" fill-rule="evenodd"/><text fill="#000000" fill-opacity="0" font-family="Arial,Arial_MSFontService,sans-serif" font-size="58.8062" x="1825.03" y="923.387">2</text><path d="M1913.78 818.231C1916.95 818.231 1920.04 818.398 1923.06 818.731 1926.08 819.065 1929.86 819.815 1934.41 820.981L1934.41 837.856 1928.22 837.856C1927.26 834.19 1926.05 831.335 1924.59 829.294 1923.14 827.252 1921.43 825.825 1919.47 825.012 1917.51 824.2 1914.97 823.794 1911.84 823.794 1909.14 823.794 1906.71 824.294 1904.56 825.294 1902.42 826.294 1900.72 827.804 1899.47 829.825 1898.22 831.846 1897.59 834.252 1897.59 837.044 1897.59 840.002 1898.12 842.502 1899.19 844.544 1900.25 846.585 1901.91 848.481 1904.16 850.231 1906.41 851.981 1909.74 853.94 1914.16 856.106 1919.49 858.773 1923.62 861.252 1926.56 863.544 1929.5 865.835 1931.79 868.45 1933.44 871.387 1935.08 874.325 1935.91 877.752 1935.91 881.669 1935.91 886.044 1935.22 889.742 1933.84 892.762 1932.47 895.783 1930.56 898.242 1928.12 900.137 1925.69 902.033 1922.77 903.408 1919.37 904.262 1915.98 905.117 1912.26 905.544 1908.22 905.544 1901.68 905.544 1894.14 904.44 1885.59 902.231L1885.59 885.106 1891.84 885.106C1892.68 888.773 1893.8 891.669 1895.22 893.794 1896.64 895.919 1898.47 897.492 1900.72 898.512 1902.97 899.533 1905.86 900.044 1909.41 900.044 1914.28 900.044 1918.02 898.773 1920.62 896.231 1923.23 893.69 1924.53 889.981 1924.53 885.106 1924.53 881.981 1923.99 879.356 1922.91 877.231 1921.82 875.106 1920.05 873.106 1917.59 871.231 1915.14 869.356 1911.39 867.169 1906.34 864.669 1901.47 862.252 1897.61 859.887 1894.78 857.575 1891.95 855.262 1889.83 852.752 1888.44 850.044 1887.04 847.335 1886.34 844.377 1886.34 841.169 1886.34 836.502 1887.44 832.45 1889.62 829.012 1891.81 825.575 1895.02 822.919 1899.25 821.044 1903.48 819.169 1908.32 818.231 1913.78 818.231Z" fill-rule="evenodd"/><text fill="#000000" fill-opacity="0" font-family="Arial,Arial_MSFontService,sans-serif" font-size="87.3125" x="1885.59" y="894.63">S</text><path d="M2070.14 888.869C2068.35 888.869 2066.7 889.255 2065.17 890.027 2063.64 890.799 2062.24 891.859 2060.97 893.206 2059.7 894.553 2058.56 896.112 2057.56 897.883 2056.56 899.654 2055.72 901.546 2055.04 903.559 2054.36 905.573 2053.85 907.631 2053.5 909.735 2053.15 911.839 2052.98 913.89 2052.98 915.888 2052.98 919.158 2053.44 921.587 2054.36 923.177 2055.28 924.766 2056.78 925.561 2058.83 925.561 2060.26 925.561 2061.81 925.069 2063.49 924.085 2065.17 923.101 2066.8 921.716 2068.39 919.93 2069.98 918.144 2071.43 915.987 2072.73 913.459 2074.03 910.931 2075.02 908.123 2075.68 905.035 2076.07 903.401 2076.41 901.758 2076.68 900.108 2076.95 898.458 2077.09 896.967 2077.09 895.635 2077.09 893.183 2076.54 891.443 2075.43 890.413 2074.33 889.384 2072.56 888.869 2070.14 888.869ZM2019.46 888.869C2017.79 888.869 2016.15 889.278 2014.53 890.095 2012.91 890.913 2011.38 892.071 2009.95 893.569 2008.51 895.068 2007.2 896.884 2006.02 899.018 2004.84 901.153 2003.85 903.537 2003.07 906.171 2006.91 906.14 2010.22 905.838 2012.99 905.262 2015.76 904.687 2018.03 903.9 2019.8 902.901 2021.57 901.902 2022.87 900.721 2023.7 899.359 2024.54 897.997 2024.95 896.498 2024.95 894.863 2024.95 892.986 2024.48 891.518 2023.55 890.459 2022.61 889.399 2021.25 888.869 2019.46 888.869ZM2069.32 884.374C2071.62 884.374 2073.69 884.654 2075.52 885.214 2077.35 885.774 2079.04 886.538 2080.59 887.507L2084.9 884.374 2088.58 885.327C2086.58 894.318 2084.6 903.219 2082.65 912.028 2080.7 920.838 2078.88 929.133 2077.18 936.913 2076.6 939.002 2076.32 940.697 2076.32 941.999 2076.32 943.119 2076.74 943.914 2077.59 944.383 2078.44 944.852 2079.89 945.178 2081.95 945.359L2081.31 948.357 2065.74 948.357C2067.01 943.392 2068.2 938.783 2069.3 934.529 2070.41 930.276 2071.61 925.667 2072.91 920.702L2072.18 920.52C2070.67 922.488 2069.2 924.168 2067.76 925.561 2066.32 926.953 2064.91 928.096 2063.53 928.989 2062.16 929.882 2060.78 930.533 2059.4 930.942 2058.02 931.35 2056.64 931.555 2055.25 931.555 2051.64 931.555 2048.86 930.261 2046.89 927.672 2044.92 925.084 2043.94 921.322 2043.94 916.388 2043.94 913.451 2044.25 910.628 2044.87 907.919 2045.49 905.209 2046.37 902.666 2047.5 900.29 2048.64 897.913 2049.99 895.749 2051.57 893.796 2053.14 891.844 2054.87 890.171 2056.75 888.778 2058.62 887.386 2060.62 886.304 2062.74 885.532 2064.86 884.76 2067.05 884.374 2069.32 884.374ZM2021.41 884.374C2025.29 884.374 2028.23 885.221 2030.24 886.917 2032.26 888.612 2033.26 891.019 2033.26 894.137 2033.26 905.096 2022.9 910.575 2002.16 910.575 2002.01 911.362 2001.89 912.218 2001.79 913.141 2001.7 914.064 2001.66 915.071 2001.66 916.161 2001.66 919.461 2002.33 921.867 2003.68 923.381 2005.03 924.895 2007.12 925.651 2009.97 925.651 2011.45 925.651 2012.86 925.493 2014.19 925.175 2015.52 924.857 2016.83 924.365 2018.12 923.699 2019.41 923.033 2020.7 922.178 2022 921.133 2023.3 920.089 2024.67 918.84 2026.09 917.387L2029.49 921.065C2025.98 924.547 2022.48 927.165 2018.98 928.921 2015.49 930.677 2011.72 931.555 2007.7 931.555 2005.34 931.555 2003.24 931.199 2001.41 930.488 1999.58 929.776 1998.03 928.739 1996.78 927.377 1995.52 926.015 1994.57 924.357 1993.92 922.405 1993.26 920.452 1992.94 918.25 1992.94 915.797 1992.94 914.072 1993.09 912.278 1993.39 910.416 1993.7 908.555 1994.17 906.693 1994.8 904.831 1995.44 902.969 1996.22 901.153 1997.16 899.382 1998.1 897.611 1999.21 895.953 2000.48 894.409 2003.02 891.261 2006.09 888.801 2009.67 887.03 2013.26 885.259 2017.17 884.374 2021.41 884.374Z" fill-rule="evenodd"/><text fill="#000000" fill-opacity="0" font-family="Arial,Arial_MSFontService,sans-serif" font-size="63.9829" x="1992.94" y="940.359">𝑒𝑞</text><path d="M2386.89 808.367 2414.77 808.367 2414.77 927.554 2386.89 927.554 2386.89 922.742 2404.39 922.742 2404.39 813.179 2386.89 813.179ZM2116.67 808.367 2144.55 808.367 2144.55 813.179 2127.05 813.179 2127.05 922.742 2144.55 922.742 2144.55 927.554 2116.67 927.554Z" fill-rule="evenodd"/><path d="M2226.67 819.231 2246.24 819.231 2277.11 870.731C2278.61 873.231 2279.87 875.419 2280.89 877.294 2281.91 879.169 2282.96 881.273 2284.05 883.606L2284.86 883.606C2284.65 881.065 2284.46 876.012 2284.3 868.45 2284.13 860.887 2284.05 854.065 2284.05 847.981L2284.05 834.856C2284.05 831.981 2283.96 829.877 2283.8 828.544 2283.63 827.21 2283.33 826.19 2282.89 825.481 2282.45 824.773 2281.85 824.2 2281.08 823.762 2280.31 823.325 2278.96 822.835 2277.05 822.294L2277.05 819.231 2299.55 819.231 2299.55 822.294C2297.67 822.794 2296.35 823.252 2295.58 823.669 2294.81 824.085 2294.18 824.627 2293.7 825.294 2293.22 825.96 2292.86 826.96 2292.61 828.294 2292.36 829.627 2292.24 831.815 2292.24 834.856L2292.24 904.919 2284.42 904.919 2249.61 846.544C2247.44 842.919 2245.9 840.273 2244.99 838.606 2244.07 836.94 2243.21 835.294 2242.42 833.669L2241.36 833.669C2241.65 836.877 2241.86 842.679 2241.99 851.075 2242.11 859.471 2242.17 867.835 2242.17 876.169L2242.17 888.919C2242.17 891.71 2242.27 893.752 2242.45 895.044 2242.64 896.335 2242.95 897.356 2243.39 898.106 2243.83 898.856 2244.47 899.481 2245.33 899.981 2246.18 900.481 2247.57 900.981 2249.49 901.481L2249.49 904.544 2226.67 904.544 2226.67 901.481C2229.26 900.815 2230.99 900.075 2231.86 899.262 2232.74 898.45 2233.31 897.294 2233.58 895.794 2233.85 894.294 2233.99 892.002 2233.99 888.919L2233.99 834.856C2233.99 831.981 2233.88 829.887 2233.67 828.575 2233.46 827.262 2233.12 826.242 2232.64 825.512 2232.16 824.783 2231.53 824.2 2230.74 823.762 2229.94 823.325 2228.59 822.835 2226.67 822.294ZM2190.99 818.231C2194.78 818.231 2198.28 818.429 2201.49 818.825 2204.69 819.221 2208.36 819.96 2212.49 821.044L2212.49 838.356 2206.3 838.356C2205.3 834.731 2204.03 831.846 2202.49 829.7 2200.94 827.554 2199.15 826.023 2197.11 825.106 2195.07 824.19 2192.61 823.731 2189.74 823.731 2185.44 823.731 2181.62 825.158 2178.27 828.012 2174.91 830.867 2172.28 835.158 2170.36 840.887 2168.44 846.617 2167.49 853.544 2167.49 861.669 2167.49 869.835 2168.28 876.804 2169.86 882.575 2171.44 888.346 2173.78 892.7 2176.86 895.637 2179.94 898.575 2183.74 900.044 2188.24 900.044 2191.65 900.044 2194.44 899.554 2196.61 898.575 2198.78 897.596 2200.6 896.044 2202.08 893.919 2203.56 891.794 2204.96 888.669 2206.3 884.544L2212.49 884.544 2212.49 902.419C2208.57 903.46 2204.56 904.242 2200.45 904.762 2196.35 905.283 2191.84 905.544 2186.92 905.544 2176.34 905.544 2168.34 901.96 2162.92 894.794 2157.51 887.627 2154.8 876.94 2154.8 862.731 2154.8 853.815 2156.2 846.002 2159.02 839.294 2161.83 832.585 2165.96 827.398 2171.42 823.731 2176.88 820.065 2183.4 818.231 2190.99 818.231Z" fill-rule="evenodd"/><text fill="#000000" fill-opacity="0" font-family="Arial,Arial_MSFontService,sans-serif" font-size="87.3125" x="2154.8" y="894.63">CN</text><path d="M2318.38 835.936 2370.7 835.936 2370.7 842.884 2318.38 842.884Z" fill-rule="evenodd"/><text fill="#000000" fill-opacity="0" font-family="Arial,Arial_MSFontService,sans-serif" font-size="6.94775" x="2318.38" y="842.016">−</text><path d="M2512.16 888.869C2510.37 888.869 2508.71 889.255 2507.19 890.027 2505.66 890.799 2504.26 891.859 2502.98 893.206 2501.71 894.553 2500.58 896.112 2499.58 897.883 2498.58 899.654 2497.74 901.546 2497.06 903.559 2496.38 905.573 2495.86 907.631 2495.51 909.735 2495.17 911.839 2494.99 913.89 2494.99 915.888 2494.99 919.158 2495.45 921.587 2496.38 923.177 2497.3 924.766 2498.79 925.561 2500.85 925.561 2502.27 925.561 2503.82 925.069 2505.51 924.085 2507.19 923.101 2508.82 921.716 2510.41 919.93 2512 918.144 2513.44 915.987 2514.75 913.459 2516.05 910.931 2517.03 908.123 2517.7 905.035 2518.09 903.401 2518.42 901.758 2518.7 900.108 2518.97 898.458 2519.11 896.967 2519.11 895.635 2519.11 893.183 2518.55 891.443 2517.45 890.413 2516.34 889.384 2514.58 888.869 2512.16 888.869ZM2461.48 888.869C2459.81 888.869 2458.17 889.278 2456.55 890.095 2454.93 890.913 2453.4 892.071 2451.96 893.569 2450.52 895.068 2449.21 896.884 2448.03 899.018 2446.85 901.153 2445.87 903.537 2445.08 906.171 2448.93 906.14 2452.23 905.838 2455 905.262 2457.77 904.687 2460.05 903.9 2461.82 902.901 2463.59 901.902 2464.89 900.721 2465.72 899.359 2466.55 897.997 2466.97 896.498 2466.97 894.863 2466.97 892.986 2466.5 891.518 2465.56 890.459 2464.62 889.399 2463.26 888.869 2461.48 888.869ZM2511.34 884.374C2513.64 884.374 2515.71 884.654 2517.54 885.214 2519.37 885.774 2521.06 886.538 2522.6 887.507L2526.92 884.374 2530.59 885.327C2528.6 894.318 2526.62 903.219 2524.67 912.028 2522.72 920.838 2520.89 929.133 2519.2 936.913 2518.62 939.002 2518.33 940.697 2518.33 941.999 2518.33 943.119 2518.76 943.914 2519.6 944.383 2520.45 944.852 2521.91 945.178 2523.96 945.359L2523.33 948.357 2507.75 948.357C2509.02 943.392 2510.21 938.783 2511.32 934.529 2512.42 930.276 2513.63 925.667 2514.93 920.702L2514.2 920.52C2512.69 922.488 2511.21 924.168 2509.77 925.561 2508.34 926.953 2506.93 928.096 2505.55 928.989 2504.17 929.882 2502.8 930.533 2501.42 930.942 2500.04 931.35 2498.66 931.555 2497.26 931.555 2493.66 931.555 2490.88 930.261 2488.91 927.672 2486.94 925.084 2485.96 921.322 2485.96 916.388 2485.96 913.451 2486.27 910.628 2486.89 907.919 2487.51 905.209 2488.39 902.666 2489.52 900.29 2490.66 897.913 2492.01 895.749 2493.58 893.796 2495.16 891.844 2496.88 890.171 2498.76 888.778 2500.64 887.386 2502.64 886.304 2504.76 885.532 2506.88 884.76 2509.07 884.374 2511.34 884.374ZM2463.43 884.374C2467.3 884.374 2470.25 885.221 2472.26 886.917 2474.27 888.612 2475.28 891.019 2475.28 894.137 2475.28 905.096 2464.91 910.575 2444.17 910.575 2444.02 911.362 2443.9 912.218 2443.81 913.141 2443.72 914.064 2443.67 915.071 2443.67 916.161 2443.67 919.461 2444.35 921.867 2445.7 923.381 2447.04 924.895 2449.14 925.651 2451.98 925.651 2453.47 925.651 2454.88 925.493 2456.21 925.175 2457.54 924.857 2458.85 924.365 2460.14 923.699 2461.42 923.033 2462.72 922.178 2464.02 921.133 2465.32 920.089 2466.68 918.84 2468.11 917.387L2471.51 921.065C2468 924.547 2464.5 927.165 2461 928.921 2457.5 930.677 2453.74 931.555 2449.71 931.555 2447.35 931.555 2445.26 931.199 2443.43 930.488 2441.59 929.776 2440.05 928.739 2438.79 927.377 2437.54 926.015 2436.58 924.357 2435.93 922.405 2435.28 920.452 2434.96 918.25 2434.96 915.797 2434.96 914.072 2435.11 912.278 2435.41 910.416 2435.71 908.555 2436.18 906.693 2436.82 904.831 2437.45 902.969 2438.24 901.153 2439.18 899.382 2440.12 897.611 2441.22 895.953 2442.49 894.409 2445.04 891.261 2448.1 888.801 2451.69 887.03 2455.28 885.259 2459.19 884.374 2463.43 884.374Z" fill-rule="evenodd"/><text fill="#000000" fill-opacity="0" font-family="Arial,Arial_MSFontService,sans-serif" font-size="63.9829" x="2434.96" y="940.359">𝑒𝑞</text><path d="M1671.62 777.708 1967.29 777.708 2262.96 777.708 2558.62 777.708 2558.62 785.708 2262.96 785.708 1967.29 785.708 1671.62 785.708Z" fill-rule="evenodd"/><path d="M2603.66 790.948 2680.66 790.948 2680.66 799.26 2603.66 799.26ZM2603.66 765.01 2680.66 765.01 2680.66 773.323 2603.66 773.323Z" fill-rule="evenodd"/><text fill="#000000" fill-opacity="0" font-family="Arial,Arial_MSFontService,sans-serif" font-size="34.25" x="2603.66" y="794.979">=</text></g></svg>