<svg width="330" height="330" xmlns="http://www.w3.org/2000/svg" xmlns:xlink="http://www.w3.org/1999/xlink" xml:space="preserve" overflow="hidden"><defs><clipPath id="clip0"><rect x="1119" y="2072" width="330" height="330"/></clipPath></defs><g clip-path="url(#clip0)" transform="translate(-1119 -2072)"><path d="M1153.5 2201C1153.5 2146.05 1196.48 2101.5 1249.5 2101.5 1302.52 2101.5 1345.5 2146.05 1345.5 2201 1345.5 2255.95 1302.52 2300.5 1249.5 2300.5 1196.48 2300.5 1153.5 2255.95 1153.5 2201Z" stroke="#2F528F" stroke-width="4.58333" stroke-miterlimit="8" fill="#FFFFFF" fill-rule="evenodd"/><path d="M1412.91 2331.88 1369.94 2288.91C1364.09 2283.06 1356.19 2281 1348.62 2282.38L1333.5 2267.25C1346.91 2250.06 1354.81 2228.06 1354.81 2204.69 1354.81 2147.97 1308.41 2101.56 1251.69 2101.56 1194.97 2101.56 1148.56 2147.97 1148.56 2204.69 1148.56 2261.41 1194.97 2307.81 1251.69 2307.81 1275.06 2307.81 1296.72 2299.91 1314.25 2286.5L1329.37 2301.63C1328 2309.19 1330.06 2317.09 1335.91 2322.94L1378.87 2365.91C1383.69 2370.72 1389.87 2373.13 1396.06 2373.13 1402.25 2373.13 1408.44 2370.72 1413.25 2365.91 1422.19 2356.28 1422.19 2341.16 1412.91 2331.88ZM1251.34 2286.84C1205.97 2286.84 1168.84 2249.72 1168.84 2204.34 1168.84 2158.97 1205.97 2121.84 1251.34 2121.84 1296.72 2121.84 1333.84 2158.97 1333.84 2204.34 1333.84 2249.72 1296.72 2286.84 1251.34 2286.84Z" fill="#0000FF"/></g></svg>