<svg width="2714" height="1139" xmlns="http://www.w3.org/2000/svg" xmlns:xlink="http://www.w3.org/1999/xlink" xml:space="preserve" overflow="hidden"><defs><clipPath id="clip0"><rect x="952" y="472" width="2714" height="1139"/></clipPath></defs><g clip-path="url(#clip0)" transform="translate(-952 -472)"><path d="M2248.48 712.032 2363.37 712.032 2363.37 1255.76 2637.68 1255.76 2637.68 1357.73 2248.48 1357.73ZM1991.48 712.032 2106.37 712.032 2106.37 1357.73 1991.48 1357.73ZM2978.77 695.555C2999.25 695.555 3020.78 697.559 3043.34 701.567 3065.9 705.575 3087.5 711.661 3108.13 719.825 3128.77 727.989 3148.21 738.157 3166.47 750.329 3184.73 762.501 3200.24 777.047 3213 793.969L3125.28 863.438C3108.35 840.282 3086.24 823.36 3058.93 812.672 3031.61 801.985 3004.89 796.641 2978.77 796.641 2945.22 796.641 2914.79 802.727 2887.48 814.899 2860.17 827.071 2836.57 843.844 2816.68 865.219 2796.78 886.594 2781.57 911.532 2771.03 940.032 2760.49 968.532 2755.22 999.555 2755.22 1033.1 2755.22 1068.43 2760.34 1100.64 2770.59 1129.73 2780.83 1158.83 2795.52 1183.91 2814.67 1204.99 2833.82 1226.07 2856.83 1242.32 2883.69 1253.75 2910.56 1265.18 2940.62 1270.9 2973.87 1270.9 3008.6 1270.9 3039.33 1264.07 3066.05 1250.41 3092.77 1236.76 3114.44 1218.8 3131.07 1196.53L3222.8 1261.1C3194.3 1297.02 3159.42 1324.86 3118.15 1344.6 3076.89 1364.34 3028.5 1374.21 2972.98 1374.21 2922.51 1374.21 2876.2 1365.82 2834.04 1349.05 2791.89 1332.28 2755.59 1308.82 2725.16 1278.69 2694.73 1248.56 2670.98 1212.71 2653.91 1171.15 2636.84 1129.59 2628.31 1083.57 2628.31 1033.1 2628.31 981.446 2637.29 934.762 2655.25 893.051 2673.21 851.34 2697.85 815.938 2729.17 786.844 2760.49 757.751 2797.45 735.262 2840.05 719.379 2882.66 703.497 2928.89 695.555 2978.77 695.555ZM1683.46 695.555C1716.41 695.555 1749.73 701.344 1783.43 712.922 1817.12 724.501 1846.44 741.868 1871.38 765.024L1796.57 846.961C1784.39 831.227 1767.25 818.016 1745.13 807.329 1723.02 796.641 1700.68 791.297 1678.11 791.297 1664.75 791.297 1651.39 793.004 1638.03 796.419 1624.68 799.833 1612.5 805.028 1601.52 812.004 1590.53 818.981 1581.55 828.11 1574.58 839.391 1567.6 850.672 1564.11 864.18 1564.11 879.915 1564.11 894.461 1567.16 906.93 1573.24 917.321 1579.33 927.711 1587.64 936.543 1598.18 943.817 1608.72 951.09 1621.63 957.473 1636.92 962.965 1652.21 968.458 1668.91 973.875 1687.02 979.219 1707.8 986.047 1729.25 993.692 1751.37 1002.15 1773.48 1010.61 1793.82 1021.82 1812.37 1035.77 1830.93 1049.73 1846.14 1067.39 1858.02 1088.77 1869.89 1110.14 1875.83 1136.56 1875.83 1168.03 1875.83 1202.77 1869.45 1233.05 1856.68 1258.88 1843.92 1284.7 1826.92 1306.15 1805.69 1323.22 1784.47 1340.29 1759.53 1353.06 1730.88 1361.52 1702.23 1369.98 1672.18 1374.21 1640.71 1374.21 1598.85 1374.21 1557.8 1366.42 1517.58 1350.83 1477.35 1335.25 1444.47 1312.31 1418.94 1282.03L1501.32 1205.44C1517.06 1227.41 1538.14 1244.77 1564.56 1257.54 1590.98 1270.31 1616.96 1276.69 1642.49 1276.69 1655.85 1276.69 1669.5 1274.98 1683.46 1271.57 1697.41 1268.15 1710.03 1262.51 1721.31 1254.65 1732.59 1246.78 1741.72 1236.91 1748.69 1225.03 1755.67 1213.16 1759.16 1198.46 1759.16 1180.95 1759.16 1163.73 1755.23 1149.55 1747.36 1138.42 1739.49 1127.29 1728.88 1117.56 1715.52 1109.25 1702.16 1100.94 1686.35 1093.74 1668.09 1087.65 1649.84 1081.57 1630.61 1075.26 1610.43 1068.73 1591.13 1062.49 1571.76 1055.15 1552.31 1046.68 1532.87 1038.22 1515.35 1027.02 1499.77 1013.06 1484.18 999.11 1471.56 981.965 1461.91 961.629 1452.27 941.293 1447.44 915.836 1447.44 885.258 1447.44 852.602 1454.27 824.399 1467.93 800.649 1481.58 776.899 1499.47 757.231 1521.59 741.645 1543.7 726.059 1568.94 714.481 1597.29 706.911 1625.64 699.34 1654.36 695.555 1683.46 695.555Z" stroke="#767171" stroke-width="21" stroke-linejoin="round" stroke-miterlimit="10" fill="#FFFFFF" fill-rule="evenodd"/><text fill="#000000" fill-opacity="0" font-family="Arial,Arial_MSFontService,sans-serif" font-size="678.656" x="1418.94" y="1289.38">SILC</text></g></svg>